<?xml version="1.0" encoding="UTF-8" standalone="no"?>
<!DOCTYPE svg PUBLIC "-//W3C//DTD SVG 1.1//EN"
 "http://www.w3.org/Graphics/SVG/1.1/DTD/svg11.dtd">
<!-- Generated by graphviz version 12.2.1 (20241206.2353)
 -->
<!-- Title: G Pages: 1 -->
<svg width="1183pt" height="240pt"
 viewBox="0.00 0.00 1182.70 240.39" xmlns="http://www.w3.org/2000/svg" xmlns:xlink="http://www.w3.org/1999/xlink">
<g id="graph0" class="graph" transform="scale(1 1) rotate(0) translate(21.6 218.79)">
<title>G</title>
<polygon fill="#111111" stroke="none" points="-21.6,21.6 -21.6,-218.79 1161.1,-218.79 1161.1,21.6 -21.6,21.6"/>
<!-- eval/ast/tx.ts -->
<g id="node1" class="node">
<title>eval/ast/tx.ts</title>
<path fill="none" stroke="#ff6c60" d="M991.46,-78.19C991.46,-78.19 916.29,-78.19 916.29,-78.19 912.33,-78.19 908.38,-74.23 908.38,-70.27 908.38,-70.27 908.38,-62.35 908.38,-62.35 908.38,-58.4 912.33,-54.44 916.29,-54.44 916.29,-54.44 991.46,-54.44 991.46,-54.44 995.42,-54.44 999.38,-58.4 999.38,-62.35 999.38,-62.35 999.38,-70.27 999.38,-70.27 999.38,-74.23 995.42,-78.19 991.46,-78.19"/>
<text text-anchor="middle" x="953.88" y="-60.89" font-family="Arial" font-size="14.00" fill="#ff6c60">eval/ast/tx.ts</text>
</g>
<!-- eval/glsl.ts -->
<g id="node2" class="node">
<title>eval/glsl.ts</title>
<path fill="none" stroke="#ff6c60" d="M1131.58,-77.19C1131.58,-77.19 1068.42,-77.19 1068.42,-77.19 1064.46,-77.19 1060.5,-73.23 1060.5,-69.27 1060.5,-69.27 1060.5,-61.35 1060.5,-61.35 1060.5,-57.4 1064.46,-53.44 1068.42,-53.44 1068.42,-53.44 1131.58,-53.44 1131.58,-53.44 1135.54,-53.44 1139.5,-57.4 1139.5,-61.35 1139.5,-61.35 1139.5,-69.27 1139.5,-69.27 1139.5,-73.23 1135.54,-77.19 1131.58,-77.19"/>
<text text-anchor="middle" x="1100" y="-59.89" font-family="Arial" font-size="14.00" fill="#ff6c60">eval/glsl.ts</text>
</g>
<!-- eval/ast/tx.ts&#45;&gt;eval/glsl.ts -->
<g id="edge1" class="edge">
<title>eval/ast/tx.ts&#45;&gt;eval/glsl.ts</title>
<path fill="none" stroke="#757575" d="M999.69,-59.7C1015.25,-59.05 1032.79,-58.88 1048.76,-59.19"/>
<polygon fill="#757575" stroke="#757575" points="1048.45,-62.69 1058.55,-59.47 1048.65,-55.69 1048.45,-62.69"/>
</g>
<!-- eval/js.ts -->
<g id="node3" class="node">
<title>eval/js.ts</title>
<path fill="none" stroke="#ff6c60" d="M1126.33,-119.19C1126.33,-119.19 1073.67,-119.19 1073.67,-119.19 1069.71,-119.19 1065.75,-115.23 1065.75,-111.27 1065.75,-111.27 1065.75,-103.35 1065.75,-103.35 1065.75,-99.4 1069.71,-95.44 1073.67,-95.44 1073.67,-95.44 1126.33,-95.44 1126.33,-95.44 1130.29,-95.44 1134.25,-99.4 1134.25,-103.35 1134.25,-103.35 1134.25,-111.27 1134.25,-111.27 1134.25,-115.23 1130.29,-119.19 1126.33,-119.19"/>
<text text-anchor="middle" x="1100" y="-101.89" font-family="Arial" font-size="14.00" fill="#ff6c60">eval/js.ts</text>
</g>
<!-- eval/ast/tx.ts&#45;&gt;eval/js.ts -->
<g id="edge2" class="edge">
<title>eval/ast/tx.ts&#45;&gt;eval/js.ts</title>
<path fill="none" stroke="#757575" d="M999.69,-72.76C1020.27,-77.9 1044.34,-84.88 1063.62,-91.34"/>
<polygon fill="#757575" stroke="#757575" points="1062.33,-94.6 1072.93,-94.57 1064.63,-87.99 1062.33,-94.6"/>
</g>
<!-- eval/glsl.ts&#45;&gt;eval/ast/tx.ts -->
<g id="edge3" class="edge">
<title>eval/glsl.ts&#45;&gt;eval/ast/tx.ts</title>
<path fill="none" stroke="#757575" d="M1060.06,-71.65C1044.92,-72.42 1027.29,-72.72 1010.84,-72.52"/>
<polygon fill="#757575" stroke="#757575" points="1011.27,-69.03 1001.2,-72.33 1011.13,-76.03 1011.27,-69.03"/>
</g>
<!-- eval/js.ts&#45;&gt;eval/ast/tx.ts -->
<g id="edge4" class="edge">
<title>eval/js.ts&#45;&gt;eval/ast/tx.ts</title>
<path fill="none" stroke="#757575" d="M1065.38,-103.56C1042.84,-98.37 1013.2,-89.97 990.3,-82.29"/>
<polygon fill="#757575" stroke="#757575" points="991.68,-79.07 981.08,-79.1 989.38,-85.68 991.68,-79.07"/>
</g>
<!-- field/cmd/leaf/num.ts -->
<g id="node4" class="node">
<title>field/cmd/leaf/num.ts</title>
<path fill="none" stroke="#ff6c60" d="M1016.58,-36.19C1016.58,-36.19 891.17,-36.19 891.17,-36.19 887.21,-36.19 883.25,-32.23 883.25,-28.27 883.25,-28.27 883.25,-20.35 883.25,-20.35 883.25,-16.4 887.21,-12.44 891.17,-12.44 891.17,-12.44 1016.58,-12.44 1016.58,-12.44 1020.54,-12.44 1024.5,-16.4 1024.5,-20.35 1024.5,-20.35 1024.5,-28.27 1024.5,-28.27 1024.5,-32.23 1020.54,-36.19 1016.58,-36.19"/>
<text text-anchor="middle" x="953.88" y="-18.89" font-family="Arial" font-size="14.00" fill="#ff6c60">field/cmd/leaf/num.ts</text>
</g>
<!-- field/cmd/leaf/var.ts -->
<g id="node5" class="node">
<title>field/cmd/leaf/var.ts</title>
<path fill="none" stroke="#ff6c60" d="M839.33,-36.19C839.33,-36.19 722.92,-36.19 722.92,-36.19 718.96,-36.19 715,-32.23 715,-28.27 715,-28.27 715,-20.35 715,-20.35 715,-16.4 718.96,-12.44 722.92,-12.44 722.92,-12.44 839.33,-12.44 839.33,-12.44 843.29,-12.44 847.25,-16.4 847.25,-20.35 847.25,-20.35 847.25,-28.27 847.25,-28.27 847.25,-32.23 843.29,-36.19 839.33,-36.19"/>
<text text-anchor="middle" x="781.12" y="-18.89" font-family="Arial" font-size="14.00" fill="#ff6c60">field/cmd/leaf/var.ts</text>
</g>
<!-- field/cmd/leaf/num.ts&#45;&gt;field/cmd/leaf/var.ts -->
<g id="edge5" class="edge">
<title>field/cmd/leaf/num.ts&#45;&gt;field/cmd/leaf/var.ts</title>
<path fill="none" stroke="#757575" d="M882.99,-30.96C875.05,-31.07 866.92,-31.09 858.9,-31.03"/>
<polygon fill="#757575" stroke="#757575" points="859.21,-27.53 849.17,-30.92 859.12,-34.53 859.21,-27.53"/>
</g>
<!-- field/cmd/leaf/var.ts&#45;&gt;eval/ast/tx.ts -->
<g id="edge6" class="edge">
<title>field/cmd/leaf/var.ts&#45;&gt;eval/ast/tx.ts</title>
<path fill="none" stroke="#757575" d="M832.43,-36.69C852.78,-41.69 876.34,-47.49 897.2,-52.62"/>
<polygon fill="#757575" stroke="#757575" points="896.14,-55.96 906.68,-54.95 897.81,-49.16 896.14,-55.96"/>
</g>
<!-- field/cmd/leaf/var.ts&#45;&gt;field/cmd/leaf/num.ts -->
<g id="edge7" class="edge">
<title>field/cmd/leaf/var.ts&#45;&gt;field/cmd/leaf/num.ts</title>
<path fill="none" stroke="#757575" d="M847.65,-17.73C855.52,-17.59 863.62,-17.54 871.67,-17.57"/>
<polygon fill="#757575" stroke="#757575" points="871.44,-21.07 881.47,-17.65 871.5,-14.07 871.44,-21.07"/>
</g>
<!-- sheet/factory&#45;expr.ts -->
<g id="node6" class="node">
<title>sheet/factory&#45;expr.ts</title>
<path fill="none" stroke="#ff6c60" d="M309.08,-197.19C309.08,-197.19 187.42,-197.19 187.42,-197.19 183.46,-197.19 179.5,-193.23 179.5,-189.27 179.5,-189.27 179.5,-181.35 179.5,-181.35 179.5,-177.4 183.46,-173.44 187.42,-173.44 187.42,-173.44 309.08,-173.44 309.08,-173.44 313.04,-173.44 317,-177.4 317,-181.35 317,-181.35 317,-189.27 317,-189.27 317,-193.23 313.04,-197.19 309.08,-197.19"/>
<text text-anchor="middle" x="248.25" y="-179.89" font-family="Arial" font-size="14.00" fill="#ff6c60">sheet/factory&#45;expr.ts</text>
</g>
<!-- sheet/ui/expr/index.ts -->
<g id="node7" class="node">
<title>sheet/ui/expr/index.ts</title>
<path fill="none" stroke="#ff6c60" d="M135.58,-137.19C135.58,-137.19 7.92,-137.19 7.92,-137.19 3.96,-137.19 0,-133.23 0,-129.27 0,-129.27 0,-121.35 0,-121.35 0,-117.4 3.96,-113.44 7.92,-113.44 7.92,-113.44 135.58,-113.44 135.58,-113.44 139.54,-113.44 143.5,-117.4 143.5,-121.35 143.5,-121.35 143.5,-129.27 143.5,-129.27 143.5,-133.23 139.54,-137.19 135.58,-137.19"/>
<text text-anchor="middle" x="71.75" y="-119.89" font-family="Arial" font-size="14.00" fill="#ff6c60">sheet/ui/expr/index.ts</text>
</g>
<!-- sheet/factory&#45;expr.ts&#45;&gt;sheet/ui/expr/index.ts -->
<g id="edge8" class="edge">
<title>sheet/factory&#45;expr.ts&#45;&gt;sheet/ui/expr/index.ts</title>
<path fill="none" stroke="#757575" d="M193.15,-173.01C164.43,-163.95 130.08,-151.85 105.44,-141.95"/>
<polygon fill="#757575" stroke="#757575" points="106.83,-138.74 96.25,-138.16 104.16,-145.21 106.83,-138.74"/>
</g>
<!-- sheet/ui/expr/index.ts&#45;&gt;eval/js.ts -->
<g id="edge15" class="edge">
<title>sheet/ui/expr/index.ts&#45;&gt;eval/js.ts</title>
<path fill="none" stroke="#757575" d="M144,-131.92C213.06,-137.74 320.8,-145.31 414.38,-145.31 414.38,-145.31 414.38,-145.31 782.12,-145.31 879.72,-145.31 993.04,-127.32 1054.23,-116.1"/>
<polygon fill="#757575" stroke="#757575" points="1054.72,-119.57 1063.91,-114.3 1053.43,-112.69 1054.72,-119.57"/>
</g>
<!-- sheet/ui/expr/index.ts&#45;&gt;field/cmd/leaf/var.ts -->
<g id="edge16" class="edge">
<title>sheet/ui/expr/index.ts&#45;&gt;field/cmd/leaf/var.ts</title>
<path fill="none" stroke="#757575" d="M84.5,-113.07C102.82,-94.91 140.19,-61.46 179.5,-47.31 358.15,16.97 586.24,1.5 703.26,-12.83"/>
<polygon fill="#757575" stroke="#757575" points="702.72,-16.29 713.08,-14.07 703.59,-9.35 702.72,-16.29"/>
</g>
<!-- sheet/ui/expr/index.ts&#45;&gt;sheet/factory&#45;expr.ts -->
<g id="edge17" class="edge">
<title>sheet/ui/expr/index.ts&#45;&gt;sheet/factory&#45;expr.ts</title>
<path fill="none" stroke="#757575" d="M127.01,-137.67C155.64,-146.69 189.83,-158.75 214.42,-168.61"/>
<polygon fill="#757575" stroke="#757575" points="213.01,-171.82 223.59,-172.39 215.68,-165.34 213.01,-171.82"/>
</g>
<!-- sheet/pick&#45;cursor.ts -->
<g id="node8" class="node">
<title>sheet/pick&#45;cursor.ts</title>
<path fill="none" stroke="#ff6c60" d="M306.46,-117.19C306.46,-117.19 190.04,-117.19 190.04,-117.19 186.08,-117.19 182.12,-113.23 182.12,-109.27 182.12,-109.27 182.12,-101.35 182.12,-101.35 182.12,-97.4 186.08,-93.44 190.04,-93.44 190.04,-93.44 306.46,-93.44 306.46,-93.44 310.42,-93.44 314.38,-97.4 314.38,-101.35 314.38,-101.35 314.38,-109.27 314.38,-109.27 314.38,-113.23 310.42,-117.19 306.46,-117.19"/>
<text text-anchor="middle" x="248.25" y="-99.89" font-family="Arial" font-size="14.00" fill="#ff6c60">sheet/pick&#45;cursor.ts</text>
</g>
<!-- sheet/ui/expr/index.ts&#45;&gt;sheet/pick&#45;cursor.ts -->
<g id="edge18" class="edge">
<title>sheet/ui/expr/index.ts&#45;&gt;sheet/pick&#45;cursor.ts</title>
<path fill="none" stroke="#757575" d="M143.98,-117.15C152.79,-116.14 161.83,-115.1 170.72,-114.08"/>
<polygon fill="#757575" stroke="#757575" points="170.83,-117.59 180.36,-112.98 170.03,-110.64 170.83,-117.59"/>
</g>
<!-- sheet/pick&#45;cursor.ts&#45;&gt;eval/js.ts -->
<g id="edge9" class="edge">
<title>sheet/pick&#45;cursor.ts&#45;&gt;eval/js.ts</title>
<path fill="none" stroke="#757575" d="M314.64,-105.91C384.23,-106.5 497.58,-107.31 595.38,-107.31 595.38,-107.31 595.38,-107.31 782.12,-107.31 879.29,-107.31 993.21,-107.31 1054.52,-107.31"/>
<polygon fill="#757575" stroke="#757575" points="1054.18,-110.81 1064.18,-107.31 1054.18,-103.81 1054.18,-110.81"/>
</g>
<!-- sheet/ui/cv/item.ts -->
<g id="node9" class="node">
<title>sheet/ui/cv/item.ts</title>
<path fill="none" stroke="#ff6c60" d="M469.83,-79.19C469.83,-79.19 360.92,-79.19 360.92,-79.19 356.96,-79.19 353,-75.23 353,-71.27 353,-71.27 353,-63.35 353,-63.35 353,-59.4 356.96,-55.44 360.92,-55.44 360.92,-55.44 469.83,-55.44 469.83,-55.44 473.79,-55.44 477.75,-59.4 477.75,-63.35 477.75,-63.35 477.75,-71.27 477.75,-71.27 477.75,-75.23 473.79,-79.19 469.83,-79.19"/>
<text text-anchor="middle" x="415.38" y="-61.89" font-family="Arial" font-size="14.00" fill="#ff6c60">sheet/ui/cv/item.ts</text>
</g>
<!-- sheet/pick&#45;cursor.ts&#45;&gt;sheet/ui/cv/item.ts -->
<g id="edge10" class="edge">
<title>sheet/pick&#45;cursor.ts&#45;&gt;sheet/ui/cv/item.ts</title>
<path fill="none" stroke="#757575" d="M302.86,-92.97C317.79,-89.54 334.16,-85.77 349.66,-82.21"/>
<polygon fill="#757575" stroke="#757575" points="350.31,-85.65 359.28,-79.99 348.75,-78.82 350.31,-85.65"/>
</g>
<!-- sheet/ui/cv/item&#45;virtual.ts -->
<g id="node10" class="node">
<title>sheet/ui/cv/item&#45;virtual.ts</title>
<path fill="none" stroke="#ff6c60" d="M671.08,-60.19C671.08,-60.19 521.67,-60.19 521.67,-60.19 517.71,-60.19 513.75,-56.23 513.75,-52.27 513.75,-52.27 513.75,-44.35 513.75,-44.35 513.75,-40.4 517.71,-36.44 521.67,-36.44 521.67,-36.44 671.08,-36.44 671.08,-36.44 675.04,-36.44 679,-40.4 679,-44.35 679,-44.35 679,-52.27 679,-52.27 679,-56.23 675.04,-60.19 671.08,-60.19"/>
<text text-anchor="middle" x="596.38" y="-42.89" font-family="Arial" font-size="14.00" fill="#ff6c60">sheet/ui/cv/item&#45;virtual.ts</text>
</g>
<!-- sheet/ui/cv/item.ts&#45;&gt;sheet/ui/cv/item&#45;virtual.ts -->
<g id="edge14" class="edge">
<title>sheet/ui/cv/item.ts&#45;&gt;sheet/ui/cv/item&#45;virtual.ts</title>
<path fill="none" stroke="#757575" d="M473.01,-54.97C482.31,-53.74 492.17,-52.55 502.08,-51.47"/>
<polygon fill="#757575" stroke="#757575" points="502.19,-54.98 511.77,-50.45 501.46,-48.02 502.19,-54.98"/>
</g>
<!-- sheet/ui/cv/item&#45;virtual.ts&#45;&gt;field/cmd/leaf/var.ts -->
<g id="edge11" class="edge">
<title>sheet/ui/cv/item&#45;virtual.ts&#45;&gt;field/cmd/leaf/var.ts</title>
<path fill="none" stroke="#757575" d="M679.4,-37.54C687.3,-36.5 695.3,-35.45 703.15,-34.42"/>
<polygon fill="#757575" stroke="#757575" points="703.57,-37.9 713.03,-33.12 702.66,-30.96 703.57,-37.9"/>
</g>
<!-- sheet/ui/cv/item&#45;virtual.ts&#45;&gt;sheet/ui/expr/index.ts -->
<g id="edge13" class="edge">
<title>sheet/ui/cv/item&#45;virtual.ts&#45;&gt;sheet/ui/expr/index.ts</title>
<path fill="none" stroke="#757575" d="M513.43,-46.74C501.46,-46.56 489.29,-46.41 477.75,-46.31 422.31,-45.84 408.12,-40.35 353,-46.31 274.52,-54.81 255.12,-61.65 179.5,-84.31 156.71,-91.14 131.87,-100.56 111.89,-108.64"/>
<polygon fill="#757575" stroke="#757575" points="110.66,-105.37 102.74,-112.4 113.32,-111.84 110.66,-105.37"/>
</g>
<!-- sheet/ui/cv/item&#45;virtual.ts&#45;&gt;sheet/ui/cv/item.ts -->
<g id="edge12" class="edge">
<title>sheet/ui/cv/item&#45;virtual.ts&#45;&gt;sheet/ui/cv/item.ts</title>
<path fill="none" stroke="#757575" d="M538.63,-60.67C523,-62.74 505.84,-64.67 489.43,-66.2"/>
<polygon fill="#757575" stroke="#757575" points="489.39,-62.7 479.73,-67.07 490.01,-69.67 489.39,-62.7"/>
</g>
</g>
</svg>
