<?xml version="1.0" encoding="UTF-8" standalone="no"?>
<!DOCTYPE svg PUBLIC "-//W3C//DTD SVG 1.1//EN"
 "http://www.w3.org/Graphics/SVG/1.1/DTD/svg11.dtd">
<!-- Generated by graphviz version 12.2.1 (20241206.2353)
 -->
<!-- Title: G Pages: 1 -->
<svg width="890pt" height="87pt"
 viewBox="0.00 0.00 890.45 86.95" xmlns="http://www.w3.org/2000/svg" xmlns:xlink="http://www.w3.org/1999/xlink">
<g id="graph0" class="graph" transform="scale(1 1) rotate(0) translate(21.6 65.35)">
<title>G</title>
<polygon fill="#111111" stroke="none" points="-21.6,21.6 -21.6,-65.35 868.85,-65.35 868.85,21.6 -21.6,21.6"/>
<!-- sheet/factory&#45;expr.ts -->
<g id="node1" class="node">
<title>sheet/factory&#45;expr.ts</title>
<path fill="none" stroke="#ff6c60" d="M129.58,-23.75C129.58,-23.75 7.92,-23.75 7.92,-23.75 3.96,-23.75 0,-19.79 0,-15.83 0,-15.83 0,-7.92 0,-7.92 0,-3.96 3.96,0 7.92,0 7.92,0 129.58,0 129.58,0 133.54,0 137.5,-3.96 137.5,-7.92 137.5,-7.92 137.5,-15.83 137.5,-15.83 137.5,-19.79 133.54,-23.75 129.58,-23.75"/>
<text text-anchor="middle" x="68.75" y="-6.45" font-family="Arial" font-size="14.00" fill="#ff6c60">sheet/factory&#45;expr.ts</text>
</g>
<!-- sheet/ui/expr/index.ts -->
<g id="node2" class="node">
<title>sheet/ui/expr/index.ts</title>
<path fill="none" stroke="#ff6c60" d="M309.08,-23.75C309.08,-23.75 181.42,-23.75 181.42,-23.75 177.46,-23.75 173.5,-19.79 173.5,-15.83 173.5,-15.83 173.5,-7.92 173.5,-7.92 173.5,-3.96 177.46,0 181.42,0 181.42,0 309.08,0 309.08,0 313.04,0 317,-3.96 317,-7.92 317,-7.92 317,-15.83 317,-15.83 317,-19.79 313.04,-23.75 309.08,-23.75"/>
<text text-anchor="middle" x="245.25" y="-6.45" font-family="Arial" font-size="14.00" fill="#ff6c60">sheet/ui/expr/index.ts</text>
</g>
<!-- sheet/factory&#45;expr.ts&#45;&gt;sheet/ui/expr/index.ts -->
<g id="edge1" class="edge">
<title>sheet/factory&#45;expr.ts&#45;&gt;sheet/ui/expr/index.ts</title>
<path fill="none" stroke="#757575" d="M137.97,-5.27C145.83,-5.15 153.91,-5.1 161.93,-5.13"/>
<polygon fill="#757575" stroke="#757575" points="161.66,-8.63 171.69,-5.22 161.72,-1.63 161.66,-8.63"/>
</g>
<!-- sheet/ui/expr/index.ts&#45;&gt;sheet/factory&#45;expr.ts -->
<g id="edge5" class="edge">
<title>sheet/ui/expr/index.ts&#45;&gt;sheet/factory&#45;expr.ts</title>
<path fill="none" stroke="#757575" d="M173.2,-18.52C165.39,-18.62 157.39,-18.65 149.47,-18.6"/>
<polygon fill="#757575" stroke="#757575" points="149.52,-15.1 139.48,-18.5 149.44,-22.1 149.52,-15.1"/>
</g>
<!-- sheet/pick&#45;cursor.ts -->
<g id="node3" class="node">
<title>sheet/pick&#45;cursor.ts</title>
<path fill="none" stroke="#ff6c60" d="M477.33,-43.75C477.33,-43.75 360.92,-43.75 360.92,-43.75 356.96,-43.75 353,-39.79 353,-35.83 353,-35.83 353,-27.92 353,-27.92 353,-23.96 356.96,-20 360.92,-20 360.92,-20 477.33,-20 477.33,-20 481.29,-20 485.25,-23.96 485.25,-27.92 485.25,-27.92 485.25,-35.83 485.25,-35.83 485.25,-39.79 481.29,-43.75 477.33,-43.75"/>
<text text-anchor="middle" x="419.12" y="-26.45" font-family="Arial" font-size="14.00" fill="#ff6c60">sheet/pick&#45;cursor.ts</text>
</g>
<!-- sheet/ui/expr/index.ts&#45;&gt;sheet/pick&#45;cursor.ts -->
<g id="edge6" class="edge">
<title>sheet/ui/expr/index.ts&#45;&gt;sheet/pick&#45;cursor.ts</title>
<path fill="none" stroke="#757575" d="M317.15,-20.13C325.13,-21.05 333.29,-22 341.35,-22.94"/>
<polygon fill="#757575" stroke="#757575" points="340.79,-26.4 351.12,-24.08 341.6,-19.45 340.79,-26.4"/>
</g>
<!-- sheet/ui/cv/item.ts -->
<g id="node4" class="node">
<title>sheet/ui/cv/item.ts</title>
<path fill="none" stroke="#ff6c60" d="M638.08,-43.75C638.08,-43.75 529.17,-43.75 529.17,-43.75 525.21,-43.75 521.25,-39.79 521.25,-35.83 521.25,-35.83 521.25,-27.92 521.25,-27.92 521.25,-23.96 525.21,-20 529.17,-20 529.17,-20 638.08,-20 638.08,-20 642.04,-20 646,-23.96 646,-27.92 646,-27.92 646,-35.83 646,-35.83 646,-39.79 642.04,-43.75 638.08,-43.75"/>
<text text-anchor="middle" x="583.62" y="-26.45" font-family="Arial" font-size="14.00" fill="#ff6c60">sheet/ui/cv/item.ts</text>
</g>
<!-- sheet/pick&#45;cursor.ts&#45;&gt;sheet/ui/cv/item.ts -->
<g id="edge2" class="edge">
<title>sheet/pick&#45;cursor.ts&#45;&gt;sheet/ui/cv/item.ts</title>
<path fill="none" stroke="#757575" d="M485.28,-31.88C493.27,-31.88 501.46,-31.88 509.55,-31.88"/>
<polygon fill="#757575" stroke="#757575" points="509.37,-35.38 519.37,-31.88 509.37,-28.38 509.37,-35.38"/>
</g>
<!-- sheet/ui/cv/item&#45;virtual.ts -->
<g id="node5" class="node">
<title>sheet/ui/cv/item&#45;virtual.ts</title>
<path fill="none" stroke="#ff6c60" d="M839.33,-23.75C839.33,-23.75 689.92,-23.75 689.92,-23.75 685.96,-23.75 682,-19.79 682,-15.83 682,-15.83 682,-7.92 682,-7.92 682,-3.96 685.96,0 689.92,0 689.92,0 839.33,0 839.33,0 843.29,0 847.25,-3.96 847.25,-7.92 847.25,-7.92 847.25,-15.83 847.25,-15.83 847.25,-19.79 843.29,-23.75 839.33,-23.75"/>
<text text-anchor="middle" x="764.62" y="-6.45" font-family="Arial" font-size="14.00" fill="#ff6c60">sheet/ui/cv/item&#45;virtual.ts</text>
</g>
<!-- sheet/ui/cv/item.ts&#45;&gt;sheet/ui/cv/item&#45;virtual.ts -->
<g id="edge4" class="edge">
<title>sheet/ui/cv/item.ts&#45;&gt;sheet/ui/cv/item&#45;virtual.ts</title>
<path fill="none" stroke="#757575" d="M646.48,-24.96C654.17,-24.1 662.16,-23.21 670.2,-22.31"/>
<polygon fill="#757575" stroke="#757575" points="670.51,-25.8 680.06,-21.21 669.73,-18.84 670.51,-25.8"/>
</g>
<!-- sheet/ui/cv/item&#45;virtual.ts&#45;&gt;sheet/ui/expr/index.ts -->
<g id="edge3" class="edge">
<title>sheet/ui/cv/item&#45;virtual.ts&#45;&gt;sheet/ui/expr/index.ts</title>
<path fill="none" stroke="#757575" d="M681.68,-11.09C669.71,-11 657.54,-10.92 646,-10.88 515.78,-10.32 483.22,-10.27 353,-10.88 345.19,-10.91 337.06,-10.96 328.92,-11.02"/>
<polygon fill="#757575" stroke="#757575" points="328.94,-7.52 318.97,-11.1 328.99,-14.52 328.94,-7.52"/>
</g>
</g>
</svg>
