<?xml version="1.0" encoding="UTF-8" standalone="no"?>
<!DOCTYPE svg PUBLIC "-//W3C//DTD SVG 1.1//EN"
 "http://www.w3.org/Graphics/SVG/1.1/DTD/svg11.dtd">
<!-- Generated by graphviz version 12.2.1 (20241206.2353)
 -->
<!-- Title: G Pages: 1 -->
<svg width="1177pt" height="240pt"
 viewBox="0.00 0.00 1177.45 240.09" xmlns="http://www.w3.org/2000/svg" xmlns:xlink="http://www.w3.org/1999/xlink">
<g id="graph0" class="graph" transform="scale(1 1) rotate(0) translate(21.6 218.49)">
<title>G</title>
<polygon fill="#111111" stroke="none" points="-21.6,21.6 -21.6,-218.49 1155.85,-218.49 1155.85,21.6 -21.6,21.6"/>
<!-- eval/ast/tx.ts -->
<g id="node1" class="node">
<title>eval/ast/tx.ts</title>
<path fill="none" stroke="#ff6c60" d="M986.21,-77.89C986.21,-77.89 911.04,-77.89 911.04,-77.89 907.08,-77.89 903.12,-73.93 903.12,-69.97 903.12,-69.97 903.12,-62.05 903.12,-62.05 903.12,-58.1 907.08,-54.14 911.04,-54.14 911.04,-54.14 986.21,-54.14 986.21,-54.14 990.17,-54.14 994.12,-58.1 994.12,-62.05 994.12,-62.05 994.12,-69.97 994.12,-69.97 994.12,-73.93 990.17,-77.89 986.21,-77.89"/>
<text text-anchor="middle" x="948.62" y="-60.59" font-family="Arial" font-size="14.00" fill="#ff6c60">eval/ast/tx.ts</text>
</g>
<!-- eval/glsl.ts -->
<g id="node2" class="node">
<title>eval/glsl.ts</title>
<path fill="none" stroke="#ff6c60" d="M1126.33,-76.89C1126.33,-76.89 1063.17,-76.89 1063.17,-76.89 1059.21,-76.89 1055.25,-72.93 1055.25,-68.97 1055.25,-68.97 1055.25,-61.05 1055.25,-61.05 1055.25,-57.1 1059.21,-53.14 1063.17,-53.14 1063.17,-53.14 1126.33,-53.14 1126.33,-53.14 1130.29,-53.14 1134.25,-57.1 1134.25,-61.05 1134.25,-61.05 1134.25,-68.97 1134.25,-68.97 1134.25,-72.93 1130.29,-76.89 1126.33,-76.89"/>
<text text-anchor="middle" x="1094.75" y="-59.59" font-family="Arial" font-size="14.00" fill="#ff6c60">eval/glsl.ts</text>
</g>
<!-- eval/ast/tx.ts&#45;&gt;eval/glsl.ts -->
<g id="edge1" class="edge">
<title>eval/ast/tx.ts&#45;&gt;eval/glsl.ts</title>
<path fill="none" stroke="#757575" d="M994.44,-59.4C1010,-58.76 1027.54,-58.58 1043.51,-58.89"/>
<polygon fill="#757575" stroke="#757575" points="1043.2,-62.39 1053.3,-59.17 1043.4,-55.39 1043.2,-62.39"/>
</g>
<!-- eval/js.ts -->
<g id="node3" class="node">
<title>eval/js.ts</title>
<path fill="none" stroke="#ff6c60" d="M1121.08,-118.89C1121.08,-118.89 1068.42,-118.89 1068.42,-118.89 1064.46,-118.89 1060.5,-114.93 1060.5,-110.97 1060.5,-110.97 1060.5,-103.05 1060.5,-103.05 1060.5,-99.1 1064.46,-95.14 1068.42,-95.14 1068.42,-95.14 1121.08,-95.14 1121.08,-95.14 1125.04,-95.14 1129,-99.1 1129,-103.05 1129,-103.05 1129,-110.97 1129,-110.97 1129,-114.93 1125.04,-118.89 1121.08,-118.89"/>
<text text-anchor="middle" x="1094.75" y="-101.59" font-family="Arial" font-size="14.00" fill="#ff6c60">eval/js.ts</text>
</g>
<!-- eval/ast/tx.ts&#45;&gt;eval/js.ts -->
<g id="edge2" class="edge">
<title>eval/ast/tx.ts&#45;&gt;eval/js.ts</title>
<path fill="none" stroke="#757575" d="M994.44,-72.46C1015.02,-77.61 1039.09,-84.58 1058.37,-91.05"/>
<polygon fill="#757575" stroke="#757575" points="1057.08,-94.3 1067.68,-94.28 1059.38,-87.69 1057.08,-94.3"/>
</g>
<!-- eval/glsl.ts&#45;&gt;eval/ast/tx.ts -->
<g id="edge3" class="edge">
<title>eval/glsl.ts&#45;&gt;eval/ast/tx.ts</title>
<path fill="none" stroke="#757575" d="M1054.81,-71.35C1039.67,-72.13 1022.04,-72.42 1005.59,-72.22"/>
<polygon fill="#757575" stroke="#757575" points="1006.02,-68.73 995.95,-72.03 1005.88,-75.73 1006.02,-68.73"/>
</g>
<!-- eval/js.ts&#45;&gt;eval/ast/tx.ts -->
<g id="edge4" class="edge">
<title>eval/js.ts&#45;&gt;eval/ast/tx.ts</title>
<path fill="none" stroke="#757575" d="M1060.13,-103.26C1037.59,-98.07 1007.95,-89.67 985.05,-81.99"/>
<polygon fill="#757575" stroke="#757575" points="986.43,-78.77 975.83,-78.8 984.13,-85.38 986.43,-78.77"/>
</g>
<!-- field/cmd/leaf/num.ts -->
<g id="node4" class="node">
<title>field/cmd/leaf/num.ts</title>
<path fill="none" stroke="#ff6c60" d="M1011.33,-35.89C1011.33,-35.89 885.92,-35.89 885.92,-35.89 881.96,-35.89 878,-31.93 878,-27.97 878,-27.97 878,-20.05 878,-20.05 878,-16.1 881.96,-12.14 885.92,-12.14 885.92,-12.14 1011.33,-12.14 1011.33,-12.14 1015.29,-12.14 1019.25,-16.1 1019.25,-20.05 1019.25,-20.05 1019.25,-27.97 1019.25,-27.97 1019.25,-31.93 1015.29,-35.89 1011.33,-35.89"/>
<text text-anchor="middle" x="948.62" y="-18.59" font-family="Arial" font-size="14.00" fill="#ff6c60">field/cmd/leaf/num.ts</text>
</g>
<!-- field/cmd/leaf/var.ts -->
<g id="node5" class="node">
<title>field/cmd/leaf/var.ts</title>
<path fill="none" stroke="#ff6c60" d="M834.08,-35.89C834.08,-35.89 717.67,-35.89 717.67,-35.89 713.71,-35.89 709.75,-31.93 709.75,-27.97 709.75,-27.97 709.75,-20.05 709.75,-20.05 709.75,-16.1 713.71,-12.14 717.67,-12.14 717.67,-12.14 834.08,-12.14 834.08,-12.14 838.04,-12.14 842,-16.1 842,-20.05 842,-20.05 842,-27.97 842,-27.97 842,-31.93 838.04,-35.89 834.08,-35.89"/>
<text text-anchor="middle" x="775.88" y="-18.59" font-family="Arial" font-size="14.00" fill="#ff6c60">field/cmd/leaf/var.ts</text>
</g>
<!-- field/cmd/leaf/num.ts&#45;&gt;field/cmd/leaf/var.ts -->
<g id="edge5" class="edge">
<title>field/cmd/leaf/num.ts&#45;&gt;field/cmd/leaf/var.ts</title>
<path fill="none" stroke="#757575" d="M877.74,-30.66C869.8,-30.77 861.67,-30.79 853.65,-30.73"/>
<polygon fill="#757575" stroke="#757575" points="853.96,-27.24 843.92,-30.62 853.87,-34.24 853.96,-27.24"/>
</g>
<!-- field/cmd/leaf/var.ts&#45;&gt;eval/ast/tx.ts -->
<g id="edge6" class="edge">
<title>field/cmd/leaf/var.ts&#45;&gt;eval/ast/tx.ts</title>
<path fill="none" stroke="#757575" d="M827.18,-36.39C847.53,-41.39 871.09,-47.19 891.95,-52.32"/>
<polygon fill="#757575" stroke="#757575" points="890.89,-55.66 901.43,-54.65 892.56,-48.86 890.89,-55.66"/>
</g>
<!-- field/cmd/leaf/var.ts&#45;&gt;field/cmd/leaf/num.ts -->
<g id="edge7" class="edge">
<title>field/cmd/leaf/var.ts&#45;&gt;field/cmd/leaf/num.ts</title>
<path fill="none" stroke="#757575" d="M842.4,-17.43C850.27,-17.3 858.37,-17.24 866.42,-17.27"/>
<polygon fill="#757575" stroke="#757575" points="866.19,-20.77 876.22,-17.35 866.25,-13.77 866.19,-20.77"/>
</g>
<!-- sheet/item.ts -->
<g id="node6" class="node">
<title>sheet/item.ts</title>
<path fill="none" stroke="#ff6c60" d="M284.33,-196.89C284.33,-196.89 206.92,-196.89 206.92,-196.89 202.96,-196.89 199,-192.93 199,-188.97 199,-188.97 199,-181.05 199,-181.05 199,-177.1 202.96,-173.14 206.92,-173.14 206.92,-173.14 284.33,-173.14 284.33,-173.14 288.29,-173.14 292.25,-177.1 292.25,-181.05 292.25,-181.05 292.25,-188.97 292.25,-188.97 292.25,-192.93 288.29,-196.89 284.33,-196.89"/>
<text text-anchor="middle" x="245.62" y="-179.59" font-family="Arial" font-size="14.00" fill="#ff6c60">sheet/item.ts</text>
</g>
<!-- sheet/ui/expr/index.ts -->
<g id="node7" class="node">
<title>sheet/ui/expr/index.ts</title>
<path fill="none" stroke="#ff6c60" d="M135.58,-136.89C135.58,-136.89 7.92,-136.89 7.92,-136.89 3.96,-136.89 0,-132.93 0,-128.97 0,-128.97 0,-121.05 0,-121.05 0,-117.1 3.96,-113.14 7.92,-113.14 7.92,-113.14 135.58,-113.14 135.58,-113.14 139.54,-113.14 143.5,-117.1 143.5,-121.05 143.5,-121.05 143.5,-128.97 143.5,-128.97 143.5,-132.93 139.54,-136.89 135.58,-136.89"/>
<text text-anchor="middle" x="71.75" y="-119.59" font-family="Arial" font-size="14.00" fill="#ff6c60">sheet/ui/expr/index.ts</text>
</g>
<!-- sheet/item.ts&#45;&gt;sheet/ui/expr/index.ts -->
<g id="edge8" class="edge">
<title>sheet/item.ts&#45;&gt;sheet/ui/expr/index.ts</title>
<path fill="none" stroke="#757575" d="M198.51,-174.97C168.99,-165.77 131.43,-152.44 105.07,-141.71"/>
<polygon fill="#757575" stroke="#757575" points="106.49,-138.51 95.91,-137.87 103.78,-144.96 106.49,-138.51"/>
</g>
<!-- sheet/ui/expr/index.ts&#45;&gt;eval/js.ts -->
<g id="edge15" class="edge">
<title>sheet/ui/expr/index.ts&#45;&gt;eval/js.ts</title>
<path fill="none" stroke="#757575" d="M143.88,-131.7C211.91,-137.51 317.42,-145.01 409.12,-145.01 409.12,-145.01 409.12,-145.01 776.88,-145.01 874.47,-145.01 987.79,-127.02 1048.98,-115.8"/>
<polygon fill="#757575" stroke="#757575" points="1049.47,-119.27 1058.66,-114 1048.18,-112.39 1049.47,-119.27"/>
</g>
<!-- sheet/ui/expr/index.ts&#45;&gt;field/cmd/leaf/var.ts -->
<g id="edge16" class="edge">
<title>sheet/ui/expr/index.ts&#45;&gt;field/cmd/leaf/var.ts</title>
<path fill="none" stroke="#757575" d="M84.5,-112.78C102.82,-94.62 140.2,-61.18 179.5,-47.01 356.32,16.7 582.07,1.56 698.21,-12.6"/>
<polygon fill="#757575" stroke="#757575" points="697.59,-16.05 707.94,-13.82 698.46,-9.1 697.59,-16.05"/>
</g>
<!-- sheet/ui/expr/index.ts&#45;&gt;sheet/item.ts -->
<g id="edge17" class="edge">
<title>sheet/ui/expr/index.ts&#45;&gt;sheet/item.ts</title>
<path fill="none" stroke="#757575" d="M126.19,-137.37C154.39,-146.4 188.07,-158.45 212.29,-168.31"/>
<polygon fill="#757575" stroke="#757575" points="210.72,-171.45 221.3,-172.09 213.43,-165 210.72,-171.45"/>
</g>
<!-- sheet/pick&#45;cursor.ts -->
<g id="node8" class="node">
<title>sheet/pick&#45;cursor.ts</title>
<path fill="none" stroke="#ff6c60" d="M303.83,-116.89C303.83,-116.89 187.42,-116.89 187.42,-116.89 183.46,-116.89 179.5,-112.93 179.5,-108.97 179.5,-108.97 179.5,-101.05 179.5,-101.05 179.5,-97.1 183.46,-93.14 187.42,-93.14 187.42,-93.14 303.83,-93.14 303.83,-93.14 307.79,-93.14 311.75,-97.1 311.75,-101.05 311.75,-101.05 311.75,-108.97 311.75,-108.97 311.75,-112.93 307.79,-116.89 303.83,-116.89"/>
<text text-anchor="middle" x="245.62" y="-99.59" font-family="Arial" font-size="14.00" fill="#ff6c60">sheet/pick&#45;cursor.ts</text>
</g>
<!-- sheet/ui/expr/index.ts&#45;&gt;sheet/pick&#45;cursor.ts -->
<g id="edge18" class="edge">
<title>sheet/ui/expr/index.ts&#45;&gt;sheet/pick&#45;cursor.ts</title>
<path fill="none" stroke="#757575" d="M143.65,-116.76C151.63,-115.83 159.79,-114.88 167.85,-113.95"/>
<polygon fill="#757575" stroke="#757575" points="168.1,-117.44 177.62,-112.81 167.29,-110.49 168.1,-117.44"/>
</g>
<!-- sheet/pick&#45;cursor.ts&#45;&gt;eval/js.ts -->
<g id="edge9" class="edge">
<title>sheet/pick&#45;cursor.ts&#45;&gt;eval/js.ts</title>
<path fill="none" stroke="#757575" d="M312.16,-105.62C381.28,-106.21 493.36,-107.01 590.12,-107.01 590.12,-107.01 590.12,-107.01 776.88,-107.01 874.04,-107.01 987.96,-107.01 1049.27,-107.01"/>
<polygon fill="#757575" stroke="#757575" points="1048.93,-110.51 1058.93,-107.01 1048.93,-103.51 1048.93,-110.51"/>
</g>
<!-- sheet/ui/cv/item.ts -->
<g id="node9" class="node">
<title>sheet/ui/cv/item.ts</title>
<path fill="none" stroke="#ff6c60" d="M464.58,-78.89C464.58,-78.89 355.67,-78.89 355.67,-78.89 351.71,-78.89 347.75,-74.93 347.75,-70.97 347.75,-70.97 347.75,-63.05 347.75,-63.05 347.75,-59.1 351.71,-55.14 355.67,-55.14 355.67,-55.14 464.58,-55.14 464.58,-55.14 468.54,-55.14 472.5,-59.1 472.5,-63.05 472.5,-63.05 472.5,-70.97 472.5,-70.97 472.5,-74.93 468.54,-78.89 464.58,-78.89"/>
<text text-anchor="middle" x="410.12" y="-61.59" font-family="Arial" font-size="14.00" fill="#ff6c60">sheet/ui/cv/item.ts</text>
</g>
<!-- sheet/pick&#45;cursor.ts&#45;&gt;sheet/ui/cv/item.ts -->
<g id="edge10" class="edge">
<title>sheet/pick&#45;cursor.ts&#45;&gt;sheet/ui/cv/item.ts</title>
<path fill="none" stroke="#757575" d="M299.38,-92.68C314.08,-89.24 330.19,-85.47 345.44,-81.91"/>
<polygon fill="#757575" stroke="#757575" points="345.94,-85.38 354.88,-79.7 344.34,-78.57 345.94,-85.38"/>
</g>
<!-- sheet/ui/cv/item&#45;virtual.ts -->
<g id="node10" class="node">
<title>sheet/ui/cv/item&#45;virtual.ts</title>
<path fill="none" stroke="#ff6c60" d="M665.83,-59.89C665.83,-59.89 516.42,-59.89 516.42,-59.89 512.46,-59.89 508.5,-55.93 508.5,-51.97 508.5,-51.97 508.5,-44.05 508.5,-44.05 508.5,-40.1 512.46,-36.14 516.42,-36.14 516.42,-36.14 665.83,-36.14 665.83,-36.14 669.79,-36.14 673.75,-40.1 673.75,-44.05 673.75,-44.05 673.75,-51.97 673.75,-51.97 673.75,-55.93 669.79,-59.89 665.83,-59.89"/>
<text text-anchor="middle" x="591.12" y="-42.59" font-family="Arial" font-size="14.00" fill="#ff6c60">sheet/ui/cv/item&#45;virtual.ts</text>
</g>
<!-- sheet/ui/cv/item.ts&#45;&gt;sheet/ui/cv/item&#45;virtual.ts -->
<g id="edge14" class="edge">
<title>sheet/ui/cv/item.ts&#45;&gt;sheet/ui/cv/item&#45;virtual.ts</title>
<path fill="none" stroke="#757575" d="M467.76,-54.67C477.06,-53.44 486.92,-52.25 496.83,-51.17"/>
<polygon fill="#757575" stroke="#757575" points="496.94,-54.68 506.52,-50.16 496.21,-47.72 496.94,-54.68"/>
</g>
<!-- sheet/ui/cv/item&#45;virtual.ts&#45;&gt;field/cmd/leaf/var.ts -->
<g id="edge11" class="edge">
<title>sheet/ui/cv/item&#45;virtual.ts&#45;&gt;field/cmd/leaf/var.ts</title>
<path fill="none" stroke="#757575" d="M674.15,-37.24C682.05,-36.2 690.05,-35.15 697.9,-34.12"/>
<polygon fill="#757575" stroke="#757575" points="698.32,-37.6 707.78,-32.82 697.41,-30.66 698.32,-37.6"/>
</g>
<!-- sheet/ui/cv/item&#45;virtual.ts&#45;&gt;sheet/ui/expr/index.ts -->
<g id="edge13" class="edge">
<title>sheet/ui/cv/item&#45;virtual.ts&#45;&gt;sheet/ui/expr/index.ts</title>
<path fill="none" stroke="#757575" d="M508.18,-46.44C496.21,-46.26 484.04,-46.11 472.5,-46.01 417.06,-45.54 402.85,-39.87 347.75,-46.01 271.56,-54.51 252.86,-61.77 179.5,-84.01 156.74,-90.92 131.9,-100.34 111.91,-108.41"/>
<polygon fill="#757575" stroke="#757575" points="110.68,-105.13 102.75,-112.16 113.34,-111.61 110.68,-105.13"/>
</g>
<!-- sheet/ui/cv/item&#45;virtual.ts&#45;&gt;sheet/ui/cv/item.ts -->
<g id="edge12" class="edge">
<title>sheet/ui/cv/item&#45;virtual.ts&#45;&gt;sheet/ui/cv/item.ts</title>
<path fill="none" stroke="#757575" d="M533.38,-60.37C517.75,-62.44 500.59,-64.37 484.18,-65.91"/>
<polygon fill="#757575" stroke="#757575" points="484.14,-62.4 474.48,-66.77 484.76,-69.37 484.14,-62.4"/>
</g>
</g>
</svg>
