<?xml version="1.0" encoding="UTF-8" standalone="no"?>
<!DOCTYPE svg PUBLIC "-//W3C//DTD SVG 1.1//EN"
 "http://www.w3.org/Graphics/SVG/1.1/DTD/svg11.dtd">
<!-- Generated by graphviz version 12.2.1 (20241206.2353)
 -->
<!-- Title: G Pages: 1 -->
<svg width="1231pt" height="551pt"
 viewBox="0.00 0.00 1230.70 550.99" xmlns="http://www.w3.org/2000/svg" xmlns:xlink="http://www.w3.org/1999/xlink">
<g id="graph0" class="graph" transform="scale(1 1) rotate(0) translate(21.6 529.39)">
<title>G</title>
<polygon fill="#111111" stroke="none" points="-21.6,21.6 -21.6,-529.39 1209.1,-529.39 1209.1,21.6 -21.6,21.6"/>
<!-- eval/ast/complete.ts -->
<g id="node1" class="node">
<title>eval/ast/complete.ts</title>
<path fill="none" stroke="#ff6c60" d="M840.08,-429.56C840.08,-429.56 719.92,-429.56 719.92,-429.56 715.96,-429.56 712,-425.61 712,-421.65 712,-421.65 712,-413.73 712,-413.73 712,-409.77 715.96,-405.81 719.92,-405.81 719.92,-405.81 840.08,-405.81 840.08,-405.81 844.04,-405.81 848,-409.77 848,-413.73 848,-413.73 848,-421.65 848,-421.65 848,-425.61 844.04,-429.56 840.08,-429.56"/>
<text text-anchor="middle" x="780" y="-412.26" font-family="Arial" font-size="14.00" fill="#ff6c60">eval/ast/complete.ts</text>
</g>
<!-- eval/ast/pass1.suffixes.ts -->
<g id="node2" class="node">
<title>eval/ast/pass1.suffixes.ts</title>
<path fill="none" stroke="#ff6c60" d="M1045.83,-429.56C1045.83,-429.56 895.67,-429.56 895.67,-429.56 891.71,-429.56 887.75,-425.61 887.75,-421.65 887.75,-421.65 887.75,-413.73 887.75,-413.73 887.75,-409.77 891.71,-405.81 895.67,-405.81 895.67,-405.81 1045.83,-405.81 1045.83,-405.81 1049.79,-405.81 1053.75,-409.77 1053.75,-413.73 1053.75,-413.73 1053.75,-421.65 1053.75,-421.65 1053.75,-425.61 1049.79,-429.56 1045.83,-429.56"/>
<text text-anchor="middle" x="970.75" y="-412.26" font-family="Arial" font-size="14.00" fill="#ff6c60">eval/ast/pass1.suffixes.ts</text>
</g>
<!-- eval/ast/complete.ts&#45;&gt;eval/ast/pass1.suffixes.ts -->
<g id="edge1" class="edge">
<title>eval/ast/complete.ts&#45;&gt;eval/ast/pass1.suffixes.ts</title>
<path fill="none" stroke="#757575" d="M848.34,-417.69C857.38,-417.69 866.77,-417.69 876.15,-417.69"/>
<polygon fill="#757575" stroke="#757575" points="876.05,-421.19 886.05,-417.69 876.05,-414.19 876.05,-421.19"/>
</g>
<!-- eval/ast/pass2.implicits.ts -->
<g id="node3" class="node">
<title>eval/ast/pass2.implicits.ts</title>
<path fill="none" stroke="#ff6c60" d="M1047.33,-387.56C1047.33,-387.56 894.17,-387.56 894.17,-387.56 890.21,-387.56 886.25,-383.61 886.25,-379.65 886.25,-379.65 886.25,-371.73 886.25,-371.73 886.25,-367.77 890.21,-363.81 894.17,-363.81 894.17,-363.81 1047.33,-363.81 1047.33,-363.81 1051.29,-363.81 1055.25,-367.77 1055.25,-371.73 1055.25,-371.73 1055.25,-379.65 1055.25,-379.65 1055.25,-383.61 1051.29,-387.56 1047.33,-387.56"/>
<text text-anchor="middle" x="970.75" y="-370.26" font-family="Arial" font-size="14.00" fill="#ff6c60">eval/ast/pass2.implicits.ts</text>
</g>
<!-- eval/ast/complete.ts&#45;&gt;eval/ast/pass2.implicits.ts -->
<g id="edge2" class="edge">
<title>eval/ast/complete.ts&#45;&gt;eval/ast/pass2.implicits.ts</title>
<path fill="none" stroke="#757575" d="M836.61,-405.32C857.45,-400.68 881.33,-395.36 903.07,-390.53"/>
<polygon fill="#757575" stroke="#757575" points="903.73,-393.97 912.73,-388.38 902.21,-387.13 903.73,-393.97"/>
</g>
<!-- field/model.ts -->
<g id="node4" class="node">
<title>field/model.ts</title>
<path fill="none" stroke="#ff6c60" d="M1179.58,-287.56C1179.58,-287.56 1099.17,-287.56 1099.17,-287.56 1095.21,-287.56 1091.25,-283.61 1091.25,-279.65 1091.25,-279.65 1091.25,-271.73 1091.25,-271.73 1091.25,-267.77 1095.21,-263.81 1099.17,-263.81 1099.17,-263.81 1179.58,-263.81 1179.58,-263.81 1183.54,-263.81 1187.5,-267.77 1187.5,-271.73 1187.5,-271.73 1187.5,-279.65 1187.5,-279.65 1187.5,-283.61 1183.54,-287.56 1179.58,-287.56"/>
<text text-anchor="middle" x="1139.38" y="-270.26" font-family="Arial" font-size="14.00" fill="#ff6c60">field/model.ts</text>
</g>
<!-- eval/ast/pass1.suffixes.ts&#45;&gt;field/model.ts -->
<g id="edge3" class="edge">
<title>eval/ast/pass1.suffixes.ts&#45;&gt;field/model.ts</title>
<path fill="none" stroke="#757575" d="M1039.29,-405.36C1044.93,-402.96 1050.34,-400.1 1055.25,-396.69 1091.3,-371.62 1116.47,-325.5 1129.08,-298.01"/>
<polygon fill="#757575" stroke="#757575" points="1132.14,-299.76 1132.97,-289.2 1125.73,-296.94 1132.14,-299.76"/>
</g>
<!-- eval/ast/pass2.implicits.ts&#45;&gt;field/model.ts -->
<g id="edge4" class="edge">
<title>eval/ast/pass2.implicits.ts&#45;&gt;field/model.ts</title>
<path fill="none" stroke="#757575" d="M1023.52,-363.34C1034.37,-359.73 1045.47,-355.22 1055.25,-349.69 1080.46,-335.44 1104.64,-312.51 1120.36,-295.95"/>
<polygon fill="#757575" stroke="#757575" points="1122.51,-298.77 1126.74,-289.06 1117.38,-294.02 1122.51,-298.77"/>
</g>
<!-- field/model.ts&#45;&gt;eval/ast/complete.ts -->
<g id="edge18" class="edge">
<title>field/model.ts&#45;&gt;eval/ast/complete.ts</title>
<path fill="none" stroke="#757575" d="M1136.49,-288C1130.87,-319.79 1111.05,-404.51 1055.25,-438.69 981.95,-483.59 876.15,-454.97 819.78,-434.01"/>
<polygon fill="#757575" stroke="#757575" points="821.2,-430.81 810.61,-430.49 818.69,-437.34 821.2,-430.81"/>
</g>
<!-- eval/ast/tx.ts -->
<g id="node5" class="node">
<title>eval/ast/tx.ts</title>
<path fill="none" stroke="#ff6c60" d="M1008.33,-30.56C1008.33,-30.56 933.17,-30.56 933.17,-30.56 929.21,-30.56 925.25,-26.61 925.25,-22.65 925.25,-22.65 925.25,-14.73 925.25,-14.73 925.25,-10.77 929.21,-6.81 933.17,-6.81 933.17,-6.81 1008.33,-6.81 1008.33,-6.81 1012.29,-6.81 1016.25,-10.77 1016.25,-14.73 1016.25,-14.73 1016.25,-22.65 1016.25,-22.65 1016.25,-26.61 1012.29,-30.56 1008.33,-30.56"/>
<text text-anchor="middle" x="970.75" y="-13.26" font-family="Arial" font-size="14.00" fill="#ff6c60">eval/ast/tx.ts</text>
</g>
<!-- eval/glsl.ts -->
<g id="node6" class="node">
<title>eval/glsl.ts</title>
<path fill="none" stroke="#ff6c60" d="M1170.96,-30.56C1170.96,-30.56 1107.79,-30.56 1107.79,-30.56 1103.83,-30.56 1099.88,-26.61 1099.88,-22.65 1099.88,-22.65 1099.88,-14.73 1099.88,-14.73 1099.88,-10.77 1103.83,-6.81 1107.79,-6.81 1107.79,-6.81 1170.96,-6.81 1170.96,-6.81 1174.92,-6.81 1178.88,-10.77 1178.88,-14.73 1178.88,-14.73 1178.88,-22.65 1178.88,-22.65 1178.88,-26.61 1174.92,-30.56 1170.96,-30.56"/>
<text text-anchor="middle" x="1139.38" y="-13.26" font-family="Arial" font-size="14.00" fill="#ff6c60">eval/glsl.ts</text>
</g>
<!-- eval/ast/tx.ts&#45;&gt;eval/glsl.ts -->
<g id="edge5" class="edge">
<title>eval/ast/tx.ts&#45;&gt;eval/glsl.ts</title>
<path fill="none" stroke="#757575" d="M1016.4,-12.63C1038.59,-11.78 1065.47,-11.71 1088.34,-12.44"/>
<polygon fill="#757575" stroke="#757575" points="1087.91,-15.93 1098.04,-12.82 1088.19,-8.93 1087.91,-15.93"/>
</g>
<!-- eval/js.ts -->
<g id="node7" class="node">
<title>eval/js.ts</title>
<path fill="none" stroke="#ff6c60" d="M617.46,-30.56C617.46,-30.56 564.79,-30.56 564.79,-30.56 560.83,-30.56 556.88,-26.61 556.88,-22.65 556.88,-22.65 556.88,-14.73 556.88,-14.73 556.88,-10.77 560.83,-6.81 564.79,-6.81 564.79,-6.81 617.46,-6.81 617.46,-6.81 621.42,-6.81 625.38,-10.77 625.38,-14.73 625.38,-14.73 625.38,-22.65 625.38,-22.65 625.38,-26.61 621.42,-30.56 617.46,-30.56"/>
<text text-anchor="middle" x="591.12" y="-13.26" font-family="Arial" font-size="14.00" fill="#ff6c60">eval/js.ts</text>
</g>
<!-- eval/ast/tx.ts&#45;&gt;eval/js.ts -->
<g id="edge6" class="edge">
<title>eval/ast/tx.ts&#45;&gt;eval/js.ts</title>
<path fill="none" stroke="#757575" d="M924.79,-23.25C852.14,-26.17 709.76,-26.17 637.1,-23.25"/>
<polygon fill="#757575" stroke="#757575" points="637.3,-19.76 627.15,-22.8 636.98,-26.75 637.3,-19.76"/>
</g>
<!-- eval/glsl.ts&#45;&gt;eval/ast/tx.ts -->
<g id="edge7" class="edge">
<title>eval/glsl.ts&#45;&gt;eval/ast/tx.ts</title>
<path fill="none" stroke="#757575" d="M1099.55,-24.5C1078.18,-25.5 1051.28,-25.7 1027.68,-25.1"/>
<polygon fill="#757575" stroke="#757575" points="1028.02,-21.61 1017.92,-24.8 1027.8,-28.61 1028.02,-21.61"/>
</g>
<!-- eval/js.ts&#45;&gt;eval/ast/tx.ts -->
<g id="edge8" class="edge">
<title>eval/js.ts&#45;&gt;eval/ast/tx.ts</title>
<path fill="none" stroke="#757575" d="M625.64,-14.64C690.5,-11.38 833.81,-11.07 913.51,-13.72"/>
<polygon fill="#757575" stroke="#757575" points="913.15,-17.21 923.28,-14.07 913.41,-10.21 913.15,-17.21"/>
</g>
<!-- field/cmd/leaf/cmp.ts -->
<g id="node8" class="node">
<title>field/cmd/leaf/cmp.ts</title>
<path fill="none" stroke="#ff6c60" d="M842.33,-271.56C842.33,-271.56 717.67,-271.56 717.67,-271.56 713.71,-271.56 709.75,-267.61 709.75,-263.65 709.75,-263.65 709.75,-255.73 709.75,-255.73 709.75,-251.77 713.71,-247.81 717.67,-247.81 717.67,-247.81 842.33,-247.81 842.33,-247.81 846.29,-247.81 850.25,-251.77 850.25,-255.73 850.25,-255.73 850.25,-263.65 850.25,-263.65 850.25,-267.61 846.29,-271.56 842.33,-271.56"/>
<text text-anchor="middle" x="780" y="-254.26" font-family="Arial" font-size="14.00" fill="#ff6c60">field/cmd/leaf/cmp.ts</text>
</g>
<!-- field/cmd/leaf/cmp.ts&#45;&gt;field/model.ts -->
<g id="edge10" class="edge">
<title>field/cmd/leaf/cmp.ts&#45;&gt;field/model.ts</title>
<path fill="none" stroke="#757575" d="M850.33,-262.79C917.02,-265.78 1016.73,-270.24 1079.62,-273.06"/>
<polygon fill="#757575" stroke="#757575" points="1079.26,-276.55 1089.41,-273.5 1079.58,-269.55 1079.26,-276.55"/>
</g>
<!-- field/cmd/leaf/op.ts -->
<g id="node9" class="node">
<title>field/cmd/leaf/op.ts</title>
<path fill="none" stroke="#ff6c60" d="M1027.46,-307.56C1027.46,-307.56 914.04,-307.56 914.04,-307.56 910.08,-307.56 906.12,-303.61 906.12,-299.65 906.12,-299.65 906.12,-291.73 906.12,-291.73 906.12,-287.77 910.08,-283.81 914.04,-283.81 914.04,-283.81 1027.46,-283.81 1027.46,-283.81 1031.42,-283.81 1035.38,-287.77 1035.38,-291.73 1035.38,-291.73 1035.38,-299.65 1035.38,-299.65 1035.38,-303.61 1031.42,-307.56 1027.46,-307.56"/>
<text text-anchor="middle" x="970.75" y="-290.26" font-family="Arial" font-size="14.00" fill="#ff6c60">field/cmd/leaf/op.ts</text>
</g>
<!-- field/cmd/leaf/cmp.ts&#45;&gt;field/cmd/leaf/op.ts -->
<g id="edge9" class="edge">
<title>field/cmd/leaf/cmp.ts&#45;&gt;field/cmd/leaf/op.ts</title>
<path fill="none" stroke="#757575" d="M850.75,-266.45C874.71,-270.61 900.96,-275.82 922.69,-280.78"/>
<polygon fill="#757575" stroke="#757575" points="921.6,-284.12 932.13,-283 923.2,-277.31 921.6,-284.12"/>
</g>
<!-- field/cmd/leaf/op.ts&#45;&gt;field/model.ts -->
<g id="edge14" class="edge">
<title>field/cmd/leaf/op.ts&#45;&gt;field/model.ts</title>
<path fill="none" stroke="#757575" d="M1035.7,-288.01C1050.18,-286.28 1065.49,-284.44 1079.74,-282.73"/>
<polygon fill="#757575" stroke="#757575" points="1079.89,-286.23 1089.4,-281.57 1079.06,-279.28 1079.89,-286.23"/>
</g>
<!-- field/cmd/leaf/op.ts&#45;&gt;field/cmd/leaf/cmp.ts -->
<g id="edge13" class="edge">
<title>field/cmd/leaf/op.ts&#45;&gt;field/cmd/leaf/cmp.ts</title>
<path fill="none" stroke="#757575" d="M905.66,-289.9C880.21,-285.6 851.47,-279.95 828,-274.58"/>
<polygon fill="#757575" stroke="#757575" points="828.96,-271.21 818.42,-272.33 827.35,-278.03 828.96,-271.21"/>
</g>
<!-- field/cmd/leaf/num.ts -->
<g id="node10" class="node">
<title>field/cmd/leaf/num.ts</title>
<path fill="none" stroke="#ff6c60" d="M1033.46,-151.56C1033.46,-151.56 908.04,-151.56 908.04,-151.56 904.08,-151.56 900.12,-147.61 900.12,-143.65 900.12,-143.65 900.12,-135.73 900.12,-135.73 900.12,-131.77 904.08,-127.81 908.04,-127.81 908.04,-127.81 1033.46,-127.81 1033.46,-127.81 1037.42,-127.81 1041.38,-131.77 1041.38,-135.73 1041.38,-135.73 1041.38,-143.65 1041.38,-143.65 1041.38,-147.61 1037.42,-151.56 1033.46,-151.56"/>
<text text-anchor="middle" x="970.75" y="-134.26" font-family="Arial" font-size="14.00" fill="#ff6c60">field/cmd/leaf/num.ts</text>
</g>
<!-- field/cmd/leaf/num.ts&#45;&gt;field/model.ts -->
<g id="edge12" class="edge">
<title>field/cmd/leaf/num.ts&#45;&gt;field/model.ts</title>
<path fill="none" stroke="#757575" d="M1028.35,-152.03C1037.82,-155.54 1047.18,-160.01 1055.25,-165.69 1088,-188.71 1113.44,-228.61 1127.14,-253.5"/>
<polygon fill="#757575" stroke="#757575" points="1123.94,-254.94 1131.73,-262.12 1130.12,-251.65 1123.94,-254.94"/>
</g>
<!-- field/cmd/leaf/var.ts -->
<g id="node11" class="node">
<title>field/cmd/leaf/var.ts</title>
<path fill="none" stroke="#ff6c60" d="M838.21,-151.56C838.21,-151.56 721.79,-151.56 721.79,-151.56 717.83,-151.56 713.88,-147.61 713.88,-143.65 713.88,-143.65 713.88,-135.73 713.88,-135.73 713.88,-131.77 717.83,-127.81 721.79,-127.81 721.79,-127.81 838.21,-127.81 838.21,-127.81 842.17,-127.81 846.12,-131.77 846.12,-135.73 846.12,-135.73 846.12,-143.65 846.12,-143.65 846.12,-147.61 842.17,-151.56 838.21,-151.56"/>
<text text-anchor="middle" x="780" y="-134.26" font-family="Arial" font-size="14.00" fill="#ff6c60">field/cmd/leaf/var.ts</text>
</g>
<!-- field/cmd/leaf/num.ts&#45;&gt;field/cmd/leaf/var.ts -->
<g id="edge11" class="edge">
<title>field/cmd/leaf/num.ts&#45;&gt;field/cmd/leaf/var.ts</title>
<path fill="none" stroke="#757575" d="M899.88,-146.23C886.23,-146.47 871.85,-146.5 857.98,-146.34"/>
<polygon fill="#757575" stroke="#757575" points="858.05,-142.84 848,-146.17 857.94,-149.84 858.05,-142.84"/>
</g>
<!-- field/cmd/leaf/var.ts&#45;&gt;field/model.ts -->
<g id="edge17" class="edge">
<title>field/cmd/leaf/var.ts&#45;&gt;field/model.ts</title>
<path fill="none" stroke="#757575" d="M809.54,-127.38C862.31,-106.67 976.91,-71.52 1055.25,-118.69 1103.91,-147.99 1125.58,-216.39 1133.91,-252.47"/>
<polygon fill="#757575" stroke="#757575" points="1130.41,-252.84 1135.92,-261.88 1137.25,-251.37 1130.41,-252.84"/>
</g>
<!-- field/cmd/leaf/var.ts&#45;&gt;eval/ast/tx.ts -->
<g id="edge15" class="edge">
<title>field/cmd/leaf/var.ts&#45;&gt;eval/ast/tx.ts</title>
<path fill="none" stroke="#757575" d="M800.14,-127.42C833.49,-106.04 902.41,-61.86 941.35,-36.9"/>
<polygon fill="#757575" stroke="#757575" points="942.76,-40.15 949.29,-31.81 938.98,-34.26 942.76,-40.15"/>
</g>
<!-- field/cmd/leaf/var.ts&#45;&gt;field/cmd/leaf/num.ts -->
<g id="edge16" class="edge">
<title>field/cmd/leaf/var.ts&#45;&gt;field/cmd/leaf/num.ts</title>
<path fill="none" stroke="#757575" d="M846.49,-133.23C860.1,-132.95 874.59,-132.87 888.69,-133"/>
<polygon fill="#757575" stroke="#757575" points="888.32,-136.5 898.37,-133.13 888.41,-129.5 888.32,-136.5"/>
</g>
<!-- sheet/item.ts -->
<g id="node12" class="node">
<title>sheet/item.ts</title>
<path fill="none" stroke="#ff6c60" d="M284.33,-387.56C284.33,-387.56 206.92,-387.56 206.92,-387.56 202.96,-387.56 199,-383.61 199,-379.65 199,-379.65 199,-371.73 199,-371.73 199,-367.77 202.96,-363.81 206.92,-363.81 206.92,-363.81 284.33,-363.81 284.33,-363.81 288.29,-363.81 292.25,-367.77 292.25,-371.73 292.25,-371.73 292.25,-379.65 292.25,-379.65 292.25,-383.61 288.29,-387.56 284.33,-387.56"/>
<text text-anchor="middle" x="245.62" y="-370.26" font-family="Arial" font-size="14.00" fill="#ff6c60">sheet/item.ts</text>
</g>
<!-- sheet/item.ts&#45;&gt;field/model.ts -->
<g id="edge19" class="edge">
<title>sheet/item.ts&#45;&gt;field/model.ts</title>
<path fill="none" stroke="#757575" d="M266.3,-387.86C317.56,-418.36 460.31,-495.69 590.12,-495.69 590.12,-495.69 590.12,-495.69 781,-495.69 903.67,-495.69 956.46,-537.4 1055.25,-464.69 1109.93,-424.44 1129.2,-340.29 1135.53,-299.23"/>
<polygon fill="#757575" stroke="#757575" points="1138.97,-299.86 1136.89,-289.47 1132.04,-298.89 1138.97,-299.86"/>
</g>
<!-- sheet/ui/expr/index.ts -->
<g id="node13" class="node">
<title>sheet/ui/expr/index.ts</title>
<path fill="none" stroke="#ff6c60" d="M135.58,-252.56C135.58,-252.56 7.92,-252.56 7.92,-252.56 3.96,-252.56 0,-248.61 0,-244.65 0,-244.65 0,-236.73 0,-236.73 0,-232.77 3.96,-228.81 7.92,-228.81 7.92,-228.81 135.58,-228.81 135.58,-228.81 139.54,-228.81 143.5,-232.77 143.5,-236.73 143.5,-236.73 143.5,-244.65 143.5,-244.65 143.5,-248.61 139.54,-252.56 135.58,-252.56"/>
<text text-anchor="middle" x="71.75" y="-235.26" font-family="Arial" font-size="14.00" fill="#ff6c60">sheet/ui/expr/index.ts</text>
</g>
<!-- sheet/item.ts&#45;&gt;sheet/ui/expr/index.ts -->
<g id="edge20" class="edge">
<title>sheet/item.ts&#45;&gt;sheet/ui/expr/index.ts</title>
<path fill="none" stroke="#757575" d="M198.56,-369.01C191.93,-366.08 185.38,-362.61 179.5,-358.69 139.61,-332.11 102.77,-288.63 84.6,-262.26"/>
<polygon fill="#757575" stroke="#757575" points="87.61,-260.47 79.22,-254 81.75,-264.29 87.61,-260.47"/>
</g>
<!-- sheet/ui/expr/index.ts&#45;&gt;field/model.ts -->
<g id="edge34" class="edge">
<title>sheet/ui/expr/index.ts&#45;&gt;field/model.ts</title>
<path fill="none" stroke="#757575" d="M97.81,-252.91C152.78,-278.57 288.67,-335.69 409.12,-335.69 409.12,-335.69 409.12,-335.69 781,-335.69 903.18,-335.69 937.29,-348.54 1055.25,-316.69 1074.06,-311.61 1093.67,-302.17 1109.11,-293.62"/>
<polygon fill="#757575" stroke="#757575" points="1110.83,-296.67 1117.77,-288.67 1107.35,-290.6 1110.83,-296.67"/>
</g>
<!-- sheet/ui/expr/index.ts&#45;&gt;eval/js.ts -->
<g id="edge31" class="edge">
<title>sheet/ui/expr/index.ts&#45;&gt;eval/js.ts</title>
<path fill="none" stroke="#757575" d="M76.12,-228.76C86,-196.17 118.08,-105.19 179.5,-61.69 291.01,17.28 464.13,2.49 545.28,-10.22"/>
<polygon fill="#757575" stroke="#757575" points="544.64,-13.66 555.08,-11.82 545.77,-6.75 544.64,-13.66"/>
</g>
<!-- sheet/ui/expr/index.ts&#45;&gt;field/cmd/leaf/cmp.ts -->
<g id="edge32" class="edge">
<title>sheet/ui/expr/index.ts&#45;&gt;field/cmd/leaf/cmp.ts</title>
<path fill="none" stroke="#757575" d="M143.94,-244.26C155.82,-244.79 168,-245.29 179.5,-245.69 364.84,-252.19 582.51,-256.42 697.79,-258.4"/>
<polygon fill="#757575" stroke="#757575" points="697.72,-261.9 707.78,-258.57 697.84,-254.9 697.72,-261.9"/>
</g>
<!-- sheet/ui/expr/index.ts&#45;&gt;field/cmd/leaf/var.ts -->
<g id="edge33" class="edge">
<title>sheet/ui/expr/index.ts&#45;&gt;field/cmd/leaf/var.ts</title>
<path fill="none" stroke="#757575" d="M105.17,-228.37C156,-209.68 257.93,-174.78 347.75,-159.69 470.48,-139.08 615.43,-136.79 702.14,-137.73"/>
<polygon fill="#757575" stroke="#757575" points="701.9,-141.22 711.95,-137.85 701.99,-134.23 701.9,-141.22"/>
</g>
<!-- sheet/ui/expr/index.ts&#45;&gt;sheet/item.ts -->
<g id="edge35" class="edge">
<title>sheet/ui/expr/index.ts&#45;&gt;sheet/item.ts</title>
<path fill="none" stroke="#757575" d="M86.79,-253.03C105.62,-273.96 141.15,-315.13 179.5,-340.69 190.75,-348.18 204.49,-354.07 216.44,-359.06"/>
<polygon fill="#757575" stroke="#757575" points="214.83,-362.18 225.4,-362.83 217.54,-355.73 214.83,-362.18"/>
</g>
<!-- sheet/pick&#45;cursor.ts -->
<g id="node14" class="node">
<title>sheet/pick&#45;cursor.ts</title>
<path fill="none" stroke="#ff6c60" d="M303.83,-94.56C303.83,-94.56 187.42,-94.56 187.42,-94.56 183.46,-94.56 179.5,-90.61 179.5,-86.65 179.5,-86.65 179.5,-78.73 179.5,-78.73 179.5,-74.77 183.46,-70.81 187.42,-70.81 187.42,-70.81 303.83,-70.81 303.83,-70.81 307.79,-70.81 311.75,-74.77 311.75,-78.73 311.75,-78.73 311.75,-86.65 311.75,-86.65 311.75,-90.61 307.79,-94.56 303.83,-94.56"/>
<text text-anchor="middle" x="245.62" y="-77.26" font-family="Arial" font-size="14.00" fill="#ff6c60">sheet/pick&#45;cursor.ts</text>
</g>
<!-- sheet/ui/expr/index.ts&#45;&gt;sheet/pick&#45;cursor.ts -->
<g id="edge36" class="edge">
<title>sheet/ui/expr/index.ts&#45;&gt;sheet/pick&#45;cursor.ts</title>
<path fill="none" stroke="#757575" d="M82.5,-228.37C100.34,-206.29 140.02,-159.15 179.5,-125.69 190.05,-116.75 202.55,-108.1 213.75,-100.93"/>
<polygon fill="#757575" stroke="#757575" points="215.27,-104.11 221.91,-95.84 211.57,-98.17 215.27,-104.11"/>
</g>
<!-- sheet/pick&#45;cursor.ts&#45;&gt;field/model.ts -->
<g id="edge22" class="edge">
<title>sheet/pick&#45;cursor.ts&#45;&gt;field/model.ts</title>
<path fill="none" stroke="#757575" d="M312.02,-74.68C482.18,-55.17 933.9,-12.39 1055.25,-91.69 1110.83,-128.01 1129.67,-211.31 1135.71,-252.19"/>
<polygon fill="#757575" stroke="#757575" points="1132.21,-252.46 1137,-261.91 1139.15,-251.54 1132.21,-252.46"/>
</g>
<!-- sheet/pick&#45;cursor.ts&#45;&gt;eval/js.ts -->
<g id="edge21" class="edge">
<title>sheet/pick&#45;cursor.ts&#45;&gt;eval/js.ts</title>
<path fill="none" stroke="#757575" d="M281.82,-70.36C301.09,-64 325.51,-56.58 347.75,-51.69 415.76,-36.74 496.09,-27.4 545.05,-22.62"/>
<polygon fill="#757575" stroke="#757575" points="545.37,-26.11 554.99,-21.67 544.71,-19.14 545.37,-26.11"/>
</g>
<!-- sheet/ui/cv/item.ts -->
<g id="node15" class="node">
<title>sheet/ui/cv/item.ts</title>
<path fill="none" stroke="#ff6c60" d="M464.58,-192.56C464.58,-192.56 355.67,-192.56 355.67,-192.56 351.71,-192.56 347.75,-188.61 347.75,-184.65 347.75,-184.65 347.75,-176.73 347.75,-176.73 347.75,-172.77 351.71,-168.81 355.67,-168.81 355.67,-168.81 464.58,-168.81 464.58,-168.81 468.54,-168.81 472.5,-172.77 472.5,-176.73 472.5,-176.73 472.5,-184.65 472.5,-184.65 472.5,-188.61 468.54,-192.56 464.58,-192.56"/>
<text text-anchor="middle" x="410.12" y="-175.26" font-family="Arial" font-size="14.00" fill="#ff6c60">sheet/ui/cv/item.ts</text>
</g>
<!-- sheet/pick&#45;cursor.ts&#45;&gt;sheet/ui/cv/item.ts -->
<g id="edge23" class="edge">
<title>sheet/pick&#45;cursor.ts&#45;&gt;sheet/ui/cv/item.ts</title>
<path fill="none" stroke="#757575" d="M266.88,-94.9C295.1,-111.92 346.45,-142.89 379.12,-162.6"/>
<polygon fill="#757575" stroke="#757575" points="376.95,-165.37 387.32,-167.54 380.57,-159.38 376.95,-165.37"/>
</g>
<!-- sheet/ui/cv/item.ts&#45;&gt;field/model.ts -->
<g id="edge29" class="edge">
<title>sheet/ui/cv/item.ts&#45;&gt;field/model.ts</title>
<path fill="none" stroke="#757575" d="M472.77,-179C588.93,-177.37 847.25,-181.17 1055.25,-237.69 1073.04,-242.52 1091.81,-250.8 1107,-258.39"/>
<polygon fill="#757575" stroke="#757575" points="1105.05,-261.33 1115.54,-262.8 1108.26,-255.1 1105.05,-261.33"/>
</g>
<!-- sheet/ui/cv/item&#45;virtual.ts -->
<g id="node16" class="node">
<title>sheet/ui/cv/item&#45;virtual.ts</title>
<path fill="none" stroke="#ff6c60" d="M665.83,-231.56C665.83,-231.56 516.42,-231.56 516.42,-231.56 512.46,-231.56 508.5,-227.61 508.5,-223.65 508.5,-223.65 508.5,-215.73 508.5,-215.73 508.5,-211.77 512.46,-207.81 516.42,-207.81 516.42,-207.81 665.83,-207.81 665.83,-207.81 669.79,-207.81 673.75,-211.77 673.75,-215.73 673.75,-215.73 673.75,-223.65 673.75,-223.65 673.75,-227.61 669.79,-231.56 665.83,-231.56"/>
<text text-anchor="middle" x="591.12" y="-214.26" font-family="Arial" font-size="14.00" fill="#ff6c60">sheet/ui/cv/item&#45;virtual.ts</text>
</g>
<!-- sheet/ui/cv/item.ts&#45;&gt;sheet/ui/cv/item&#45;virtual.ts -->
<g id="edge30" class="edge">
<title>sheet/ui/cv/item.ts&#45;&gt;sheet/ui/cv/item&#45;virtual.ts</title>
<path fill="none" stroke="#757575" d="M472.98,-187.71C497.33,-192.48 524.71,-198.64 546.88,-204.39"/>
<polygon fill="#757575" stroke="#757575" points="545.92,-207.76 556.48,-206.96 547.73,-201 545.92,-207.76"/>
</g>
<!-- sheet/ui/cv/item&#45;virtual.ts&#45;&gt;field/model.ts -->
<g id="edge26" class="edge">
<title>sheet/ui/cv/item&#45;virtual.ts&#45;&gt;field/model.ts</title>
<path fill="none" stroke="#757575" d="M674,-224.24C766.8,-230.02 922.42,-241.6 1055.25,-260.69 1063.23,-261.84 1071.62,-263.18 1079.88,-264.59"/>
<polygon fill="#757575" stroke="#757575" points="1079.05,-268 1089.5,-266.27 1080.26,-261.1 1079.05,-268"/>
</g>
<!-- sheet/ui/cv/item&#45;virtual.ts&#45;&gt;field/cmd/leaf/cmp.ts -->
<g id="edge24" class="edge">
<title>sheet/ui/cv/item&#45;virtual.ts&#45;&gt;field/cmd/leaf/cmp.ts</title>
<path fill="none" stroke="#757575" d="M649.72,-232.02C668.81,-236.1 690.26,-240.7 710.12,-244.95"/>
<polygon fill="#757575" stroke="#757575" points="709.28,-248.35 719.79,-247.02 710.75,-241.5 709.28,-248.35"/>
</g>
<!-- sheet/ui/cv/item&#45;virtual.ts&#45;&gt;field/cmd/leaf/var.ts -->
<g id="edge25" class="edge">
<title>sheet/ui/cv/item&#45;virtual.ts&#45;&gt;field/cmd/leaf/var.ts</title>
<path fill="none" stroke="#757575" d="M620.91,-207.37C652.74,-193.74 704.19,-171.72 739.71,-156.51"/>
<polygon fill="#757575" stroke="#757575" points="740.97,-159.78 748.79,-152.62 738.22,-153.34 740.97,-159.78"/>
</g>
<!-- sheet/ui/cv/item&#45;virtual.ts&#45;&gt;sheet/ui/expr/index.ts -->
<g id="edge28" class="edge">
<title>sheet/ui/cv/item&#45;virtual.ts&#45;&gt;sheet/ui/expr/index.ts</title>
<path fill="none" stroke="#757575" d="M508.29,-223.01C411.77,-226.93 252.23,-233.4 155.37,-237.34"/>
<polygon fill="#757575" stroke="#757575" points="155.24,-233.84 145.39,-237.74 155.52,-240.83 155.24,-233.84"/>
</g>
<!-- sheet/ui/cv/item&#45;virtual.ts&#45;&gt;sheet/ui/cv/item.ts -->
<g id="edge27" class="edge">
<title>sheet/ui/cv/item&#45;virtual.ts&#45;&gt;sheet/ui/cv/item.ts</title>
<path fill="none" stroke="#757575" d="M508.07,-208.54C489.35,-204.57 470.19,-200.1 453.9,-195.87"/>
<polygon fill="#757575" stroke="#757575" points="455.15,-192.58 444.59,-193.37 453.34,-199.34 455.15,-192.58"/>
</g>
</g>
</svg>
