<?xml version="1.0" encoding="UTF-8" standalone="no"?>
<!DOCTYPE svg PUBLIC "-//W3C//DTD SVG 1.1//EN"
 "http://www.w3.org/Graphics/SVG/1.1/DTD/svg11.dtd">
<!-- Generated by graphviz version 12.2.1 (20241206.2353)
 -->
<!-- Title: G Pages: 1 -->
<svg width="1142pt" height="1845pt"
 viewBox="0.00 0.00 1142.20 1844.76" xmlns="http://www.w3.org/2000/svg" xmlns:xlink="http://www.w3.org/1999/xlink">
<g id="graph0" class="graph" transform="scale(1 1) rotate(0) translate(21.6 1823.16)">
<title>G</title>
<polygon fill="#111111" stroke="none" points="-21.6,21.6 -21.6,-1823.16 1120.6,-1823.16 1120.6,21.6 -21.6,21.6"/>
<!-- ../glsl/erf&#45;c32.glsl -->
<g id="node1" class="node">
<title>../glsl/erf&#45;c32.glsl</title>
<path fill="none" stroke="#cfffac" d="M530.58,-822.56C530.58,-822.56 429.17,-822.56 429.17,-822.56 425.21,-822.56 421.25,-818.6 421.25,-814.64 421.25,-814.64 421.25,-806.73 421.25,-806.73 421.25,-802.77 425.21,-798.81 429.17,-798.81 429.17,-798.81 530.58,-798.81 530.58,-798.81 534.54,-798.81 538.5,-802.77 538.5,-806.73 538.5,-806.73 538.5,-814.64 538.5,-814.64 538.5,-818.6 534.54,-822.56 530.58,-822.56"/>
<text text-anchor="middle" x="479.88" y="-805.26" font-family="Arial" font-size="14.00" fill="#cfffac">../glsl/erf&#45;c32.glsl</text>
</g>
<!-- ../glsl/erf.glsl -->
<g id="node2" class="node">
<title>../glsl/erf.glsl</title>
<path fill="none" stroke="#cfffac" d="M517.46,-944.56C517.46,-944.56 442.29,-944.56 442.29,-944.56 438.33,-944.56 434.38,-940.6 434.38,-936.64 434.38,-936.64 434.38,-928.73 434.38,-928.73 434.38,-924.77 438.33,-920.81 442.29,-920.81 442.29,-920.81 517.46,-920.81 517.46,-920.81 521.42,-920.81 525.38,-924.77 525.38,-928.73 525.38,-928.73 525.38,-936.64 525.38,-936.64 525.38,-940.6 521.42,-944.56 517.46,-944.56"/>
<text text-anchor="middle" x="479.88" y="-927.26" font-family="Arial" font-size="14.00" fill="#cfffac">../glsl/erf.glsl</text>
</g>
<!-- ../glsl/erfinv.glsl -->
<g id="node3" class="node">
<title>../glsl/erfinv.glsl</title>
<path fill="none" stroke="#cfffac" d="M525.71,-902.56C525.71,-902.56 434.04,-902.56 434.04,-902.56 430.08,-902.56 426.12,-898.6 426.12,-894.64 426.12,-894.64 426.12,-886.73 426.12,-886.73 426.12,-882.77 430.08,-878.81 434.04,-878.81 434.04,-878.81 525.71,-878.81 525.71,-878.81 529.67,-878.81 533.62,-882.77 533.62,-886.73 533.62,-886.73 533.62,-894.64 533.62,-894.64 533.62,-898.6 529.67,-902.56 525.71,-902.56"/>
<text text-anchor="middle" x="479.88" y="-885.26" font-family="Arial" font-size="14.00" fill="#cfffac">../glsl/erfinv.glsl</text>
</g>
<!-- ../glsl/floor.glsl -->
<g id="node4" class="node">
<title>../glsl/floor.glsl</title>
<path fill="none" stroke="#cfffac" d="M336.46,-1066.56C336.46,-1066.56 251.54,-1066.56 251.54,-1066.56 247.58,-1066.56 243.62,-1062.6 243.62,-1058.64 243.62,-1058.64 243.62,-1050.73 243.62,-1050.73 243.62,-1046.77 247.58,-1042.81 251.54,-1042.81 251.54,-1042.81 336.46,-1042.81 336.46,-1042.81 340.42,-1042.81 344.38,-1046.77 344.38,-1050.73 344.38,-1050.73 344.38,-1058.64 344.38,-1058.64 344.38,-1062.6 340.42,-1066.56 336.46,-1066.56"/>
<text text-anchor="middle" x="294" y="-1049.26" font-family="Arial" font-size="14.00" fill="#cfffac">../glsl/floor.glsl</text>
</g>
<!-- ../glsl/gamma.glsl -->
<g id="node5" class="node">
<title>../glsl/gamma.glsl</title>
<path fill="none" stroke="#cfffac" d="M532.83,-506.56C532.83,-506.56 426.92,-506.56 426.92,-506.56 422.96,-506.56 419,-502.6 419,-498.64 419,-498.64 419,-490.73 419,-490.73 419,-486.77 422.96,-482.81 426.92,-482.81 426.92,-482.81 532.83,-482.81 532.83,-482.81 536.79,-482.81 540.75,-486.77 540.75,-490.73 540.75,-490.73 540.75,-498.64 540.75,-498.64 540.75,-502.6 536.79,-506.56 532.83,-506.56"/>
<text text-anchor="middle" x="479.88" y="-489.26" font-family="Arial" font-size="14.00" fill="#cfffac">../glsl/gamma.glsl</text>
</g>
<!-- ../glsl/lngamma.glsl -->
<g id="node6" class="node">
<title>../glsl/lngamma.glsl</title>
<path fill="none" stroke="#cfffac" d="M538.08,-464.56C538.08,-464.56 421.67,-464.56 421.67,-464.56 417.71,-464.56 413.75,-460.6 413.75,-456.64 413.75,-456.64 413.75,-448.73 413.75,-448.73 413.75,-444.77 417.71,-440.81 421.67,-440.81 421.67,-440.81 538.08,-440.81 538.08,-440.81 542.04,-440.81 546,-444.77 546,-448.73 546,-448.73 546,-456.64 546,-456.64 546,-460.6 542.04,-464.56 538.08,-464.56"/>
<text text-anchor="middle" x="479.88" y="-447.26" font-family="Arial" font-size="14.00" fill="#cfffac">../glsl/lngamma.glsl</text>
</g>
<!-- 3d/point.ts -->
<g id="node7" class="node">
<title>3d/point.ts</title>
<path fill="none" stroke="#c6c5fe" d="M511.08,-123.56C511.08,-123.56 448.67,-123.56 448.67,-123.56 444.71,-123.56 440.75,-119.6 440.75,-115.64 440.75,-115.64 440.75,-107.73 440.75,-107.73 440.75,-103.77 444.71,-99.81 448.67,-99.81 448.67,-99.81 511.08,-99.81 511.08,-99.81 515.04,-99.81 519,-103.77 519,-107.73 519,-107.73 519,-115.64 519,-115.64 519,-119.6 515.04,-123.56 511.08,-123.56"/>
<text text-anchor="middle" x="479.88" y="-106.26" font-family="Arial" font-size="14.00" fill="#c6c5fe">3d/point.ts</text>
</g>
<!-- bool.ts -->
<g id="node8" class="node">
<title>bool.ts</title>
<path fill="none" stroke="#c6c5fe" d="M955.46,-129.56C955.46,-129.56 915.54,-129.56 915.54,-129.56 911.58,-129.56 907.62,-125.6 907.62,-121.64 907.62,-121.64 907.62,-113.73 907.62,-113.73 907.62,-109.77 911.58,-105.81 915.54,-105.81 915.54,-105.81 955.46,-105.81 955.46,-105.81 959.42,-105.81 963.38,-109.77 963.38,-113.73 963.38,-113.73 963.38,-121.64 963.38,-121.64 963.38,-125.6 959.42,-129.56 955.46,-129.56"/>
<text text-anchor="middle" x="935.5" y="-112.26" font-family="Arial" font-size="14.00" fill="#c6c5fe">bool.ts</text>
</g>
<!-- 3d/point.ts&#45;&gt;bool.ts -->
<g id="edge1" class="edge">
<title>3d/point.ts&#45;&gt;bool.ts</title>
<path fill="none" stroke="#757575" d="M499.31,-99.51C518.89,-87.33 551.21,-69.34 582,-61.68 701.28,-32.02 742.55,-15.91 858.5,-56.68 881.23,-64.68 902.2,-82.66 916.32,-97.04"/>
<polygon fill="#757575" stroke="#757575" points="913.75,-99.42 923.15,-104.31 918.85,-94.62 913.75,-99.42"/>
</g>
<!-- core/ops.ts -->
<g id="node9" class="node">
<title>core/ops.ts</title>
<path fill="none" stroke="#cfffac" d="M968.58,-509.56C968.58,-509.56 902.42,-509.56 902.42,-509.56 898.46,-509.56 894.5,-505.6 894.5,-501.64 894.5,-501.64 894.5,-493.73 894.5,-493.73 894.5,-489.77 898.46,-485.81 902.42,-485.81 902.42,-485.81 968.58,-485.81 968.58,-485.81 972.54,-485.81 976.5,-489.77 976.5,-493.73 976.5,-493.73 976.5,-501.64 976.5,-501.64 976.5,-505.6 972.54,-509.56 968.58,-509.56"/>
<text text-anchor="middle" x="935.5" y="-492.26" font-family="Arial" font-size="14.00" fill="#cfffac">core/ops.ts</text>
</g>
<!-- 3d/point.ts&#45;&gt;core/ops.ts -->
<g id="edge2" class="edge">
<title>3d/point.ts&#45;&gt;core/ops.ts</title>
<path fill="none" stroke="#757575" d="M519.26,-103.69C598.18,-89.77 777.98,-71.64 858.5,-174.68 930.72,-267.11 936.13,-416.83 935.33,-474.24"/>
<polygon fill="#757575" stroke="#757575" points="931.83,-474.03 935.1,-484.11 938.83,-474.19 931.83,-474.03"/>
</g>
<!-- geo/point.ts -->
<g id="node10" class="node">
<title>geo/point.ts</title>
<path fill="none" stroke="#c6c5fe" d="M687.21,-241.56C687.21,-241.56 617.29,-241.56 617.29,-241.56 613.33,-241.56 609.38,-237.6 609.38,-233.64 609.38,-233.64 609.38,-225.73 609.38,-225.73 609.38,-221.77 613.33,-217.81 617.29,-217.81 617.29,-217.81 687.21,-217.81 687.21,-217.81 691.17,-217.81 695.12,-221.77 695.12,-225.73 695.12,-225.73 695.12,-233.64 695.12,-233.64 695.12,-237.6 691.17,-241.56 687.21,-241.56"/>
<text text-anchor="middle" x="652.25" y="-224.26" font-family="Arial" font-size="14.00" fill="#c6c5fe">geo/point.ts</text>
</g>
<!-- 3d/point.ts&#45;&gt;geo/point.ts -->
<g id="edge3" class="edge">
<title>3d/point.ts&#45;&gt;geo/point.ts</title>
<path fill="none" stroke="#757575" d="M498.47,-123.87C528.31,-144.54 589.04,-186.6 624.28,-211.01"/>
<polygon fill="#757575" stroke="#757575" points="622.04,-213.71 632.25,-216.53 626.03,-207.96 622.04,-213.71"/>
</g>
<!-- num/real.ts -->
<g id="node11" class="node">
<title>num/real.ts</title>
<path fill="none" stroke="#c6c5fe" d="M842.33,-207.56C842.33,-207.56 774.67,-207.56 774.67,-207.56 770.71,-207.56 766.75,-203.6 766.75,-199.64 766.75,-199.64 766.75,-191.73 766.75,-191.73 766.75,-187.77 770.71,-183.81 774.67,-183.81 774.67,-183.81 842.33,-183.81 842.33,-183.81 846.29,-183.81 850.25,-187.77 850.25,-191.73 850.25,-191.73 850.25,-199.64 850.25,-199.64 850.25,-203.6 846.29,-207.56 842.33,-207.56"/>
<text text-anchor="middle" x="808.5" y="-190.26" font-family="Arial" font-size="14.00" fill="#c6c5fe">num/real.ts</text>
</g>
<!-- 3d/point.ts&#45;&gt;num/real.ts -->
<g id="edge4" class="edge">
<title>3d/point.ts&#45;&gt;num/real.ts</title>
<path fill="none" stroke="#757575" d="M519.13,-108.81C568.38,-106.64 655.57,-108.04 722.5,-137.68 742.07,-146.35 740.92,-157.47 758.5,-169.68 762.66,-172.58 767.18,-175.38 771.74,-178"/>
<polygon fill="#757575" stroke="#757575" points="769.86,-180.97 780.32,-182.71 773.23,-174.83 769.86,-180.97"/>
</g>
<!-- core/cmp.ts -->
<g id="node14" class="node">
<title>core/cmp.ts</title>
<path fill="none" stroke="#cfffac" d="M1091.08,-168.56C1091.08,-168.56 1020.42,-168.56 1020.42,-168.56 1016.46,-168.56 1012.5,-164.6 1012.5,-160.64 1012.5,-160.64 1012.5,-152.73 1012.5,-152.73 1012.5,-148.77 1016.46,-144.81 1020.42,-144.81 1020.42,-144.81 1091.08,-144.81 1091.08,-144.81 1095.04,-144.81 1099,-148.77 1099,-152.73 1099,-152.73 1099,-160.64 1099,-160.64 1099,-164.6 1095.04,-168.56 1091.08,-168.56"/>
<text text-anchor="middle" x="1055.75" y="-151.26" font-family="Arial" font-size="14.00" fill="#cfffac">core/cmp.ts</text>
</g>
<!-- bool.ts&#45;&gt;core/cmp.ts -->
<g id="edge10" class="edge">
<title>bool.ts&#45;&gt;core/cmp.ts</title>
<path fill="none" stroke="#757575" d="M963.63,-126.63C976.47,-130.87 992.19,-136.05 1006.93,-140.91"/>
<polygon fill="#757575" stroke="#757575" points="1005.41,-144.1 1016.01,-143.91 1007.6,-137.45 1005.41,-144.1"/>
</g>
<!-- geo/point.ts&#45;&gt;bool.ts -->
<g id="edge33" class="edge">
<title>geo/point.ts&#45;&gt;bool.ts</title>
<path fill="none" stroke="#757575" d="M674.11,-217.44C694.99,-205.51 728.27,-187.37 758.5,-174.68 804.73,-155.28 860.02,-138.35 896.14,-128.09"/>
<polygon fill="#757575" stroke="#757575" points="897.01,-131.47 905.69,-125.4 895.12,-124.74 897.01,-131.47"/>
</g>
<!-- geo/point.ts&#45;&gt;core/ops.ts -->
<g id="edge34" class="edge">
<title>geo/point.ts&#45;&gt;core/ops.ts</title>
<path fill="none" stroke="#757575" d="M695.44,-239.39C741.01,-251.84 813.18,-277.55 858.5,-323.68 901.05,-366.99 921.71,-438.05 929.96,-474.51"/>
<polygon fill="#757575" stroke="#757575" points="926.47,-474.93 931.98,-483.98 933.31,-473.47 926.47,-474.93"/>
</g>
<!-- geo/point.ts&#45;&gt;num/real.ts -->
<g id="edge36" class="edge">
<title>geo/point.ts&#45;&gt;num/real.ts</title>
<path fill="none" stroke="#757575" d="M695.4,-220.39C713.89,-216.32 735.79,-211.49 755.3,-207.19"/>
<polygon fill="#757575" stroke="#757575" points="755.98,-210.63 764.99,-205.05 754.47,-203.79 755.98,-210.63"/>
</g>
<!-- eval.ts -->
<g id="node22" class="node">
<title>eval.ts</title>
<path fill="none" stroke="#cfffac" d="M828.08,-821.56C828.08,-821.56 788.92,-821.56 788.92,-821.56 784.96,-821.56 781,-817.6 781,-813.64 781,-813.64 781,-805.73 781,-805.73 781,-801.77 784.96,-797.81 788.92,-797.81 788.92,-797.81 828.08,-797.81 828.08,-797.81 832.04,-797.81 836,-801.77 836,-805.73 836,-805.73 836,-813.64 836,-813.64 836,-817.6 832.04,-821.56 828.08,-821.56"/>
<text text-anchor="middle" x="808.5" y="-804.26" font-family="Arial" font-size="14.00" fill="#cfffac">eval.ts</text>
</g>
<!-- geo/point.ts&#45;&gt;eval.ts -->
<g id="edge35" class="edge">
<title>geo/point.ts&#45;&gt;eval.ts</title>
<path fill="none" stroke="#757575" d="M656.47,-241.8C675.7,-314.11 775.37,-688.87 801.32,-786.44"/>
<polygon fill="#757575" stroke="#757575" points="797.89,-787.17 803.84,-795.93 804.65,-785.37 797.89,-787.17"/>
</g>
<!-- num/real.ts&#45;&gt;bool.ts -->
<g id="edge46" class="edge">
<title>num/real.ts&#45;&gt;bool.ts</title>
<path fill="none" stroke="#757575" d="M829.31,-183.33C849.7,-170.6 881.7,-150.63 905.05,-136.06"/>
<polygon fill="#757575" stroke="#757575" points="906.87,-139.05 913.5,-130.79 903.17,-133.11 906.87,-139.05"/>
</g>
<!-- num/real.ts&#45;&gt;core/ops.ts -->
<g id="edge48" class="edge">
<title>num/real.ts&#45;&gt;core/ops.ts</title>
<path fill="none" stroke="#757575" d="M833.17,-208C842.26,-213.78 852,-221.46 858.5,-230.68 913.29,-308.42 928.77,-424.95 932.99,-474.29"/>
<polygon fill="#757575" stroke="#757575" points="929.48,-474.36 933.74,-484.06 936.46,-473.82 929.48,-474.36"/>
</g>
<!-- num/real.ts&#45;&gt;core/cmp.ts -->
<g id="edge47" class="edge">
<title>num/real.ts&#45;&gt;core/cmp.ts</title>
<path fill="none" stroke="#757575" d="M850.55,-189.16C891.91,-182.58 955.92,-172.4 1001.24,-165.19"/>
<polygon fill="#757575" stroke="#757575" points="1001.51,-168.69 1010.84,-163.67 1000.41,-161.78 1001.51,-168.69"/>
</g>
<!-- 4d/point.ts -->
<g id="node12" class="node">
<title>4d/point.ts</title>
<path fill="none" stroke="#c6c5fe" d="M325.21,-163.56C325.21,-163.56 262.79,-163.56 262.79,-163.56 258.83,-163.56 254.88,-159.6 254.88,-155.64 254.88,-155.64 254.88,-147.73 254.88,-147.73 254.88,-143.77 258.83,-139.81 262.79,-139.81 262.79,-139.81 325.21,-139.81 325.21,-139.81 329.17,-139.81 333.12,-143.77 333.12,-147.73 333.12,-147.73 333.12,-155.64 333.12,-155.64 333.12,-159.6 329.17,-163.56 325.21,-163.56"/>
<text text-anchor="middle" x="294" y="-146.26" font-family="Arial" font-size="14.00" fill="#c6c5fe">4d/point.ts</text>
</g>
<!-- 4d/point.ts&#45;&gt;3d/point.ts -->
<g id="edge5" class="edge">
<title>4d/point.ts&#45;&gt;3d/point.ts</title>
<path fill="none" stroke="#757575" d="M333.55,-143.3C361.37,-137.25 399.19,-129.02 429.27,-122.48"/>
<polygon fill="#757575" stroke="#757575" points="429.87,-125.93 438.9,-120.38 428.39,-119.09 429.87,-125.93"/>
</g>
<!-- 4d/point.ts&#45;&gt;bool.ts -->
<g id="edge6" class="edge">
<title>4d/point.ts&#45;&gt;bool.ts</title>
<path fill="none" stroke="#757575" d="M314.87,-139.34C360.13,-112.09 475.27,-47.72 582,-28.68 702.98,-7.1 746.9,22.77 858.5,-28.68 888.18,-42.37 910.56,-73.98 923.1,-95.6"/>
<polygon fill="#757575" stroke="#757575" points="919.98,-97.18 927.87,-104.24 926.1,-93.8 919.98,-97.18"/>
</g>
<!-- 4d/point.ts&#45;&gt;core/ops.ts -->
<g id="edge7" class="edge">
<title>4d/point.ts&#45;&gt;core/ops.ts</title>
<path fill="none" stroke="#757575" d="M301.91,-163.67C317.95,-190.41 360.45,-255.18 413.75,-288.68 587.19,-397.7 685.16,-300.52 858.5,-409.68 885.26,-426.54 907.74,-455.73 921.14,-475.84"/>
<polygon fill="#757575" stroke="#757575" points="918.13,-477.63 926.49,-484.14 924.02,-473.84 918.13,-477.63"/>
</g>
<!-- 4d/point.ts&#45;&gt;geo/point.ts -->
<g id="edge8" class="edge">
<title>4d/point.ts&#45;&gt;geo/point.ts</title>
<path fill="none" stroke="#757575" d="M333.46,-160.11C397.34,-174.09 525.42,-202.13 597.95,-218.02"/>
<polygon fill="#757575" stroke="#757575" points="597.11,-221.41 607.62,-220.13 598.6,-214.57 597.11,-221.41"/>
</g>
<!-- 4d/point.ts&#45;&gt;num/real.ts -->
<g id="edge9" class="edge">
<title>4d/point.ts&#45;&gt;num/real.ts</title>
<path fill="none" stroke="#757575" d="M333.55,-151.6C408.75,-151.92 580.14,-155.1 722.5,-175.68 733.19,-177.23 744.51,-179.46 755.29,-181.88"/>
<polygon fill="#757575" stroke="#757575" points="754.27,-185.24 764.8,-184.11 755.86,-178.42 754.27,-185.24"/>
</g>
<!-- base.ts -->
<g id="node13" class="node">
<title>base.ts</title>
<path fill="none" stroke="#cfffac" d="M108.96,-1087.56C108.96,-1087.56 65.29,-1087.56 65.29,-1087.56 61.33,-1087.56 57.38,-1083.6 57.38,-1079.64 57.38,-1079.64 57.38,-1071.73 57.38,-1071.73 57.38,-1067.77 61.33,-1063.81 65.29,-1063.81 65.29,-1063.81 108.96,-1063.81 108.96,-1063.81 112.92,-1063.81 116.88,-1067.77 116.88,-1071.73 116.88,-1071.73 116.88,-1079.64 116.88,-1079.64 116.88,-1083.6 112.92,-1087.56 108.96,-1087.56"/>
<text text-anchor="middle" x="87.12" y="-1070.26" font-family="Arial" font-size="14.00" fill="#cfffac">base.ts</text>
</g>
<!-- chem/elements.ts -->
<g id="node15" class="node">
<title>chem/elements.ts</title>
<path fill="none" stroke="#c6c5fe" d="M705.96,-587.56C705.96,-587.56 598.54,-587.56 598.54,-587.56 594.58,-587.56 590.62,-583.6 590.62,-579.64 590.62,-579.64 590.62,-571.73 590.62,-571.73 590.62,-567.77 594.58,-563.81 598.54,-563.81 598.54,-563.81 705.96,-563.81 705.96,-563.81 709.92,-563.81 713.88,-567.77 713.88,-571.73 713.88,-571.73 713.88,-579.64 713.88,-579.64 713.88,-583.6 709.92,-587.56 705.96,-587.56"/>
<text text-anchor="middle" x="652.25" y="-570.26" font-family="Arial" font-size="14.00" fill="#c6c5fe">chem/elements.ts</text>
</g>
<!-- unit/pkg.ts -->
<g id="node16" class="node">
<title>unit/pkg.ts</title>
<path fill="none" stroke="#c6c5fe" d="M839.33,-591.56C839.33,-591.56 777.67,-591.56 777.67,-591.56 773.71,-591.56 769.75,-587.6 769.75,-583.64 769.75,-583.64 769.75,-575.73 769.75,-575.73 769.75,-571.77 773.71,-567.81 777.67,-567.81 777.67,-567.81 839.33,-567.81 839.33,-567.81 843.29,-567.81 847.25,-571.77 847.25,-575.73 847.25,-575.73 847.25,-583.64 847.25,-583.64 847.25,-587.6 843.29,-591.56 839.33,-591.56"/>
<text text-anchor="middle" x="808.5" y="-574.26" font-family="Arial" font-size="14.00" fill="#c6c5fe">unit/pkg.ts</text>
</g>
<!-- chem/elements.ts&#45;&gt;unit/pkg.ts -->
<g id="edge11" class="edge">
<title>chem/elements.ts&#45;&gt;unit/pkg.ts</title>
<path fill="none" stroke="#757575" d="M714.21,-577.27C728.82,-577.64 744.23,-578.04 758.23,-578.41"/>
<polygon fill="#757575" stroke="#757575" points="758.01,-581.9 768.1,-578.66 758.19,-574.9 758.01,-581.9"/>
</g>
<!-- unit/pkg.ts&#45;&gt;core/ops.ts -->
<g id="edge60" class="edge">
<title>unit/pkg.ts&#45;&gt;core/ops.ts</title>
<path fill="none" stroke="#757575" d="M841.75,-567.35C847.47,-564.75 853.26,-561.83 858.5,-558.68 878.32,-546.79 898.63,-530.21 913.27,-517.34"/>
<polygon fill="#757575" stroke="#757575" points="915.35,-520.17 920.46,-510.89 910.68,-514.96 915.35,-520.17"/>
</g>
<!-- color/core.ts -->
<g id="node17" class="node">
<title>color/core.ts</title>
<path fill="none" stroke="#c6c5fe" d="M689.08,-545.56C689.08,-545.56 615.42,-545.56 615.42,-545.56 611.46,-545.56 607.5,-541.6 607.5,-537.64 607.5,-537.64 607.5,-529.73 607.5,-529.73 607.5,-525.77 611.46,-521.81 615.42,-521.81 615.42,-521.81 689.08,-521.81 689.08,-521.81 693.04,-521.81 697,-525.77 697,-529.73 697,-529.73 697,-537.64 697,-537.64 697,-541.6 693.04,-545.56 689.08,-545.56"/>
<text text-anchor="middle" x="652.25" y="-528.26" font-family="Arial" font-size="14.00" fill="#c6c5fe">color/core.ts</text>
</g>
<!-- color/core.ts&#45;&gt;core/ops.ts -->
<g id="edge12" class="edge">
<title>color/core.ts&#45;&gt;core/ops.ts</title>
<path fill="none" stroke="#757575" d="M697.47,-526.01C716.25,-522.89 738.41,-519.39 758.5,-516.68 800.23,-511.07 847.71,-506.02 882.82,-502.54"/>
<polygon fill="#757575" stroke="#757575" points="883.12,-506.03 892.73,-501.57 882.43,-499.06 883.12,-506.03"/>
</g>
<!-- color/extras.ts -->
<g id="node18" class="node">
<title>color/extras.ts</title>
<path fill="none" stroke="#c6c5fe" d="M850.58,-89.56C850.58,-89.56 766.42,-89.56 766.42,-89.56 762.46,-89.56 758.5,-85.6 758.5,-81.64 758.5,-81.64 758.5,-73.73 758.5,-73.73 758.5,-69.77 762.46,-65.81 766.42,-65.81 766.42,-65.81 850.58,-65.81 850.58,-65.81 854.54,-65.81 858.5,-69.77 858.5,-73.73 858.5,-73.73 858.5,-81.64 858.5,-81.64 858.5,-85.6 854.54,-89.56 850.58,-89.56"/>
<text text-anchor="middle" x="808.5" y="-72.26" font-family="Arial" font-size="14.00" fill="#c6c5fe">color/extras.ts</text>
</g>
<!-- color/extras.ts&#45;&gt;bool.ts -->
<g id="edge13" class="edge">
<title>color/extras.ts&#45;&gt;bool.ts</title>
<path fill="none" stroke="#757575" d="M848.02,-90.01C863.49,-94.96 881.27,-100.65 896.67,-105.58"/>
<polygon fill="#757575" stroke="#757575" points="895.37,-108.84 905.96,-108.55 897.5,-102.17 895.37,-108.84"/>
</g>
<!-- core/fn.ts -->
<g id="node19" class="node">
<title>core/fn.ts</title>
<path fill="none" stroke="#c6c5fe" d="M836.33,-549.56C836.33,-549.56 780.67,-549.56 780.67,-549.56 776.71,-549.56 772.75,-545.6 772.75,-541.64 772.75,-541.64 772.75,-533.73 772.75,-533.73 772.75,-529.77 776.71,-525.81 780.67,-525.81 780.67,-525.81 836.33,-525.81 836.33,-525.81 840.29,-525.81 844.25,-529.77 844.25,-533.73 844.25,-533.73 844.25,-541.64 844.25,-541.64 844.25,-545.6 840.29,-549.56 836.33,-549.56"/>
<text text-anchor="middle" x="808.5" y="-532.26" font-family="Arial" font-size="14.00" fill="#c6c5fe">core/fn.ts</text>
</g>
<!-- core/fn.ts&#45;&gt;core/ops.ts -->
<g id="edge14" class="edge">
<title>core/fn.ts&#45;&gt;core/ops.ts</title>
<path fill="none" stroke="#757575" d="M844.65,-526.44C857.3,-522.39 871.81,-517.74 885.43,-513.39"/>
<polygon fill="#757575" stroke="#757575" points="886.21,-516.81 894.67,-510.43 884.08,-510.15 886.21,-516.81"/>
</g>
<!-- data/distributions.ts -->
<g id="node20" class="node">
<title>data/distributions.ts</title>
<path fill="none" stroke="#c6c5fe" d="M352.21,-822.56C352.21,-822.56 235.79,-822.56 235.79,-822.56 231.83,-822.56 227.88,-818.6 227.88,-814.64 227.88,-814.64 227.88,-806.73 227.88,-806.73 227.88,-802.77 231.83,-798.81 235.79,-798.81 235.79,-798.81 352.21,-798.81 352.21,-798.81 356.17,-798.81 360.12,-802.77 360.12,-806.73 360.12,-806.73 360.12,-814.64 360.12,-814.64 360.12,-818.6 356.17,-822.56 352.21,-822.56"/>
<text text-anchor="middle" x="294" y="-805.26" font-family="Arial" font-size="14.00" fill="#c6c5fe">data/distributions.ts</text>
</g>
<!-- data/distributions.ts&#45;&gt;../glsl/erf&#45;c32.glsl -->
<g id="edge15" class="edge">
<title>data/distributions.ts&#45;&gt;../glsl/erf&#45;c32.glsl</title>
<path fill="none" stroke="#757575" d="M360.6,-810.68C376.46,-810.68 393.45,-810.68 409.47,-810.68"/>
<polygon fill="#757575" stroke="#757575" points="409.42,-814.18 419.42,-810.68 409.42,-807.18 409.42,-814.18"/>
</g>
<!-- data/distributions.ts&#45;&gt;../glsl/erf.glsl -->
<g id="edge16" class="edge">
<title>data/distributions.ts&#45;&gt;../glsl/erf.glsl</title>
<path fill="none" stroke="#757575" d="M306.28,-823.03C326.09,-844.06 369.3,-886.92 413.75,-911.68 416.92,-913.45 420.25,-915.09 423.67,-916.61"/>
<polygon fill="#757575" stroke="#757575" points="422.11,-919.76 432.7,-920.27 424.74,-913.27 422.11,-919.76"/>
</g>
<!-- data/distributions.ts&#45;&gt;../glsl/erfinv.glsl -->
<g id="edge17" class="edge">
<title>data/distributions.ts&#45;&gt;../glsl/erfinv.glsl</title>
<path fill="none" stroke="#757575" d="M321.26,-823.05C345.21,-834.24 381.67,-851 413.75,-864.68 421.13,-867.83 429.03,-871.09 436.69,-874.18"/>
<polygon fill="#757575" stroke="#757575" points="435.29,-877.39 445.88,-877.86 437.9,-870.89 435.29,-877.39"/>
</g>
<!-- data/distributions.ts&#45;&gt;core/ops.ts -->
<g id="edge18" class="edge">
<title>data/distributions.ts&#45;&gt;core/ops.ts</title>
<path fill="none" stroke="#757575" d="M333.12,-798.38C356.35,-790.98 386.68,-781.52 413.75,-773.68 610.3,-716.79 700.78,-785.04 858.5,-654.68 900.89,-619.65 921.38,-555.32 929.71,-520.89"/>
<polygon fill="#757575" stroke="#757575" points="933.04,-522.05 931.83,-511.53 926.21,-520.51 933.04,-522.05"/>
</g>
<!-- data/statistics.ts -->
<g id="node21" class="node">
<title>data/statistics.ts</title>
<path fill="none" stroke="#c6c5fe" d="M700.33,-783.56C700.33,-783.56 604.17,-783.56 604.17,-783.56 600.21,-783.56 596.25,-779.6 596.25,-775.64 596.25,-775.64 596.25,-767.73 596.25,-767.73 596.25,-763.77 600.21,-759.81 604.17,-759.81 604.17,-759.81 700.33,-759.81 700.33,-759.81 704.29,-759.81 708.25,-763.77 708.25,-767.73 708.25,-767.73 708.25,-775.64 708.25,-775.64 708.25,-779.6 704.29,-783.56 700.33,-783.56"/>
<text text-anchor="middle" x="652.25" y="-766.26" font-family="Arial" font-size="14.00" fill="#c6c5fe">data/statistics.ts</text>
</g>
<!-- data/distributions.ts&#45;&gt;data/statistics.ts -->
<g id="edge19" class="edge">
<title>data/distributions.ts&#45;&gt;data/statistics.ts</title>
<path fill="none" stroke="#757575" d="M357.99,-798.34C375.95,-795.15 395.57,-791.97 413.75,-789.68 471.17,-782.45 536.79,-777.75 584.49,-774.97"/>
<polygon fill="#757575" stroke="#757575" points="584.61,-778.47 594.39,-774.4 584.21,-771.48 584.61,-778.47"/>
</g>
<!-- data/distributions.ts&#45;&gt;eval.ts -->
<g id="edge20" class="edge">
<title>data/distributions.ts&#45;&gt;eval.ts</title>
<path fill="none" stroke="#757575" d="M353.02,-823.04C372.25,-826.57 393.83,-829.94 413.75,-831.68 543.99,-843.11 699.01,-825.25 769.38,-815.44"/>
<polygon fill="#757575" stroke="#757575" points="769.82,-818.91 779.22,-814.04 768.83,-811.98 769.82,-818.91"/>
</g>
<!-- num/complex.ts -->
<g id="node23" class="node">
<title>num/complex.ts</title>
<path fill="none" stroke="#c6c5fe" d="M527.96,-548.56C527.96,-548.56 431.79,-548.56 431.79,-548.56 427.83,-548.56 423.88,-544.6 423.88,-540.64 423.88,-540.64 423.88,-532.73 423.88,-532.73 423.88,-528.77 427.83,-524.81 431.79,-524.81 431.79,-524.81 527.96,-524.81 527.96,-524.81 531.92,-524.81 535.88,-528.77 535.88,-532.73 535.88,-532.73 535.88,-540.64 535.88,-540.64 535.88,-544.6 531.92,-548.56 527.96,-548.56"/>
<text text-anchor="middle" x="479.88" y="-531.26" font-family="Arial" font-size="14.00" fill="#c6c5fe">num/complex.ts</text>
</g>
<!-- data/distributions.ts&#45;&gt;num/complex.ts -->
<g id="edge21" class="edge">
<title>data/distributions.ts&#45;&gt;num/complex.ts</title>
<path fill="none" stroke="#757575" d="M304.16,-798.47C320.83,-775.76 356.38,-725.03 377.75,-677.68 400.66,-626.93 374.78,-597.46 413.75,-557.68 414.48,-556.94 415.23,-556.23 416.01,-555.53"/>
<polygon fill="#757575" stroke="#757575" points="417.77,-558.58 423.89,-549.93 413.71,-552.87 417.77,-558.58"/>
</g>
<!-- data/statistics.ts&#45;&gt;core/ops.ts -->
<g id="edge25" class="edge">
<title>data/statistics.ts&#45;&gt;core/ops.ts</title>
<path fill="none" stroke="#757575" d="M708.48,-779.85C753.9,-783.34 817.28,-780.38 858.5,-745.68 926.64,-688.33 934.85,-571.57 935.07,-521.43"/>
<polygon fill="#757575" stroke="#757575" points="938.57,-521.42 934.99,-511.45 931.57,-521.47 938.57,-521.42"/>
</g>
<!-- data/statistics.ts&#45;&gt;eval.ts -->
<g id="edge26" class="edge">
<title>data/statistics.ts&#45;&gt;eval.ts</title>
<path fill="none" stroke="#757575" d="M703.33,-784.02C724.8,-789.31 749.48,-795.39 769.42,-800.3"/>
<polygon fill="#757575" stroke="#757575" points="768.54,-803.69 779.09,-802.68 770.22,-796.89 768.54,-803.69"/>
</g>
<!-- num/complex.ts&#45;&gt;bool.ts -->
<g id="edge38" class="edge">
<title>num/complex.ts&#45;&gt;bool.ts</title>
<path fill="none" stroke="#757575" d="M527.89,-524.36C534.18,-521.91 540.39,-519.03 546,-515.68 711.11,-417.25 730.16,-359.78 858.5,-216.68 881.25,-191.32 904.73,-159.76 919.46,-139.18"/>
<polygon fill="#757575" stroke="#757575" points="922.14,-141.46 925.07,-131.28 916.43,-137.41 922.14,-141.46"/>
</g>
<!-- num/complex.ts&#45;&gt;core/ops.ts -->
<g id="edge40" class="edge">
<title>num/complex.ts&#45;&gt;core/ops.ts</title>
<path fill="none" stroke="#757575" d="M525.36,-524.39C542.88,-520.01 563.26,-515.47 582,-512.68 687.96,-496.93 813.65,-495.7 882.67,-496.5"/>
<polygon fill="#757575" stroke="#757575" points="882.5,-500 892.55,-496.64 882.6,-493 882.5,-500"/>
</g>
<!-- num/complex.ts&#45;&gt;geo/point.ts -->
<g id="edge41" class="edge">
<title>num/complex.ts&#45;&gt;geo/point.ts</title>
<path fill="none" stroke="#757575" d="M535.81,-524.46C539.62,-522.04 543.1,-519.14 546,-515.68 620.99,-426.33 509.14,-346.79 582,-255.68 586.47,-250.09 592.29,-245.7 598.64,-242.25"/>
<polygon fill="#757575" stroke="#757575" points="599.92,-245.52 607.58,-238.2 597.03,-239.14 599.92,-245.52"/>
</g>
<!-- num/complex.ts&#45;&gt;num/real.ts -->
<g id="edge42" class="edge">
<title>num/complex.ts&#45;&gt;num/real.ts</title>
<path fill="none" stroke="#757575" d="M535.3,-524.47C539.27,-522.05 542.92,-519.15 546,-515.68 601.32,-453.37 533.55,-399.48 582,-331.68 623.91,-273.04 661,-288.28 722.5,-250.68 741.75,-238.92 763.07,-225.12 779.54,-214.29"/>
<polygon fill="#757575" stroke="#757575" points="781.42,-217.24 787.84,-208.81 777.57,-211.4 781.42,-217.24"/>
</g>
<!-- num/complex.ts&#45;&gt;color/core.ts -->
<g id="edge39" class="edge">
<title>num/complex.ts&#45;&gt;color/core.ts</title>
<path fill="none" stroke="#757575" d="M536.19,-535.71C555.35,-535.37 576.82,-534.99 595.98,-534.66"/>
<polygon fill="#757575" stroke="#757575" points="595.81,-538.16 605.74,-534.49 595.68,-531.16 595.81,-538.16"/>
</g>
<!-- data/list&#45;extras.ts -->
<g id="node24" class="node">
<title>data/list&#45;extras.ts</title>
<path fill="none" stroke="#cfffac" d="M138.21,-1129.56C138.21,-1129.56 36.04,-1129.56 36.04,-1129.56 32.08,-1129.56 28.12,-1125.6 28.12,-1121.64 28.12,-1121.64 28.12,-1113.73 28.12,-1113.73 28.12,-1109.77 32.08,-1105.81 36.04,-1105.81 36.04,-1105.81 138.21,-1105.81 138.21,-1105.81 142.17,-1105.81 146.12,-1109.77 146.12,-1113.73 146.12,-1113.73 146.12,-1121.64 146.12,-1121.64 146.12,-1125.6 142.17,-1129.56 138.21,-1129.56"/>
<text text-anchor="middle" x="87.12" y="-1112.26" font-family="Arial" font-size="14.00" fill="#cfffac">data/list&#45;extras.ts</text>
</g>
<!-- data/list.ts -->
<g id="node25" class="node">
<title>data/list.ts</title>
<path fill="none" stroke="#cfffac" d="M117.58,-1171.56C117.58,-1171.56 56.67,-1171.56 56.67,-1171.56 52.71,-1171.56 48.75,-1167.6 48.75,-1163.64 48.75,-1163.64 48.75,-1155.73 48.75,-1155.73 48.75,-1151.77 52.71,-1147.81 56.67,-1147.81 56.67,-1147.81 117.58,-1147.81 117.58,-1147.81 121.54,-1147.81 125.5,-1151.77 125.5,-1155.73 125.5,-1155.73 125.5,-1163.64 125.5,-1163.64 125.5,-1167.6 121.54,-1171.56 117.58,-1171.56"/>
<text text-anchor="middle" x="87.12" y="-1154.26" font-family="Arial" font-size="14.00" fill="#cfffac">data/list.ts</text>
</g>
<!-- data/statistics&#45;complex.ts -->
<g id="node26" class="node">
<title>data/statistics&#45;complex.ts</title>
<path fill="none" stroke="#c6c5fe" d="M369.83,-668.56C369.83,-668.56 218.17,-668.56 218.17,-668.56 214.21,-668.56 210.25,-664.6 210.25,-660.64 210.25,-660.64 210.25,-652.73 210.25,-652.73 210.25,-648.77 214.21,-644.81 218.17,-644.81 218.17,-644.81 369.83,-644.81 369.83,-644.81 373.79,-644.81 377.75,-648.77 377.75,-652.73 377.75,-652.73 377.75,-660.64 377.75,-660.64 377.75,-664.6 373.79,-668.56 369.83,-668.56"/>
<text text-anchor="middle" x="294" y="-651.26" font-family="Arial" font-size="14.00" fill="#c6c5fe">data/statistics&#45;complex.ts</text>
</g>
<!-- data/statistics&#45;complex.ts&#45;&gt;core/ops.ts -->
<g id="edge22" class="edge">
<title>data/statistics&#45;complex.ts&#45;&gt;core/ops.ts</title>
<path fill="none" stroke="#757575" d="M378.04,-661.94C515.01,-669.03 780.89,-675.69 858.5,-626.68 897.11,-602.3 918.52,-550.63 928.15,-520.61"/>
<polygon fill="#757575" stroke="#757575" points="931.41,-521.95 930.94,-511.36 924.7,-519.93 931.41,-521.95"/>
</g>
<!-- data/statistics&#45;complex.ts&#45;&gt;data/statistics.ts -->
<g id="edge23" class="edge">
<title>data/statistics&#45;complex.ts&#45;&gt;data/statistics.ts</title>
<path fill="none" stroke="#757575" d="M333.12,-668.99C398.26,-690.02 530.86,-732.82 602.58,-755.97"/>
<polygon fill="#757575" stroke="#757575" points="601.1,-759.17 611.69,-758.91 603.25,-752.51 601.1,-759.17"/>
</g>
<!-- data/statistics&#45;complex.ts&#45;&gt;num/complex.ts -->
<g id="edge24" class="edge">
<title>data/statistics&#45;complex.ts&#45;&gt;num/complex.ts</title>
<path fill="none" stroke="#757575" d="M347.24,-644.39C358.17,-640.08 369.01,-634.33 377.75,-626.68 403.78,-603.91 387.31,-579.99 413.75,-557.68 415.03,-556.61 416.36,-555.58 417.74,-554.61"/>
<polygon fill="#757575" stroke="#757575" points="419.25,-557.79 426.1,-549.71 415.7,-551.75 419.25,-557.79"/>
</g>
<!-- debug.ts -->
<g id="node27" class="node">
<title>debug.ts</title>
<path fill="none" stroke="#cfffac" d="M113.08,-1213.56C113.08,-1213.56 61.17,-1213.56 61.17,-1213.56 57.21,-1213.56 53.25,-1209.6 53.25,-1205.64 53.25,-1205.64 53.25,-1197.73 53.25,-1197.73 53.25,-1193.77 57.21,-1189.81 61.17,-1189.81 61.17,-1189.81 113.08,-1189.81 113.08,-1189.81 117.04,-1189.81 121,-1193.77 121,-1197.73 121,-1197.73 121,-1205.64 121,-1205.64 121,-1209.6 117.04,-1213.56 113.08,-1213.56"/>
<text text-anchor="middle" x="87.12" y="-1196.26" font-family="Arial" font-size="14.00" fill="#cfffac">debug.ts</text>
</g>
<!-- factorial.ts -->
<g id="node28" class="node">
<title>factorial.ts</title>
<path fill="none" stroke="#c6c5fe" d="M324.83,-485.56C324.83,-485.56 263.17,-485.56 263.17,-485.56 259.21,-485.56 255.25,-481.6 255.25,-477.64 255.25,-477.64 255.25,-469.73 255.25,-469.73 255.25,-465.77 259.21,-461.81 263.17,-461.81 263.17,-461.81 324.83,-461.81 324.83,-461.81 328.79,-461.81 332.75,-465.77 332.75,-469.73 332.75,-469.73 332.75,-477.64 332.75,-477.64 332.75,-481.6 328.79,-485.56 324.83,-485.56"/>
<text text-anchor="middle" x="294" y="-468.26" font-family="Arial" font-size="14.00" fill="#c6c5fe">factorial.ts</text>
</g>
<!-- factorial.ts&#45;&gt;../glsl/gamma.glsl -->
<g id="edge27" class="edge">
<title>factorial.ts&#45;&gt;../glsl/gamma.glsl</title>
<path fill="none" stroke="#757575" d="M333.1,-478.04C354.63,-480.49 382.25,-483.65 407.64,-486.55"/>
<polygon fill="#757575" stroke="#757575" points="406.91,-489.99 417.24,-487.65 407.7,-483.03 406.91,-489.99"/>
</g>
<!-- factorial.ts&#45;&gt;../glsl/lngamma.glsl -->
<g id="edge28" class="edge">
<title>factorial.ts&#45;&gt;../glsl/lngamma.glsl</title>
<path fill="none" stroke="#757575" d="M333.1,-469.33C353.08,-467.05 378.29,-464.17 402.11,-461.45"/>
<polygon fill="#757575" stroke="#757575" points="402.25,-464.96 411.79,-460.35 401.46,-458 402.25,-464.96"/>
</g>
<!-- factorial.ts&#45;&gt;core/ops.ts -->
<g id="edge29" class="edge">
<title>factorial.ts&#45;&gt;core/ops.ts</title>
<path fill="none" stroke="#757575" d="M321.19,-461.51C344.8,-451.24 380.77,-437.34 413.75,-431.68 586.62,-402.01 793.91,-454.27 886.15,-482.03"/>
<polygon fill="#757575" stroke="#757575" points="885.04,-485.35 895.63,-484.92 887.09,-478.65 885.04,-485.35"/>
</g>
<!-- factorial.ts&#45;&gt;num/complex.ts -->
<g id="edge30" class="edge">
<title>factorial.ts&#45;&gt;num/complex.ts</title>
<path fill="none" stroke="#757575" d="M328.95,-485.98C352.65,-494.49 385.06,-505.99 413.75,-515.68 418.76,-517.38 424,-519.12 429.24,-520.84"/>
<polygon fill="#757575" stroke="#757575" points="427.87,-524.07 438.46,-523.84 430.04,-517.42 427.87,-524.07"/>
</g>
<!-- geo/dcg/index.ts -->
<g id="node29" class="node">
<title>geo/dcg/index.ts</title>
<path fill="none" stroke="#c6c5fe" d="M529.08,-279.56C529.08,-279.56 430.67,-279.56 430.67,-279.56 426.71,-279.56 422.75,-275.6 422.75,-271.64 422.75,-271.64 422.75,-263.73 422.75,-263.73 422.75,-259.77 426.71,-255.81 430.67,-255.81 430.67,-255.81 529.08,-255.81 529.08,-255.81 533.04,-255.81 537,-259.77 537,-263.73 537,-263.73 537,-271.64 537,-271.64 537,-275.6 533.04,-279.56 529.08,-279.56"/>
<text text-anchor="middle" x="479.88" y="-262.26" font-family="Arial" font-size="14.00" fill="#c6c5fe">geo/dcg/index.ts</text>
</g>
<!-- geo/dcg/index.ts&#45;&gt;geo/point.ts -->
<g id="edge31" class="edge">
<title>geo/dcg/index.ts&#45;&gt;geo/point.ts</title>
<path fill="none" stroke="#757575" d="M536.19,-255.35C555.93,-250.94 578.12,-246 597.7,-241.63"/>
<polygon fill="#757575" stroke="#757575" points="598.42,-245.05 607.42,-239.46 596.9,-238.22 598.42,-245.05"/>
</g>
<!-- geo/image.ts -->
<g id="node30" class="node">
<title>geo/image.ts</title>
<path fill="none" stroke="#c6c5fe" d="M126.21,-1255.56C126.21,-1255.56 48.04,-1255.56 48.04,-1255.56 44.08,-1255.56 40.12,-1251.6 40.12,-1247.64 40.12,-1247.64 40.12,-1239.73 40.12,-1239.73 40.12,-1235.77 44.08,-1231.81 48.04,-1231.81 48.04,-1231.81 126.21,-1231.81 126.21,-1231.81 130.17,-1231.81 134.12,-1235.77 134.12,-1239.73 134.12,-1239.73 134.12,-1247.64 134.12,-1247.64 134.12,-1251.6 130.17,-1255.56 126.21,-1255.56"/>
<text text-anchor="middle" x="87.12" y="-1238.26" font-family="Arial" font-size="14.00" fill="#c6c5fe">geo/image.ts</text>
</g>
<!-- image.ts -->
<g id="node31" class="node">
<title>image.ts</title>
<path fill="none" stroke="#cfffac" d="M319.96,-1255.56C319.96,-1255.56 268.04,-1255.56 268.04,-1255.56 264.08,-1255.56 260.12,-1251.6 260.12,-1247.64 260.12,-1247.64 260.12,-1239.73 260.12,-1239.73 260.12,-1235.77 264.08,-1231.81 268.04,-1231.81 268.04,-1231.81 319.96,-1231.81 319.96,-1231.81 323.92,-1231.81 327.88,-1235.77 327.88,-1239.73 327.88,-1239.73 327.88,-1247.64 327.88,-1247.64 327.88,-1251.6 323.92,-1255.56 319.96,-1255.56"/>
<text text-anchor="middle" x="294" y="-1238.26" font-family="Arial" font-size="14.00" fill="#cfffac">image.ts</text>
</g>
<!-- geo/image.ts&#45;&gt;image.ts -->
<g id="edge32" class="edge">
<title>geo/image.ts&#45;&gt;image.ts</title>
<path fill="none" stroke="#757575" d="M134.61,-1243.68C168.73,-1243.68 214.78,-1243.68 248.43,-1243.68"/>
<polygon fill="#757575" stroke="#757575" points="248.26,-1247.18 258.26,-1243.68 248.26,-1240.18 248.26,-1247.18"/>
</g>
<!-- gridlines.ts -->
<g id="node32" class="node">
<title>gridlines.ts</title>
<path fill="none" stroke="#cfffac" d="M326.33,-1297.56C326.33,-1297.56 261.67,-1297.56 261.67,-1297.56 257.71,-1297.56 253.75,-1293.6 253.75,-1289.64 253.75,-1289.64 253.75,-1281.73 253.75,-1281.73 253.75,-1277.77 257.71,-1273.81 261.67,-1273.81 261.67,-1273.81 326.33,-1273.81 326.33,-1273.81 330.29,-1273.81 334.25,-1277.77 334.25,-1281.73 334.25,-1281.73 334.25,-1289.64 334.25,-1289.64 334.25,-1293.6 330.29,-1297.56 326.33,-1297.56"/>
<text text-anchor="middle" x="294" y="-1280.26" font-family="Arial" font-size="14.00" fill="#cfffac">gridlines.ts</text>
</g>
<!-- item/docs&#45;fn.ts -->
<g id="node33" class="node">
<title>item/docs&#45;fn.ts</title>
<path fill="none" stroke="#cfffac" d="M131.46,-1339.56C131.46,-1339.56 42.79,-1339.56 42.79,-1339.56 38.83,-1339.56 34.88,-1335.6 34.88,-1331.64 34.88,-1331.64 34.88,-1323.73 34.88,-1323.73 34.88,-1319.77 38.83,-1315.81 42.79,-1315.81 42.79,-1315.81 131.46,-1315.81 131.46,-1315.81 135.42,-1315.81 139.38,-1319.77 139.38,-1323.73 139.38,-1323.73 139.38,-1331.64 139.38,-1331.64 139.38,-1335.6 135.42,-1339.56 131.46,-1339.56"/>
<text text-anchor="middle" x="87.12" y="-1322.26" font-family="Arial" font-size="14.00" fill="#cfffac">item/docs&#45;fn.ts</text>
</g>
<!-- item/folder.ts -->
<g id="node34" class="node">
<title>item/folder.ts</title>
<path fill="none" stroke="#cfffac" d="M125.83,-1381.56C125.83,-1381.56 48.42,-1381.56 48.42,-1381.56 44.46,-1381.56 40.5,-1377.6 40.5,-1373.64 40.5,-1373.64 40.5,-1365.73 40.5,-1365.73 40.5,-1361.77 44.46,-1357.81 48.42,-1357.81 48.42,-1357.81 125.83,-1357.81 125.83,-1357.81 129.79,-1357.81 133.75,-1361.77 133.75,-1365.73 133.75,-1365.73 133.75,-1373.64 133.75,-1373.64 133.75,-1377.6 129.79,-1381.56 125.83,-1381.56"/>
<text text-anchor="middle" x="87.12" y="-1364.26" font-family="Arial" font-size="14.00" fill="#cfffac">item/folder.ts</text>
</g>
<!-- item/note.ts -->
<g id="node35" class="node">
<title>item/note.ts</title>
<path fill="none" stroke="#cfffac" d="M122.46,-1423.56C122.46,-1423.56 51.79,-1423.56 51.79,-1423.56 47.83,-1423.56 43.88,-1419.6 43.88,-1415.64 43.88,-1415.64 43.88,-1407.73 43.88,-1407.73 43.88,-1403.77 47.83,-1399.81 51.79,-1399.81 51.79,-1399.81 122.46,-1399.81 122.46,-1399.81 126.42,-1399.81 130.38,-1403.77 130.38,-1407.73 130.38,-1407.73 130.38,-1415.64 130.38,-1415.64 130.38,-1419.6 126.42,-1423.56 122.46,-1423.56"/>
<text text-anchor="middle" x="87.12" y="-1406.26" font-family="Arial" font-size="14.00" fill="#cfffac">item/note.ts</text>
</g>
<!-- iterate.ts -->
<g id="node36" class="node">
<title>iterate.ts</title>
<path fill="none" stroke="#cfffac" d="M113.08,-1465.56C113.08,-1465.56 61.17,-1465.56 61.17,-1465.56 57.21,-1465.56 53.25,-1461.6 53.25,-1457.64 53.25,-1457.64 53.25,-1449.73 53.25,-1449.73 53.25,-1445.77 57.21,-1441.81 61.17,-1441.81 61.17,-1441.81 113.08,-1441.81 113.08,-1441.81 117.04,-1441.81 121,-1445.77 121,-1449.73 121,-1449.73 121,-1457.64 121,-1457.64 121,-1461.6 117.04,-1465.56 113.08,-1465.56"/>
<text text-anchor="middle" x="87.12" y="-1448.26" font-family="Arial" font-size="14.00" fill="#cfffac">iterate.ts</text>
</g>
<!-- ithkuil/index.ts -->
<g id="node37" class="node">
<title>ithkuil/index.ts</title>
<path fill="none" stroke="#c6c5fe" d="M129.58,-1507.56C129.58,-1507.56 44.67,-1507.56 44.67,-1507.56 40.71,-1507.56 36.75,-1503.6 36.75,-1499.64 36.75,-1499.64 36.75,-1491.73 36.75,-1491.73 36.75,-1487.77 40.71,-1483.81 44.67,-1483.81 44.67,-1483.81 129.58,-1483.81 129.58,-1483.81 133.54,-1483.81 137.5,-1487.77 137.5,-1491.73 137.5,-1491.73 137.5,-1499.64 137.5,-1499.64 137.5,-1503.6 133.54,-1507.56 129.58,-1507.56"/>
<text text-anchor="middle" x="87.12" y="-1490.26" font-family="Arial" font-size="14.00" fill="#c6c5fe">ithkuil/index.ts</text>
</g>
<!-- text.ts -->
<g id="node38" class="node">
<title>text.ts</title>
<path fill="none" stroke="#cfffac" d="M313.08,-1507.56C313.08,-1507.56 274.92,-1507.56 274.92,-1507.56 270.96,-1507.56 267,-1503.6 267,-1499.64 267,-1499.64 267,-1491.73 267,-1491.73 267,-1487.77 270.96,-1483.81 274.92,-1483.81 274.92,-1483.81 313.08,-1483.81 313.08,-1483.81 317.04,-1483.81 321,-1487.77 321,-1491.73 321,-1491.73 321,-1499.64 321,-1499.64 321,-1503.6 317.04,-1507.56 313.08,-1507.56"/>
<text text-anchor="middle" x="294" y="-1490.26" font-family="Arial" font-size="14.00" fill="#cfffac">text.ts</text>
</g>
<!-- ithkuil/index.ts&#45;&gt;text.ts -->
<g id="edge37" class="edge">
<title>ithkuil/index.ts&#45;&gt;text.ts</title>
<path fill="none" stroke="#757575" d="M137.98,-1495.68C174.16,-1495.68 222.36,-1495.68 255.34,-1495.68"/>
<polygon fill="#757575" stroke="#757575" points="255.25,-1499.18 265.25,-1495.68 255.25,-1492.18 255.25,-1499.18"/>
</g>
<!-- num/quaternion.ts -->
<g id="node39" class="node">
<title>num/quaternion.ts</title>
<path fill="none" stroke="#c6c5fe" d="M348.46,-386.56C348.46,-386.56 239.54,-386.56 239.54,-386.56 235.58,-386.56 231.62,-382.6 231.62,-378.64 231.62,-378.64 231.62,-370.73 231.62,-370.73 231.62,-366.77 235.58,-362.81 239.54,-362.81 239.54,-362.81 348.46,-362.81 348.46,-362.81 352.42,-362.81 356.38,-366.77 356.38,-370.73 356.38,-370.73 356.38,-378.64 356.38,-378.64 356.38,-382.6 352.42,-386.56 348.46,-386.56"/>
<text text-anchor="middle" x="294" y="-369.26" font-family="Arial" font-size="14.00" fill="#c6c5fe">num/quaternion.ts</text>
</g>
<!-- num/quaternion.ts&#45;&gt;core/ops.ts -->
<g id="edge43" class="edge">
<title>num/quaternion.ts&#45;&gt;core/ops.ts</title>
<path fill="none" stroke="#757575" d="M356.45,-372.11C462.96,-369.85 686.88,-374.96 858.5,-445.68 877.9,-453.68 897.38,-467.15 911.77,-478.37"/>
<polygon fill="#757575" stroke="#757575" points="909.27,-480.85 919.25,-484.39 913.66,-475.4 909.27,-480.85"/>
</g>
<!-- num/quaternion.ts&#45;&gt;num/real.ts -->
<g id="edge45" class="edge">
<title>num/quaternion.ts&#45;&gt;num/real.ts</title>
<path fill="none" stroke="#757575" d="M302.52,-362.56C319.15,-336.83 361.74,-276.64 413.75,-246.68 522.49,-184.06 675.69,-184.71 755.13,-190.32"/>
<polygon fill="#757575" stroke="#757575" points="754.56,-193.78 764.79,-191.06 755.09,-186.8 754.56,-193.78"/>
</g>
<!-- num/quaternion.ts&#45;&gt;num/complex.ts -->
<g id="edge44" class="edge">
<title>num/quaternion.ts&#45;&gt;num/complex.ts</title>
<path fill="none" stroke="#757575" d="M310.65,-387.02C328.35,-401.48 357.35,-426.78 377.75,-452.68 397.7,-478.02 388.71,-495.36 413.75,-515.68 415.08,-516.76 416.46,-517.78 417.89,-518.75"/>
<polygon fill="#757575" stroke="#757575" points="416.13,-521.78 426.55,-523.68 419.59,-515.69 416.13,-521.78"/>
</g>
<!-- number&#45;theory&#45;complex.ts -->
<g id="node40" class="node">
<title>number&#45;theory&#45;complex.ts</title>
<path fill="none" stroke="#c6c5fe" d="M166.33,-1045.56C166.33,-1045.56 7.92,-1045.56 7.92,-1045.56 3.96,-1045.56 0,-1041.6 0,-1037.64 0,-1037.64 0,-1029.73 0,-1029.73 0,-1025.77 3.96,-1021.81 7.92,-1021.81 7.92,-1021.81 166.33,-1021.81 166.33,-1021.81 170.29,-1021.81 174.25,-1025.77 174.25,-1029.73 174.25,-1029.73 174.25,-1037.64 174.25,-1037.64 174.25,-1041.6 170.29,-1045.56 166.33,-1045.56"/>
<text text-anchor="middle" x="87.12" y="-1028.26" font-family="Arial" font-size="14.00" fill="#c6c5fe">number&#45;theory&#45;complex.ts</text>
</g>
<!-- number&#45;theory&#45;complex.ts&#45;&gt;../glsl/floor.glsl -->
<g id="edge49" class="edge">
<title>number&#45;theory&#45;complex.ts&#45;&gt;../glsl/floor.glsl</title>
<path fill="none" stroke="#757575" d="M174.71,-1042.56C193.98,-1044.53 214,-1046.59 231.99,-1048.43"/>
<polygon fill="#757575" stroke="#757575" points="231.37,-1051.89 241.68,-1049.42 232.09,-1044.92 231.37,-1051.89"/>
</g>
<!-- number&#45;theory.ts -->
<g id="node41" class="node">
<title>number&#45;theory.ts</title>
<path fill="none" stroke="#cfffac" d="M345.08,-1024.56C345.08,-1024.56 242.92,-1024.56 242.92,-1024.56 238.96,-1024.56 235,-1020.6 235,-1016.64 235,-1016.64 235,-1008.73 235,-1008.73 235,-1004.77 238.96,-1000.81 242.92,-1000.81 242.92,-1000.81 345.08,-1000.81 345.08,-1000.81 349.04,-1000.81 353,-1004.77 353,-1008.73 353,-1008.73 353,-1016.64 353,-1016.64 353,-1020.6 349.04,-1024.56 345.08,-1024.56"/>
<text text-anchor="middle" x="294" y="-1007.26" font-family="Arial" font-size="14.00" fill="#cfffac">number&#45;theory.ts</text>
</g>
<!-- number&#45;theory&#45;complex.ts&#45;&gt;number&#45;theory.ts -->
<g id="edge50" class="edge">
<title>number&#45;theory&#45;complex.ts&#45;&gt;number&#45;theory.ts</title>
<path fill="none" stroke="#757575" d="M174.71,-1024.81C190.97,-1023.14 207.77,-1021.42 223.43,-1019.82"/>
<polygon fill="#757575" stroke="#757575" points="223.51,-1023.33 233.1,-1018.82 222.8,-1016.36 223.51,-1023.33"/>
</g>
<!-- shader.ts -->
<g id="node42" class="node">
<title>shader.ts</title>
<path fill="none" stroke="#c6c5fe" d="M507.33,-590.56C507.33,-590.56 452.42,-590.56 452.42,-590.56 448.46,-590.56 444.5,-586.6 444.5,-582.64 444.5,-582.64 444.5,-574.73 444.5,-574.73 444.5,-570.77 448.46,-566.81 452.42,-566.81 452.42,-566.81 507.33,-566.81 507.33,-566.81 511.29,-566.81 515.25,-570.77 515.25,-574.73 515.25,-574.73 515.25,-582.64 515.25,-582.64 515.25,-586.6 511.29,-590.56 507.33,-590.56"/>
<text text-anchor="middle" x="479.88" y="-573.26" font-family="Arial" font-size="14.00" fill="#c6c5fe">shader.ts</text>
</g>
<!-- shader.ts&#45;&gt;color/core.ts -->
<g id="edge51" class="edge">
<title>shader.ts&#45;&gt;color/core.ts</title>
<path fill="none" stroke="#757575" d="M515.35,-569.58C538.49,-563.47 569.49,-555.28 596.03,-548.27"/>
<polygon fill="#757575" stroke="#757575" points="596.86,-551.67 605.63,-545.73 595.07,-544.9 596.86,-551.67"/>
</g>
<!-- slider.ts -->
<g id="node43" class="node">
<title>slider.ts</title>
<path fill="none" stroke="#cfffac" d="M110.08,-1549.56C110.08,-1549.56 64.17,-1549.56 64.17,-1549.56 60.21,-1549.56 56.25,-1545.6 56.25,-1541.64 56.25,-1541.64 56.25,-1533.73 56.25,-1533.73 56.25,-1529.77 60.21,-1525.81 64.17,-1525.81 64.17,-1525.81 110.08,-1525.81 110.08,-1525.81 114.04,-1525.81 118,-1529.77 118,-1533.73 118,-1533.73 118,-1541.64 118,-1541.64 118,-1545.6 114.04,-1549.56 110.08,-1549.56"/>
<text text-anchor="middle" x="87.12" y="-1532.26" font-family="Arial" font-size="14.00" fill="#cfffac">slider.ts</text>
</g>
<!-- slope&#45;field.ts -->
<g id="node44" class="node">
<title>slope&#45;field.ts</title>
<path fill="none" stroke="#c6c5fe" d="M125.08,-1297.56C125.08,-1297.56 49.17,-1297.56 49.17,-1297.56 45.21,-1297.56 41.25,-1293.6 41.25,-1289.64 41.25,-1289.64 41.25,-1281.73 41.25,-1281.73 41.25,-1277.77 45.21,-1273.81 49.17,-1273.81 49.17,-1273.81 125.08,-1273.81 125.08,-1273.81 129.04,-1273.81 133,-1277.77 133,-1281.73 133,-1281.73 133,-1289.64 133,-1289.64 133,-1293.6 129.04,-1297.56 125.08,-1297.56"/>
<text text-anchor="middle" x="87.12" y="-1280.26" font-family="Arial" font-size="14.00" fill="#c6c5fe">slope&#45;field.ts</text>
</g>
<!-- slope&#45;field.ts&#45;&gt;gridlines.ts -->
<g id="edge52" class="edge">
<title>slope&#45;field.ts&#45;&gt;gridlines.ts</title>
<path fill="none" stroke="#757575" d="M133.34,-1285.68C165.49,-1285.68 208.71,-1285.68 242.08,-1285.68"/>
<polygon fill="#757575" stroke="#757575" points="241.92,-1289.18 251.92,-1285.68 241.92,-1282.18 241.92,-1289.18"/>
</g>
<!-- special.ts -->
<g id="node45" class="node">
<title>special.ts</title>
<path fill="none" stroke="#cfffac" d="M115.33,-1591.56C115.33,-1591.56 58.92,-1591.56 58.92,-1591.56 54.96,-1591.56 51,-1587.6 51,-1583.64 51,-1583.64 51,-1575.73 51,-1575.73 51,-1571.77 54.96,-1567.81 58.92,-1567.81 58.92,-1567.81 115.33,-1567.81 115.33,-1567.81 119.29,-1567.81 123.25,-1571.77 123.25,-1575.73 123.25,-1575.73 123.25,-1583.64 123.25,-1583.64 123.25,-1587.6 119.29,-1591.56 115.33,-1591.56"/>
<text text-anchor="middle" x="87.12" y="-1574.26" font-family="Arial" font-size="14.00" fill="#cfffac">special.ts</text>
</g>
<!-- sym/core.ts -->
<g id="node46" class="node">
<title>sym/core.ts</title>
<path fill="none" stroke="#cfffac" d="M122.08,-1633.56C122.08,-1633.56 52.17,-1633.56 52.17,-1633.56 48.21,-1633.56 44.25,-1629.6 44.25,-1625.64 44.25,-1625.64 44.25,-1617.73 44.25,-1617.73 44.25,-1613.77 48.21,-1609.81 52.17,-1609.81 52.17,-1609.81 122.08,-1609.81 122.08,-1609.81 126.04,-1609.81 130,-1613.77 130,-1617.73 130,-1617.73 130,-1625.64 130,-1625.64 130,-1629.6 126.04,-1633.56 122.08,-1633.56"/>
<text text-anchor="middle" x="87.12" y="-1616.26" font-family="Arial" font-size="14.00" fill="#cfffac">sym/core.ts</text>
</g>
<!-- sym/deriv.ts -->
<g id="node47" class="node">
<title>sym/deriv.ts</title>
<path fill="none" stroke="#cfffac" d="M123.21,-1675.56C123.21,-1675.56 51.04,-1675.56 51.04,-1675.56 47.08,-1675.56 43.12,-1671.6 43.12,-1667.64 43.12,-1667.64 43.12,-1659.73 43.12,-1659.73 43.12,-1655.77 47.08,-1651.81 51.04,-1651.81 51.04,-1651.81 123.21,-1651.81 123.21,-1651.81 127.17,-1651.81 131.12,-1655.77 131.12,-1659.73 131.12,-1659.73 131.12,-1667.64 131.12,-1667.64 131.12,-1671.6 127.17,-1675.56 123.21,-1675.56"/>
<text text-anchor="middle" x="87.12" y="-1658.26" font-family="Arial" font-size="14.00" fill="#cfffac">sym/deriv.ts</text>
</g>
<!-- sym/extras.ts -->
<g id="node48" class="node">
<title>sym/extras.ts</title>
<path fill="none" stroke="#cfffac" d="M127.33,-1717.56C127.33,-1717.56 46.92,-1717.56 46.92,-1717.56 42.96,-1717.56 39,-1713.6 39,-1709.64 39,-1709.64 39,-1701.73 39,-1701.73 39,-1697.77 42.96,-1693.81 46.92,-1693.81 46.92,-1693.81 127.33,-1693.81 127.33,-1693.81 131.29,-1693.81 135.25,-1697.77 135.25,-1701.73 135.25,-1701.73 135.25,-1709.64 135.25,-1709.64 135.25,-1713.6 131.29,-1717.56 127.33,-1717.56"/>
<text text-anchor="middle" x="87.12" y="-1700.26" font-family="Arial" font-size="14.00" fill="#cfffac">sym/extras.ts</text>
</g>
<!-- trig/complex.ts -->
<g id="node49" class="node">
<title>trig/complex.ts</title>
<path fill="none" stroke="#c6c5fe" d="M337.96,-617.56C337.96,-617.56 250.04,-617.56 250.04,-617.56 246.08,-617.56 242.12,-613.6 242.12,-609.64 242.12,-609.64 242.12,-601.73 242.12,-601.73 242.12,-597.77 246.08,-593.81 250.04,-593.81 250.04,-593.81 337.96,-593.81 337.96,-593.81 341.92,-593.81 345.88,-597.77 345.88,-601.73 345.88,-601.73 345.88,-609.64 345.88,-609.64 345.88,-613.6 341.92,-617.56 337.96,-617.56"/>
<text text-anchor="middle" x="294" y="-600.26" font-family="Arial" font-size="14.00" fill="#c6c5fe">trig/complex.ts</text>
</g>
<!-- trig/complex.ts&#45;&gt;num/complex.ts -->
<g id="edge53" class="edge">
<title>trig/complex.ts&#45;&gt;num/complex.ts</title>
<path fill="none" stroke="#757575" d="M323.57,-593.46C347.49,-583.39 382.6,-568.98 413.75,-557.68 418.46,-555.97 423.39,-554.26 428.34,-552.58"/>
<polygon fill="#757575" stroke="#757575" points="429.29,-555.95 437.68,-549.48 427.08,-549.31 429.29,-555.95"/>
</g>
<!-- trig/real.ts -->
<g id="node50" class="node">
<title>trig/real.ts</title>
<path fill="none" stroke="#c6c5fe" d="M681.96,-629.56C681.96,-629.56 622.54,-629.56 622.54,-629.56 618.58,-629.56 614.62,-625.6 614.62,-621.64 614.62,-621.64 614.62,-613.73 614.62,-613.73 614.62,-609.77 618.58,-605.81 622.54,-605.81 622.54,-605.81 681.96,-605.81 681.96,-605.81 685.92,-605.81 689.88,-609.77 689.88,-613.73 689.88,-613.73 689.88,-621.64 689.88,-621.64 689.88,-625.6 685.92,-629.56 681.96,-629.56"/>
<text text-anchor="middle" x="652.25" y="-612.26" font-family="Arial" font-size="14.00" fill="#c6c5fe">trig/real.ts</text>
</g>
<!-- trig/complex.ts&#45;&gt;trig/real.ts -->
<g id="edge54" class="edge">
<title>trig/complex.ts&#45;&gt;trig/real.ts</title>
<path fill="none" stroke="#757575" d="M346.04,-607.4C414.7,-609.72 535.92,-613.8 603.07,-616.06"/>
<polygon fill="#757575" stroke="#757575" points="602.54,-619.55 612.65,-616.38 602.78,-612.55 602.54,-619.55"/>
</g>
<!-- trig/real.ts&#45;&gt;core/ops.ts -->
<g id="edge59" class="edge">
<title>trig/real.ts&#45;&gt;core/ops.ts</title>
<path fill="none" stroke="#757575" d="M690.35,-623.37C733.61,-628.11 805.89,-630.04 858.5,-600.68 890.81,-582.66 913.24,-544.51 924.98,-520.04"/>
<polygon fill="#757575" stroke="#757575" points="928.02,-521.81 928.98,-511.26 921.65,-518.9 928.02,-521.81"/>
</g>
<!-- trig/hyperbolic/complex.ts -->
<g id="node51" class="node">
<title>trig/hyperbolic/complex.ts</title>
<path fill="none" stroke="#c6c5fe" d="M163.71,-617.56C163.71,-617.56 10.54,-617.56 10.54,-617.56 6.58,-617.56 2.62,-613.6 2.62,-609.64 2.62,-609.64 2.62,-601.73 2.62,-601.73 2.62,-597.77 6.58,-593.81 10.54,-593.81 10.54,-593.81 163.71,-593.81 163.71,-593.81 167.67,-593.81 171.62,-597.77 171.62,-601.73 171.62,-601.73 171.62,-609.64 171.62,-609.64 171.62,-613.6 167.67,-617.56 163.71,-617.56"/>
<text text-anchor="middle" x="87.12" y="-600.26" font-family="Arial" font-size="14.00" fill="#c6c5fe">trig/hyperbolic/complex.ts</text>
</g>
<!-- trig/hyperbolic/complex.ts&#45;&gt;num/complex.ts -->
<g id="edge55" class="edge">
<title>trig/hyperbolic/complex.ts&#45;&gt;num/complex.ts</title>
<path fill="none" stroke="#757575" d="M157.98,-593.35C230.08,-580.62 341.72,-560.9 412.51,-548.4"/>
<polygon fill="#757575" stroke="#757575" points="412.78,-551.91 422.02,-546.72 411.56,-545.02 412.78,-551.91"/>
</g>
<!-- trig/hyperbolic/complex.ts&#45;&gt;trig/complex.ts -->
<g id="edge56" class="edge">
<title>trig/hyperbolic/complex.ts&#45;&gt;trig/complex.ts</title>
<path fill="none" stroke="#757575" d="M172.05,-605.68C191.54,-605.68 211.95,-605.68 230.35,-605.68"/>
<polygon fill="#757575" stroke="#757575" points="230.29,-609.18 240.29,-605.68 230.29,-602.18 230.29,-609.18"/>
</g>
<!-- trig/hyperbolic/real.ts -->
<g id="node52" class="node">
<title>trig/hyperbolic/real.ts</title>
<path fill="none" stroke="#c6c5fe" d="M714.58,-943.56C714.58,-943.56 589.92,-943.56 589.92,-943.56 585.96,-943.56 582,-939.6 582,-935.64 582,-935.64 582,-927.73 582,-927.73 582,-923.77 585.96,-919.81 589.92,-919.81 589.92,-919.81 714.58,-919.81 714.58,-919.81 718.54,-919.81 722.5,-923.77 722.5,-927.73 722.5,-927.73 722.5,-935.64 722.5,-935.64 722.5,-939.6 718.54,-943.56 714.58,-943.56"/>
<text text-anchor="middle" x="652.25" y="-926.26" font-family="Arial" font-size="14.00" fill="#c6c5fe">trig/hyperbolic/real.ts</text>
</g>
<!-- trig/hyperbolic/complex.ts&#45;&gt;trig/hyperbolic/real.ts -->
<g id="edge57" class="edge">
<title>trig/hyperbolic/complex.ts&#45;&gt;trig/hyperbolic/real.ts</title>
<path fill="none" stroke="#757575" d="M92.09,-617.87C104.42,-654.24 145.21,-763.68 210.25,-831.68 283.13,-907.9 312.12,-925.55 413.75,-953.68 476.32,-971 551.33,-958.86 600.08,-946.84"/>
<polygon fill="#757575" stroke="#757575" points="600.69,-950.3 609.51,-944.42 598.95,-943.52 600.69,-950.3"/>
</g>
<!-- trig/hyperbolic/real.ts&#45;&gt;core/ops.ts -->
<g id="edge58" class="edge">
<title>trig/hyperbolic/real.ts&#45;&gt;core/ops.ts</title>
<path fill="none" stroke="#757575" d="M706.52,-919.34C753.57,-905.64 820.45,-878.82 858.5,-830.68 897.19,-781.75 923.62,-588.31 931.81,-520.95"/>
<polygon fill="#757575" stroke="#757575" points="935.24,-521.76 932.94,-511.41 928.29,-520.93 935.24,-521.76"/>
</g>
<!-- with.ts -->
<g id="node53" class="node">
<title>with.ts</title>
<path fill="none" stroke="#cfffac" d="M106.33,-1759.56C106.33,-1759.56 67.92,-1759.56 67.92,-1759.56 63.96,-1759.56 60,-1755.6 60,-1751.64 60,-1751.64 60,-1743.73 60,-1743.73 60,-1739.77 63.96,-1735.81 67.92,-1735.81 67.92,-1735.81 106.33,-1735.81 106.33,-1735.81 110.29,-1735.81 114.25,-1739.77 114.25,-1743.73 114.25,-1743.73 114.25,-1751.64 114.25,-1751.64 114.25,-1755.6 110.29,-1759.56 106.33,-1759.56"/>
<text text-anchor="middle" x="87.12" y="-1742.26" font-family="Arial" font-size="14.00" fill="#cfffac">with.ts</text>
</g>
<!-- withseq.ts -->
<g id="node54" class="node">
<title>withseq.ts</title>
<path fill="none" stroke="#cfffac" d="M117.21,-1801.56C117.21,-1801.56 57.04,-1801.56 57.04,-1801.56 53.08,-1801.56 49.12,-1797.6 49.12,-1793.64 49.12,-1793.64 49.12,-1785.73 49.12,-1785.73 49.12,-1781.77 53.08,-1777.81 57.04,-1777.81 57.04,-1777.81 117.21,-1777.81 117.21,-1777.81 121.17,-1777.81 125.12,-1781.77 125.12,-1785.73 125.12,-1785.73 125.12,-1793.64 125.12,-1793.64 125.12,-1797.6 121.17,-1801.56 117.21,-1801.56"/>
<text text-anchor="middle" x="87.12" y="-1784.26" font-family="Arial" font-size="14.00" fill="#cfffac">withseq.ts</text>
</g>
</g>
</svg>
