<?xml version="1.0" encoding="UTF-8" standalone="no"?>
<!DOCTYPE svg PUBLIC "-//W3C//DTD SVG 1.1//EN"
 "http://www.w3.org/Graphics/SVG/1.1/DTD/svg11.dtd">
<!-- Generated by graphviz version 12.2.1 (20241206.2353)
 -->
<!-- Title: G Pages: 1 -->
<svg width="890pt" height="173pt"
 viewBox="0.00 0.00 890.45 172.95" xmlns="http://www.w3.org/2000/svg" xmlns:xlink="http://www.w3.org/1999/xlink">
<g id="graph0" class="graph" transform="scale(1 1) rotate(0) translate(21.6 151.35)">
<title>G</title>
<polygon fill="#111111" stroke="none" points="-21.6,21.6 -21.6,-151.35 868.85,-151.35 868.85,21.6 -21.6,21.6"/>
<!-- field/cmd/leaf/num.ts -->
<g id="node1" class="node">
<title>field/cmd/leaf/num.ts</title>
<path fill="none" stroke="#ff6c60" d="M659.08,-129.75C659.08,-129.75 533.67,-129.75 533.67,-129.75 529.71,-129.75 525.75,-125.79 525.75,-121.84 525.75,-121.84 525.75,-113.92 525.75,-113.92 525.75,-109.96 529.71,-106 533.67,-106 533.67,-106 659.08,-106 659.08,-106 663.04,-106 667,-109.96 667,-113.92 667,-113.92 667,-121.84 667,-121.84 667,-125.79 663.04,-129.75 659.08,-129.75"/>
<text text-anchor="middle" x="596.38" y="-112.45" font-family="Arial" font-size="14.00" fill="#ff6c60">field/cmd/leaf/num.ts</text>
</g>
<!-- field/cmd/leaf/var.ts -->
<g id="node2" class="node">
<title>field/cmd/leaf/var.ts</title>
<path fill="none" stroke="#ff6c60" d="M839.33,-109.75C839.33,-109.75 722.92,-109.75 722.92,-109.75 718.96,-109.75 715,-105.79 715,-101.84 715,-101.84 715,-93.92 715,-93.92 715,-89.96 718.96,-86 722.92,-86 722.92,-86 839.33,-86 839.33,-86 843.29,-86 847.25,-89.96 847.25,-93.92 847.25,-93.92 847.25,-101.84 847.25,-101.84 847.25,-105.79 843.29,-109.75 839.33,-109.75"/>
<text text-anchor="middle" x="781.12" y="-92.45" font-family="Arial" font-size="14.00" fill="#ff6c60">field/cmd/leaf/var.ts</text>
</g>
<!-- field/cmd/leaf/num.ts&#45;&gt;field/cmd/leaf/var.ts -->
<g id="edge1" class="edge">
<title>field/cmd/leaf/num.ts&#45;&gt;field/cmd/leaf/var.ts</title>
<path fill="none" stroke="#757575" d="M652.7,-105.56C668.73,-103.35 686.52,-101.27 703.6,-99.58"/>
<polygon fill="#757575" stroke="#757575" points="703.56,-103.1 713.19,-98.68 702.91,-96.13 703.56,-103.1"/>
</g>
<!-- field/cmd/leaf/var.ts&#45;&gt;field/cmd/leaf/num.ts -->
<g id="edge2" class="edge">
<title>field/cmd/leaf/var.ts&#45;&gt;field/cmd/leaf/num.ts</title>
<path fill="none" stroke="#757575" d="M724.49,-110.24C709.97,-112.24 694.02,-114.13 678.47,-115.71"/>
<polygon fill="#757575" stroke="#757575" points="678.37,-112.21 668.75,-116.66 679.05,-119.18 678.37,-112.21"/>
</g>
<!-- sheet/factory&#45;expr.ts -->
<g id="node3" class="node">
<title>sheet/factory&#45;expr.ts</title>
<path fill="none" stroke="#ff6c60" d="M309.08,-129.75C309.08,-129.75 187.42,-129.75 187.42,-129.75 183.46,-129.75 179.5,-125.79 179.5,-121.84 179.5,-121.84 179.5,-113.92 179.5,-113.92 179.5,-109.96 183.46,-106 187.42,-106 187.42,-106 309.08,-106 309.08,-106 313.04,-106 317,-109.96 317,-113.92 317,-113.92 317,-121.84 317,-121.84 317,-125.79 313.04,-129.75 309.08,-129.75"/>
<text text-anchor="middle" x="248.25" y="-112.45" font-family="Arial" font-size="14.00" fill="#ff6c60">sheet/factory&#45;expr.ts</text>
</g>
<!-- sheet/ui/expr/index.ts -->
<g id="node4" class="node">
<title>sheet/ui/expr/index.ts</title>
<path fill="none" stroke="#ff6c60" d="M135.58,-89.75C135.58,-89.75 7.92,-89.75 7.92,-89.75 3.96,-89.75 0,-85.79 0,-81.84 0,-81.84 0,-73.92 0,-73.92 0,-69.96 3.96,-66 7.92,-66 7.92,-66 135.58,-66 135.58,-66 139.54,-66 143.5,-69.96 143.5,-73.92 143.5,-73.92 143.5,-81.84 143.5,-81.84 143.5,-85.79 139.54,-89.75 135.58,-89.75"/>
<text text-anchor="middle" x="71.75" y="-72.45" font-family="Arial" font-size="14.00" fill="#ff6c60">sheet/ui/expr/index.ts</text>
</g>
<!-- sheet/factory&#45;expr.ts&#45;&gt;sheet/ui/expr/index.ts -->
<g id="edge3" class="edge">
<title>sheet/factory&#45;expr.ts&#45;&gt;sheet/ui/expr/index.ts</title>
<path fill="none" stroke="#757575" d="M179.15,-108.87C157.31,-104.2 133.78,-98.56 114.42,-93.28"/>
<polygon fill="#757575" stroke="#757575" points="115.58,-89.97 105,-90.64 113.68,-96.71 115.58,-89.97"/>
</g>
<!-- sheet/ui/expr/index.ts&#45;&gt;field/cmd/leaf/var.ts -->
<g id="edge9" class="edge">
<title>sheet/ui/expr/index.ts&#45;&gt;field/cmd/leaf/var.ts</title>
<path fill="none" stroke="#757575" d="M143.81,-79.89C277.48,-83.67 565.27,-91.8 703.26,-95.7"/>
<polygon fill="#757575" stroke="#757575" points="702.93,-99.2 713.02,-95.98 703.13,-92.2 702.93,-99.2"/>
</g>
<!-- sheet/ui/expr/index.ts&#45;&gt;sheet/factory&#45;expr.ts -->
<g id="edge10" class="edge">
<title>sheet/ui/expr/index.ts&#45;&gt;sheet/factory&#45;expr.ts</title>
<path fill="none" stroke="#757575" d="M143.98,-87.56C164.89,-92.08 187.08,-97.43 205.51,-102.45"/>
<polygon fill="#757575" stroke="#757575" points="204.42,-105.78 214.99,-105.12 206.31,-99.04 204.42,-105.78"/>
</g>
<!-- sheet/pick&#45;cursor.ts -->
<g id="node5" class="node">
<title>sheet/pick&#45;cursor.ts</title>
<path fill="none" stroke="#ff6c60" d="M306.46,-49.75C306.46,-49.75 190.04,-49.75 190.04,-49.75 186.08,-49.75 182.12,-45.79 182.12,-41.84 182.12,-41.84 182.12,-33.92 182.12,-33.92 182.12,-29.96 186.08,-26 190.04,-26 190.04,-26 306.46,-26 306.46,-26 310.42,-26 314.38,-29.96 314.38,-33.92 314.38,-33.92 314.38,-41.84 314.38,-41.84 314.38,-45.79 310.42,-49.75 306.46,-49.75"/>
<text text-anchor="middle" x="248.25" y="-32.45" font-family="Arial" font-size="14.00" fill="#ff6c60">sheet/pick&#45;cursor.ts</text>
</g>
<!-- sheet/ui/expr/index.ts&#45;&gt;sheet/pick&#45;cursor.ts -->
<g id="edge11" class="edge">
<title>sheet/ui/expr/index.ts&#45;&gt;sheet/pick&#45;cursor.ts</title>
<path fill="none" stroke="#757575" d="M126.53,-65.55C144.11,-61.52 163.83,-57 182.15,-52.8"/>
<polygon fill="#757575" stroke="#757575" points="182.91,-56.22 191.87,-50.57 181.34,-49.39 182.91,-56.22"/>
</g>
<!-- sheet/ui/cv/item.ts -->
<g id="node6" class="node">
<title>sheet/ui/cv/item.ts</title>
<path fill="none" stroke="#ff6c60" d="M469.83,-49.75C469.83,-49.75 360.92,-49.75 360.92,-49.75 356.96,-49.75 353,-45.79 353,-41.84 353,-41.84 353,-33.92 353,-33.92 353,-29.96 356.96,-26 360.92,-26 360.92,-26 469.83,-26 469.83,-26 473.79,-26 477.75,-29.96 477.75,-33.92 477.75,-33.92 477.75,-41.84 477.75,-41.84 477.75,-45.79 473.79,-49.75 469.83,-49.75"/>
<text text-anchor="middle" x="415.38" y="-32.45" font-family="Arial" font-size="14.00" fill="#ff6c60">sheet/ui/cv/item.ts</text>
</g>
<!-- sheet/pick&#45;cursor.ts&#45;&gt;sheet/ui/cv/item.ts -->
<g id="edge4" class="edge">
<title>sheet/pick&#45;cursor.ts&#45;&gt;sheet/ui/cv/item.ts</title>
<path fill="none" stroke="#757575" d="M314.51,-37.88C323.22,-37.88 332.21,-37.88 341.04,-37.88"/>
<polygon fill="#757575" stroke="#757575" points="341.03,-41.38 351.03,-37.88 341.03,-34.38 341.03,-41.38"/>
</g>
<!-- sheet/ui/cv/item&#45;virtual.ts -->
<g id="node7" class="node">
<title>sheet/ui/cv/item&#45;virtual.ts</title>
<path fill="none" stroke="#ff6c60" d="M671.08,-49.75C671.08,-49.75 521.67,-49.75 521.67,-49.75 517.71,-49.75 513.75,-45.79 513.75,-41.84 513.75,-41.84 513.75,-33.92 513.75,-33.92 513.75,-29.96 517.71,-26 521.67,-26 521.67,-26 671.08,-26 671.08,-26 675.04,-26 679,-29.96 679,-33.92 679,-33.92 679,-41.84 679,-41.84 679,-45.79 675.04,-49.75 671.08,-49.75"/>
<text text-anchor="middle" x="596.38" y="-32.45" font-family="Arial" font-size="14.00" fill="#ff6c60">sheet/ui/cv/item&#45;virtual.ts</text>
</g>
<!-- sheet/ui/cv/item.ts&#45;&gt;sheet/ui/cv/item&#45;virtual.ts -->
<g id="edge8" class="edge">
<title>sheet/ui/cv/item.ts&#45;&gt;sheet/ui/cv/item&#45;virtual.ts</title>
<path fill="none" stroke="#757575" d="M478.23,-31.42C485.92,-31.25 493.91,-31.16 501.95,-31.13"/>
<polygon fill="#757575" stroke="#757575" points="501.8,-34.63 511.8,-31.15 501.81,-27.63 501.8,-34.63"/>
</g>
<!-- sheet/ui/cv/item&#45;virtual.ts&#45;&gt;field/cmd/leaf/var.ts -->
<g id="edge5" class="edge">
<title>sheet/ui/cv/item&#45;virtual.ts&#45;&gt;field/cmd/leaf/var.ts</title>
<path fill="none" stroke="#757575" d="M636.44,-50.18C649.94,-54.47 665.15,-59.34 679,-63.88 696.76,-69.69 716.23,-76.2 733.3,-81.96"/>
<polygon fill="#757575" stroke="#757575" points="732.11,-85.25 742.7,-85.14 734.35,-78.62 732.11,-85.25"/>
</g>
<!-- sheet/ui/cv/item&#45;virtual.ts&#45;&gt;sheet/ui/expr/index.ts -->
<g id="edge7" class="edge">
<title>sheet/ui/cv/item&#45;virtual.ts&#45;&gt;sheet/ui/expr/index.ts</title>
<path fill="none" stroke="#757575" d="M544.73,-25.52C465.37,-8.31 307.54,17.12 179.5,-16.88 149.01,-24.98 118.14,-44.06 97.49,-58.74"/>
<polygon fill="#757575" stroke="#757575" points="95.45,-55.9 89.45,-64.63 99.58,-61.55 95.45,-55.9"/>
</g>
<!-- sheet/ui/cv/item&#45;virtual.ts&#45;&gt;sheet/ui/cv/item.ts -->
<g id="edge6" class="edge">
<title>sheet/ui/cv/item&#45;virtual.ts&#45;&gt;sheet/ui/cv/item.ts</title>
<path fill="none" stroke="#757575" d="M513.32,-44.61C505.39,-44.65 497.38,-44.62 489.55,-44.53"/>
<polygon fill="#757575" stroke="#757575" points="489.8,-41.03 479.74,-44.36 489.68,-48.03 489.8,-41.03"/>
</g>
</g>
</svg>
