<?xml version="1.0" encoding="UTF-8" standalone="no"?>
<!DOCTYPE svg PUBLIC "-//W3C//DTD SVG 1.1//EN"
 "http://www.w3.org/Graphics/SVG/1.1/DTD/svg11.dtd">
<!-- Generated by graphviz version 12.2.1 (20241206.2353)
 -->
<!-- Title: G Pages: 1 -->
<svg width="1169pt" height="483pt"
 viewBox="0.00 0.00 1169.20 483.08" xmlns="http://www.w3.org/2000/svg" xmlns:xlink="http://www.w3.org/1999/xlink">
<g id="graph0" class="graph" transform="scale(1 1) rotate(0) translate(21.6 461.48)">
<title>G</title>
<polygon fill="#111111" stroke="none" points="-21.6,21.6 -21.6,-461.48 1147.6,-461.48 1147.6,21.6 -21.6,21.6"/>
<!-- eval/ast/complete.ts -->
<g id="node1" class="node">
<title>eval/ast/complete.ts</title>
<path fill="none" stroke="#ff6c60" d="M651.21,-129.88C651.21,-129.88 531.04,-129.88 531.04,-129.88 527.08,-129.88 523.12,-125.92 523.12,-121.96 523.12,-121.96 523.12,-114.04 523.12,-114.04 523.12,-110.08 527.08,-106.12 531.04,-106.12 531.04,-106.12 651.21,-106.12 651.21,-106.12 655.17,-106.12 659.12,-110.08 659.12,-114.04 659.12,-114.04 659.12,-121.96 659.12,-121.96 659.12,-125.92 655.17,-129.88 651.21,-129.88"/>
<text text-anchor="middle" x="591.12" y="-112.58" font-family="Arial" font-size="14.00" fill="#ff6c60">eval/ast/complete.ts</text>
</g>
<!-- eval/ast/pass1.suffixes.ts -->
<g id="node2" class="node">
<title>eval/ast/pass1.suffixes.ts</title>
<path fill="none" stroke="#ff6c60" d="M869.33,-89.88C869.33,-89.88 719.17,-89.88 719.17,-89.88 715.21,-89.88 711.25,-85.92 711.25,-81.96 711.25,-81.96 711.25,-74.04 711.25,-74.04 711.25,-70.08 715.21,-66.12 719.17,-66.12 719.17,-66.12 869.33,-66.12 869.33,-66.12 873.29,-66.12 877.25,-70.08 877.25,-74.04 877.25,-74.04 877.25,-81.96 877.25,-81.96 877.25,-85.92 873.29,-89.88 869.33,-89.88"/>
<text text-anchor="middle" x="794.25" y="-72.58" font-family="Arial" font-size="14.00" fill="#ff6c60">eval/ast/pass1.suffixes.ts</text>
</g>
<!-- eval/ast/complete.ts&#45;&gt;eval/ast/pass1.suffixes.ts -->
<g id="edge1" class="edge">
<title>eval/ast/complete.ts&#45;&gt;eval/ast/pass1.suffixes.ts</title>
<path fill="none" stroke="#757575" d="M654.11,-105.67C674.95,-101.53 698.39,-96.87 720.01,-92.57"/>
<polygon fill="#757575" stroke="#757575" points="720.51,-96.03 729.64,-90.65 719.15,-89.17 720.51,-96.03"/>
</g>
<!-- eval/ast/pass2.implicits.ts -->
<g id="node3" class="node">
<title>eval/ast/pass2.implicits.ts</title>
<path fill="none" stroke="#ff6c60" d="M870.83,-169.88C870.83,-169.88 717.67,-169.88 717.67,-169.88 713.71,-169.88 709.75,-165.92 709.75,-161.96 709.75,-161.96 709.75,-154.04 709.75,-154.04 709.75,-150.08 713.71,-146.12 717.67,-146.12 717.67,-146.12 870.83,-146.12 870.83,-146.12 874.79,-146.12 878.75,-150.08 878.75,-154.04 878.75,-154.04 878.75,-161.96 878.75,-161.96 878.75,-165.92 874.79,-169.88 870.83,-169.88"/>
<text text-anchor="middle" x="794.25" y="-152.57" font-family="Arial" font-size="14.00" fill="#ff6c60">eval/ast/pass2.implicits.ts</text>
</g>
<!-- eval/ast/complete.ts&#45;&gt;eval/ast/pass2.implicits.ts -->
<g id="edge2" class="edge">
<title>eval/ast/complete.ts&#45;&gt;eval/ast/pass2.implicits.ts</title>
<path fill="none" stroke="#757575" d="M654.11,-130.33C674.95,-134.47 698.39,-139.13 720.01,-143.43"/>
<polygon fill="#757575" stroke="#757575" points="719.15,-146.83 729.64,-145.35 720.51,-139.97 719.15,-146.83"/>
</g>
<!-- field/model.ts -->
<g id="node4" class="node">
<title>field/model.ts</title>
<path fill="none" stroke="#ff6c60" d="M1003.08,-247.88C1003.08,-247.88 922.67,-247.88 922.67,-247.88 918.71,-247.88 914.75,-243.92 914.75,-239.96 914.75,-239.96 914.75,-232.04 914.75,-232.04 914.75,-228.08 918.71,-224.12 922.67,-224.12 922.67,-224.12 1003.08,-224.12 1003.08,-224.12 1007.04,-224.12 1011,-228.08 1011,-232.04 1011,-232.04 1011,-239.96 1011,-239.96 1011,-243.92 1007.04,-247.88 1003.08,-247.88"/>
<text text-anchor="middle" x="962.88" y="-230.57" font-family="Arial" font-size="14.00" fill="#ff6c60">field/model.ts</text>
</g>
<!-- eval/ast/pass1.suffixes.ts&#45;&gt;field/model.ts -->
<g id="edge3" class="edge">
<title>eval/ast/pass1.suffixes.ts&#45;&gt;field/model.ts</title>
<path fill="none" stroke="#757575" d="M853.57,-90.28C862.54,-93.78 871.29,-98.26 878.75,-104 916.28,-132.85 941.31,-183.84 953.42,-213.29"/>
<polygon fill="#757575" stroke="#757575" points="950.07,-214.35 957,-222.37 956.59,-211.78 950.07,-214.35"/>
</g>
<!-- eval/ast/pass2.implicits.ts&#45;&gt;field/model.ts -->
<g id="edge4" class="edge">
<title>eval/ast/pass2.implicits.ts&#45;&gt;field/model.ts</title>
<path fill="none" stroke="#757575" d="M842.42,-170.37C854.49,-174.16 867.3,-178.74 878.75,-184 898.86,-193.23 919.99,-206.5 935.91,-217.32"/>
<polygon fill="#757575" stroke="#757575" points="933.64,-220.01 943.85,-222.83 937.62,-214.25 933.64,-220.01"/>
</g>
<!-- field/model.ts&#45;&gt;eval/ast/complete.ts -->
<g id="edge14" class="edge">
<title>field/model.ts&#45;&gt;eval/ast/complete.ts</title>
<path fill="none" stroke="#757575" d="M955.91,-223.84C944.44,-201.95 916.98,-156.39 878.75,-137 814.29,-104.32 730.97,-102.55 670.79,-107.17"/>
<polygon fill="#757575" stroke="#757575" points="670.63,-103.67 660.96,-108 671.22,-110.64 670.63,-103.67"/>
</g>
<!-- eval/ast/tx.ts -->
<g id="node5" class="node">
<title>eval/ast/tx.ts</title>
<path fill="none" stroke="#ff6c60" d="M1000.46,-289.88C1000.46,-289.88 925.29,-289.88 925.29,-289.88 921.33,-289.88 917.38,-285.92 917.38,-281.96 917.38,-281.96 917.38,-274.04 917.38,-274.04 917.38,-270.08 921.33,-266.12 925.29,-266.12 925.29,-266.12 1000.46,-266.12 1000.46,-266.12 1004.42,-266.12 1008.38,-270.08 1008.38,-274.04 1008.38,-274.04 1008.38,-281.96 1008.38,-281.96 1008.38,-285.92 1004.42,-289.88 1000.46,-289.88"/>
<text text-anchor="middle" x="962.88" y="-272.57" font-family="Arial" font-size="14.00" fill="#ff6c60">eval/ast/tx.ts</text>
</g>
<!-- eval/glsl.ts -->
<g id="node6" class="node">
<title>eval/glsl.ts</title>
<path fill="none" stroke="#ff6c60" d="M1118.08,-289.88C1118.08,-289.88 1054.92,-289.88 1054.92,-289.88 1050.96,-289.88 1047,-285.92 1047,-281.96 1047,-281.96 1047,-274.04 1047,-274.04 1047,-270.08 1050.96,-266.12 1054.92,-266.12 1054.92,-266.12 1118.08,-266.12 1118.08,-266.12 1122.04,-266.12 1126,-270.08 1126,-274.04 1126,-274.04 1126,-281.96 1126,-281.96 1126,-285.92 1122.04,-289.88 1118.08,-289.88"/>
<text text-anchor="middle" x="1086.5" y="-272.57" font-family="Arial" font-size="14.00" fill="#ff6c60">eval/glsl.ts</text>
</g>
<!-- eval/ast/tx.ts&#45;&gt;eval/glsl.ts -->
<g id="edge5" class="edge">
<title>eval/ast/tx.ts&#45;&gt;eval/glsl.ts</title>
<path fill="none" stroke="#757575" d="M1008.82,-271.46C1017.48,-271.23 1026.59,-271.19 1035.4,-271.34"/>
<polygon fill="#757575" stroke="#757575" points="1035.13,-274.84 1045.23,-271.62 1035.33,-267.84 1035.13,-274.84"/>
</g>
<!-- eval/js.ts -->
<g id="node7" class="node">
<title>eval/js.ts</title>
<path fill="none" stroke="#ff6c60" d="M1112.83,-148.88C1112.83,-148.88 1060.17,-148.88 1060.17,-148.88 1056.21,-148.88 1052.25,-144.92 1052.25,-140.96 1052.25,-140.96 1052.25,-133.04 1052.25,-133.04 1052.25,-129.08 1056.21,-125.12 1060.17,-125.12 1060.17,-125.12 1112.83,-125.12 1112.83,-125.12 1116.79,-125.12 1120.75,-129.08 1120.75,-133.04 1120.75,-133.04 1120.75,-140.96 1120.75,-140.96 1120.75,-144.92 1116.79,-148.88 1112.83,-148.88"/>
<text text-anchor="middle" x="1086.5" y="-131.57" font-family="Arial" font-size="14.00" fill="#ff6c60">eval/js.ts</text>
</g>
<!-- eval/ast/tx.ts&#45;&gt;eval/js.ts -->
<g id="edge6" class="edge">
<title>eval/ast/tx.ts&#45;&gt;eval/js.ts</title>
<path fill="none" stroke="#757575" d="M980.06,-265.7C989.84,-261.11 1002.09,-255.77 1011,-248 1039.69,-222.98 1060.98,-184.18 1073.29,-159.52"/>
<polygon fill="#757575" stroke="#757575" points="1076.38,-161.16 1077.65,-150.64 1070.1,-158.08 1076.38,-161.16"/>
</g>
<!-- eval/glsl.ts&#45;&gt;eval/ast/tx.ts -->
<g id="edge7" class="edge">
<title>eval/glsl.ts&#45;&gt;eval/ast/tx.ts</title>
<path fill="none" stroke="#757575" d="M1046.74,-284.34C1038.26,-284.67 1029.11,-284.8 1020.1,-284.73"/>
<polygon fill="#757575" stroke="#757575" points="1020.39,-281.24 1010.33,-284.57 1020.27,-288.24 1020.39,-281.24"/>
</g>
<!-- eval/js.ts&#45;&gt;eval/ast/tx.ts -->
<g id="edge8" class="edge">
<title>eval/js.ts&#45;&gt;eval/ast/tx.ts</title>
<path fill="none" stroke="#757575" d="M1082.56,-149.08C1074.93,-172.96 1052.7,-224.66 1016.86,-260.27"/>
<polygon fill="#757575" stroke="#757575" points="1014.54,-257.65 1009.6,-267.03 1019.3,-262.78 1014.54,-257.65"/>
</g>
<!-- field/cmd/leaf/num.ts -->
<g id="node8" class="node">
<title>field/cmd/leaf/num.ts</title>
<path fill="none" stroke="#ff6c60" d="M653.83,-405.88C653.83,-405.88 528.42,-405.88 528.42,-405.88 524.46,-405.88 520.5,-401.92 520.5,-397.96 520.5,-397.96 520.5,-390.04 520.5,-390.04 520.5,-386.08 524.46,-382.12 528.42,-382.12 528.42,-382.12 653.83,-382.12 653.83,-382.12 657.79,-382.12 661.75,-386.08 661.75,-390.04 661.75,-390.04 661.75,-397.96 661.75,-397.96 661.75,-401.92 657.79,-405.88 653.83,-405.88"/>
<text text-anchor="middle" x="591.12" y="-388.57" font-family="Arial" font-size="14.00" fill="#ff6c60">field/cmd/leaf/num.ts</text>
</g>
<!-- field/cmd/leaf/num.ts&#45;&gt;field/model.ts -->
<g id="edge10" class="edge">
<title>field/cmd/leaf/num.ts&#45;&gt;field/model.ts</title>
<path fill="none" stroke="#757575" d="M662.14,-395.11C736.11,-394.84 846.43,-389.88 878.75,-364 917.91,-332.64 880.99,-294.12 914.75,-257 915.34,-256.35 915.95,-255.73 916.58,-255.12"/>
<polygon fill="#757575" stroke="#757575" points="918.68,-257.92 924.56,-249.1 914.46,-252.33 918.68,-257.92"/>
</g>
<!-- field/cmd/leaf/var.ts -->
<g id="node9" class="node">
<title>field/cmd/leaf/var.ts</title>
<path fill="none" stroke="#ff6c60" d="M852.46,-439.88C852.46,-439.88 736.04,-439.88 736.04,-439.88 732.08,-439.88 728.12,-435.92 728.12,-431.96 728.12,-431.96 728.12,-424.04 728.12,-424.04 728.12,-420.08 732.08,-416.12 736.04,-416.12 736.04,-416.12 852.46,-416.12 852.46,-416.12 856.42,-416.12 860.38,-420.08 860.38,-424.04 860.38,-424.04 860.38,-431.96 860.38,-431.96 860.38,-435.92 856.42,-439.88 852.46,-439.88"/>
<text text-anchor="middle" x="794.25" y="-422.57" font-family="Arial" font-size="14.00" fill="#ff6c60">field/cmd/leaf/var.ts</text>
</g>
<!-- field/cmd/leaf/num.ts&#45;&gt;field/cmd/leaf/var.ts -->
<g id="edge9" class="edge">
<title>field/cmd/leaf/num.ts&#45;&gt;field/cmd/leaf/var.ts</title>
<path fill="none" stroke="#757575" d="M662.19,-399.38C688.42,-403.31 717.7,-408.42 741.93,-413.35"/>
<polygon fill="#757575" stroke="#757575" points="741.04,-416.74 751.54,-415.36 742.47,-409.89 741.04,-416.74"/>
</g>
<!-- field/cmd/leaf/var.ts&#45;&gt;field/model.ts -->
<g id="edge13" class="edge">
<title>field/cmd/leaf/var.ts&#45;&gt;field/model.ts</title>
<path fill="none" stroke="#757575" d="M859.49,-415.72C866.67,-412.23 873.33,-407.74 878.75,-402 924.31,-353.69 872.1,-307.89 914.75,-257 915.2,-256.46 915.67,-255.94 916.15,-255.43"/>
<polygon fill="#757575" stroke="#757575" points="918.28,-258.21 923.85,-249.19 913.88,-252.76 918.28,-258.21"/>
</g>
<!-- field/cmd/leaf/var.ts&#45;&gt;eval/ast/tx.ts -->
<g id="edge11" class="edge">
<title>field/cmd/leaf/var.ts&#45;&gt;eval/ast/tx.ts</title>
<path fill="none" stroke="#757575" d="M853,-415.7C862.13,-412.2 871.08,-407.72 878.75,-402 914.53,-375.3 939.8,-328.38 952.5,-300.55"/>
<polygon fill="#757575" stroke="#757575" points="955.6,-302.18 956.42,-291.62 949.19,-299.37 955.6,-302.18"/>
</g>
<!-- field/cmd/leaf/var.ts&#45;&gt;field/cmd/leaf/num.ts -->
<g id="edge12" class="edge">
<title>field/cmd/leaf/var.ts&#45;&gt;field/cmd/leaf/num.ts</title>
<path fill="none" stroke="#757575" d="M727.77,-423.3C700.37,-419.28 669,-413.85 643.33,-408.62"/>
<polygon fill="#757575" stroke="#757575" points="644.33,-405.26 633.82,-406.64 642.89,-412.11 644.33,-405.26"/>
</g>
<!-- sheet/item.ts -->
<g id="node10" class="node">
<title>sheet/item.ts</title>
<path fill="none" stroke="#ff6c60" d="M284.33,-367.88C284.33,-367.88 206.92,-367.88 206.92,-367.88 202.96,-367.88 199,-363.92 199,-359.96 199,-359.96 199,-352.04 199,-352.04 199,-348.08 202.96,-344.12 206.92,-344.12 206.92,-344.12 284.33,-344.12 284.33,-344.12 288.29,-344.12 292.25,-348.08 292.25,-352.04 292.25,-352.04 292.25,-359.96 292.25,-359.96 292.25,-363.92 288.29,-367.88 284.33,-367.88"/>
<text text-anchor="middle" x="245.62" y="-350.57" font-family="Arial" font-size="14.00" fill="#ff6c60">sheet/item.ts</text>
</g>
<!-- sheet/item.ts&#45;&gt;field/model.ts -->
<g id="edge15" class="edge">
<title>sheet/item.ts&#45;&gt;field/model.ts</title>
<path fill="none" stroke="#757575" d="M292.42,-358.78C420.83,-365.71 781.3,-379.12 878.75,-318 905.42,-301.27 891.26,-277.96 914.75,-257 915.8,-256.06 916.9,-255.16 918.04,-254.29"/>
<polygon fill="#757575" stroke="#757575" points="919.57,-257.47 926.11,-249.13 915.8,-251.57 919.57,-257.47"/>
</g>
<!-- sheet/ui/expr/index.ts -->
<g id="node11" class="node">
<title>sheet/ui/expr/index.ts</title>
<path fill="none" stroke="#ff6c60" d="M135.58,-327.88C135.58,-327.88 7.92,-327.88 7.92,-327.88 3.96,-327.88 0,-323.92 0,-319.96 0,-319.96 0,-312.04 0,-312.04 0,-308.08 3.96,-304.12 7.92,-304.12 7.92,-304.12 135.58,-304.12 135.58,-304.12 139.54,-304.12 143.5,-308.08 143.5,-312.04 143.5,-312.04 143.5,-319.96 143.5,-319.96 143.5,-323.92 139.54,-327.88 135.58,-327.88"/>
<text text-anchor="middle" x="71.75" y="-310.57" font-family="Arial" font-size="14.00" fill="#ff6c60">sheet/ui/expr/index.ts</text>
</g>
<!-- sheet/item.ts&#45;&gt;sheet/ui/expr/index.ts -->
<g id="edge16" class="edge">
<title>sheet/item.ts&#45;&gt;sheet/ui/expr/index.ts</title>
<path fill="none" stroke="#757575" d="M198.75,-351.37C172.36,-346.22 139.46,-338.51 113.9,-331.44"/>
<polygon fill="#757575" stroke="#757575" points="115.11,-328.14 104.54,-328.77 113.19,-334.87 115.11,-328.14"/>
</g>
<!-- sheet/ui/expr/index.ts&#45;&gt;field/model.ts -->
<g id="edge28" class="edge">
<title>sheet/ui/expr/index.ts&#45;&gt;field/model.ts</title>
<path fill="none" stroke="#757575" d="M103.24,-303.68C161.6,-281.23 293.57,-236 409.12,-236 409.12,-236 409.12,-236 592.12,-236 701.96,-236 830.14,-236 903.08,-236"/>
<polygon fill="#757575" stroke="#757575" points="902.79,-239.5 912.79,-236 902.79,-232.5 902.79,-239.5"/>
</g>
<!-- sheet/ui/expr/index.ts&#45;&gt;eval/js.ts -->
<g id="edge26" class="edge">
<title>sheet/ui/expr/index.ts&#45;&gt;eval/js.ts</title>
<path fill="none" stroke="#757575" d="M78.07,-304C104.53,-246.28 228.04,0 409.12,0 409.12,0 409.12,0 795.25,0 894.21,0 926.2,-4 1011,-55 1036.29,-70.21 1058.03,-96.64 1071.38,-115.38"/>
<polygon fill="#757575" stroke="#757575" points="1068.34,-117.13 1076.89,-123.38 1074.1,-113.16 1068.34,-117.13"/>
</g>
<!-- sheet/ui/expr/index.ts&#45;&gt;field/cmd/leaf/var.ts -->
<g id="edge27" class="edge">
<title>sheet/ui/expr/index.ts&#45;&gt;field/cmd/leaf/var.ts</title>
<path fill="none" stroke="#757575" d="M89.12,-328.2C109.26,-342.5 145.02,-365.69 179.5,-377 364.83,-437.81 597.69,-437.85 716.23,-432.85"/>
<polygon fill="#757575" stroke="#757575" points="716.34,-436.35 726.17,-432.41 716.02,-429.36 716.34,-436.35"/>
</g>
<!-- sheet/ui/expr/index.ts&#45;&gt;sheet/item.ts -->
<g id="edge29" class="edge">
<title>sheet/ui/expr/index.ts&#45;&gt;sheet/item.ts</title>
<path fill="none" stroke="#757575" d="M143.65,-325.84C164.08,-330.34 185.67,-335.64 203.63,-340.61"/>
<polygon fill="#757575" stroke="#757575" points="202.54,-343.94 213.11,-343.32 204.46,-337.2 202.54,-343.94"/>
</g>
<!-- sheet/pick&#45;cursor.ts -->
<g id="node12" class="node">
<title>sheet/pick&#45;cursor.ts</title>
<path fill="none" stroke="#ff6c60" d="M303.83,-207.88C303.83,-207.88 187.42,-207.88 187.42,-207.88 183.46,-207.88 179.5,-203.92 179.5,-199.96 179.5,-199.96 179.5,-192.04 179.5,-192.04 179.5,-188.08 183.46,-184.12 187.42,-184.12 187.42,-184.12 303.83,-184.12 303.83,-184.12 307.79,-184.12 311.75,-188.08 311.75,-192.04 311.75,-192.04 311.75,-199.96 311.75,-199.96 311.75,-203.92 307.79,-207.88 303.83,-207.88"/>
<text text-anchor="middle" x="245.62" y="-190.57" font-family="Arial" font-size="14.00" fill="#ff6c60">sheet/pick&#45;cursor.ts</text>
</g>
<!-- sheet/ui/expr/index.ts&#45;&gt;sheet/pick&#45;cursor.ts -->
<g id="edge30" class="edge">
<title>sheet/ui/expr/index.ts&#45;&gt;sheet/pick&#45;cursor.ts</title>
<path fill="none" stroke="#757575" d="M83.85,-303.84C102.16,-284.35 140.57,-245.91 179.5,-222 185.02,-218.61 191.05,-215.51 197.15,-212.72"/>
<polygon fill="#757575" stroke="#757575" points="198.19,-216.08 206,-208.92 195.43,-209.65 198.19,-216.08"/>
</g>
<!-- sheet/pick&#45;cursor.ts&#45;&gt;field/model.ts -->
<g id="edge18" class="edge">
<title>sheet/pick&#45;cursor.ts&#45;&gt;field/model.ts</title>
<path fill="none" stroke="#757575" d="M311.88,-195.99C426.78,-196.56 672.55,-200.48 878.75,-222 886.76,-222.84 895.16,-223.96 903.42,-225.21"/>
<polygon fill="#757575" stroke="#757575" points="902.62,-228.62 913.05,-226.73 903.72,-221.71 902.62,-228.62"/>
</g>
<!-- sheet/pick&#45;cursor.ts&#45;&gt;eval/js.ts -->
<g id="edge17" class="edge">
<title>sheet/pick&#45;cursor.ts&#45;&gt;eval/js.ts</title>
<path fill="none" stroke="#757575" d="M260.93,-183.86C306.04,-146.87 450.64,-38 590.12,-38 590.12,-38 590.12,-38 795.25,-38 894.62,-38 1003.37,-90.62 1055.01,-119.14"/>
<polygon fill="#757575" stroke="#757575" points="1053.1,-122.08 1063.53,-123.92 1056.52,-115.97 1053.1,-122.08"/>
</g>
<!-- sheet/ui/cv/item.ts -->
<g id="node13" class="node">
<title>sheet/ui/cv/item.ts</title>
<path fill="none" stroke="#ff6c60" d="M464.58,-287.88C464.58,-287.88 355.67,-287.88 355.67,-287.88 351.71,-287.88 347.75,-283.92 347.75,-279.96 347.75,-279.96 347.75,-272.04 347.75,-272.04 347.75,-268.08 351.71,-264.12 355.67,-264.12 355.67,-264.12 464.58,-264.12 464.58,-264.12 468.54,-264.12 472.5,-268.08 472.5,-272.04 472.5,-272.04 472.5,-279.96 472.5,-279.96 472.5,-283.92 468.54,-287.88 464.58,-287.88"/>
<text text-anchor="middle" x="410.12" y="-270.57" font-family="Arial" font-size="14.00" fill="#ff6c60">sheet/ui/cv/item.ts</text>
</g>
<!-- sheet/pick&#45;cursor.ts&#45;&gt;sheet/ui/cv/item.ts -->
<g id="edge19" class="edge">
<title>sheet/pick&#45;cursor.ts&#45;&gt;sheet/ui/cv/item.ts</title>
<path fill="none" stroke="#757575" d="M271.66,-208.32C298.98,-221.77 342.92,-243.41 373.75,-258.59"/>
<polygon fill="#757575" stroke="#757575" points="372.19,-261.72 382.7,-262.99 375.28,-255.44 372.19,-261.72"/>
</g>
<!-- sheet/ui/cv/item.ts&#45;&gt;field/model.ts -->
<g id="edge24" class="edge">
<title>sheet/ui/cv/item.ts&#45;&gt;field/model.ts</title>
<path fill="none" stroke="#757575" d="M472.96,-274.75C562.63,-272.45 733.9,-266.17 878.75,-250 886.75,-249.11 895.15,-247.95 903.41,-246.69"/>
<polygon fill="#757575" stroke="#757575" points="903.71,-250.18 913.03,-245.15 902.61,-243.27 903.71,-250.18"/>
</g>
<!-- sheet/ui/cv/item&#45;virtual.ts -->
<g id="node14" class="node">
<title>sheet/ui/cv/item&#45;virtual.ts</title>
<path fill="none" stroke="#ff6c60" d="M665.83,-325.88C665.83,-325.88 516.42,-325.88 516.42,-325.88 512.46,-325.88 508.5,-321.92 508.5,-317.96 508.5,-317.96 508.5,-310.04 508.5,-310.04 508.5,-306.08 512.46,-302.12 516.42,-302.12 516.42,-302.12 665.83,-302.12 665.83,-302.12 669.79,-302.12 673.75,-306.08 673.75,-310.04 673.75,-310.04 673.75,-317.96 673.75,-317.96 673.75,-321.92 669.79,-325.88 665.83,-325.88"/>
<text text-anchor="middle" x="591.12" y="-308.57" font-family="Arial" font-size="14.00" fill="#ff6c60">sheet/ui/cv/item&#45;virtual.ts</text>
</g>
<!-- sheet/ui/cv/item.ts&#45;&gt;sheet/ui/cv/item&#45;virtual.ts -->
<g id="edge25" class="edge">
<title>sheet/ui/cv/item.ts&#45;&gt;sheet/ui/cv/item&#45;virtual.ts</title>
<path fill="none" stroke="#757575" d="M472.98,-282.68C497.07,-287.26 524.13,-293.19 546.17,-298.76"/>
<polygon fill="#757575" stroke="#757575" points="545.17,-302.12 555.73,-301.26 546.93,-295.35 545.17,-302.12"/>
</g>
<!-- sheet/ui/cv/item&#45;virtual.ts&#45;&gt;field/model.ts -->
<g id="edge21" class="edge">
<title>sheet/ui/cv/item&#45;virtual.ts&#45;&gt;field/model.ts</title>
<path fill="none" stroke="#757575" d="M674.09,-319.6C733.23,-320.59 813.76,-315.53 878.75,-288 898.19,-279.76 896.92,-268.31 914.75,-257 916.62,-255.81 918.57,-254.66 920.57,-253.54"/>
<polygon fill="#757575" stroke="#757575" points="922.14,-256.67 929.44,-248.99 918.94,-250.45 922.14,-256.67"/>
</g>
<!-- sheet/ui/cv/item&#45;virtual.ts&#45;&gt;field/cmd/leaf/var.ts -->
<g id="edge20" class="edge">
<title>sheet/ui/cv/item&#45;virtual.ts&#45;&gt;field/cmd/leaf/var.ts</title>
<path fill="none" stroke="#757575" d="M613.65,-326.2C649.24,-346.37 720.52,-386.78 761.78,-410.16"/>
<polygon fill="#757575" stroke="#757575" points="759.83,-413.08 770.26,-414.97 763.29,-406.99 759.83,-413.08"/>
</g>
<!-- sheet/ui/cv/item&#45;virtual.ts&#45;&gt;sheet/ui/expr/index.ts -->
<g id="edge23" class="edge">
<title>sheet/ui/cv/item&#45;virtual.ts&#45;&gt;sheet/ui/expr/index.ts</title>
<path fill="none" stroke="#757575" d="M508.29,-314.32C411.77,-314.69 252.23,-315.31 155.37,-315.68"/>
<polygon fill="#757575" stroke="#757575" points="155.37,-312.18 145.39,-315.72 155.4,-319.18 155.37,-312.18"/>
</g>
<!-- sheet/ui/cv/item&#45;virtual.ts&#45;&gt;sheet/ui/cv/item.ts -->
<g id="edge22" class="edge">
<title>sheet/ui/cv/item&#45;virtual.ts&#45;&gt;sheet/ui/cv/item.ts</title>
<path fill="none" stroke="#757575" d="M508.37,-303.37C489.86,-299.55 470.9,-295.24 454.69,-291.14"/>
<polygon fill="#757575" stroke="#757575" points="455.98,-287.86 445.42,-288.72 454.21,-294.63 455.98,-287.86"/>
</g>
</g>
</svg>
