<?xml version="1.0" encoding="UTF-8" standalone="no"?>
<!DOCTYPE svg PUBLIC "-//W3C//DTD SVG 1.1//EN"
 "http://www.w3.org/Graphics/SVG/1.1/DTD/svg11.dtd">
<!-- Generated by graphviz version 12.2.1 (20241206.2353)
 -->
<!-- Title: G Pages: 1 -->
<svg width="360pt" height="67pt"
 viewBox="0.00 0.00 360.20 66.95" xmlns="http://www.w3.org/2000/svg" xmlns:xlink="http://www.w3.org/1999/xlink">
<g id="graph0" class="graph" transform="scale(1 1) rotate(0) translate(21.6 45.35)">
<title>G</title>
<polygon fill="#111111" stroke="none" points="-21.6,21.6 -21.6,-45.35 338.6,-45.35 338.6,21.6 -21.6,21.6"/>
<!-- sheet/factory&#45;expr.ts -->
<g id="node1" class="node">
<title>sheet/factory&#45;expr.ts</title>
<path fill="none" stroke="#ff6c60" d="M129.58,-23.75C129.58,-23.75 7.92,-23.75 7.92,-23.75 3.96,-23.75 0,-19.79 0,-15.83 0,-15.83 0,-7.92 0,-7.92 0,-3.96 3.96,0 7.92,0 7.92,0 129.58,0 129.58,0 133.54,0 137.5,-3.96 137.5,-7.92 137.5,-7.92 137.5,-15.83 137.5,-15.83 137.5,-19.79 133.54,-23.75 129.58,-23.75"/>
<text text-anchor="middle" x="68.75" y="-6.45" font-family="Arial" font-size="14.00" fill="#ff6c60">sheet/factory&#45;expr.ts</text>
</g>
<!-- sheet/ui/expr/index.ts -->
<g id="node2" class="node">
<title>sheet/ui/expr/index.ts</title>
<path fill="none" stroke="#ff6c60" d="M309.08,-23.75C309.08,-23.75 181.42,-23.75 181.42,-23.75 177.46,-23.75 173.5,-19.79 173.5,-15.83 173.5,-15.83 173.5,-7.92 173.5,-7.92 173.5,-3.96 177.46,0 181.42,0 181.42,0 309.08,0 309.08,0 313.04,0 317,-3.96 317,-7.92 317,-7.92 317,-15.83 317,-15.83 317,-19.79 313.04,-23.75 309.08,-23.75"/>
<text text-anchor="middle" x="245.25" y="-6.45" font-family="Arial" font-size="14.00" fill="#ff6c60">sheet/ui/expr/index.ts</text>
</g>
<!-- sheet/factory&#45;expr.ts&#45;&gt;sheet/ui/expr/index.ts -->
<g id="edge1" class="edge">
<title>sheet/factory&#45;expr.ts&#45;&gt;sheet/ui/expr/index.ts</title>
<path fill="none" stroke="#757575" d="M137.97,-5.27C145.83,-5.15 153.91,-5.1 161.93,-5.13"/>
<polygon fill="#757575" stroke="#757575" points="161.66,-8.63 171.69,-5.22 161.72,-1.63 161.66,-8.63"/>
</g>
<!-- sheet/ui/expr/index.ts&#45;&gt;sheet/factory&#45;expr.ts -->
<g id="edge2" class="edge">
<title>sheet/ui/expr/index.ts&#45;&gt;sheet/factory&#45;expr.ts</title>
<path fill="none" stroke="#757575" d="M173.2,-18.52C165.39,-18.62 157.39,-18.65 149.47,-18.6"/>
<polygon fill="#757575" stroke="#757575" points="149.52,-15.1 139.48,-18.5 149.44,-22.1 149.52,-15.1"/>
</g>
</g>
</svg>
