<?xml version="1.0" encoding="UTF-8" standalone="no"?>
<!DOCTYPE svg PUBLIC "-//W3C//DTD SVG 1.1//EN"
 "http://www.w3.org/Graphics/SVG/1.1/DTD/svg11.dtd">
<!-- Generated by graphviz version 12.2.1 (20241206.2353)
 -->
<!-- Title: G Pages: 1 -->
<svg width="1124pt" height="1470pt"
 viewBox="0.00 0.00 1124.20 1469.54" xmlns="http://www.w3.org/2000/svg" xmlns:xlink="http://www.w3.org/1999/xlink">
<g id="graph0" class="graph" transform="scale(1 1) rotate(0) translate(21.6 1447.94)">
<title>G</title>
<polygon fill="#111111" stroke="none" points="-21.6,21.6 -21.6,-1447.94 1102.6,-1447.94 1102.6,21.6 -21.6,21.6"/>
<!-- 3d/point.ts -->
<g id="node1" class="node">
<title>3d/point.ts</title>
<path fill="none" stroke="#c6c5fe" d="M502.08,-99.34C502.08,-99.34 439.67,-99.34 439.67,-99.34 435.71,-99.34 431.75,-95.38 431.75,-91.42 431.75,-91.42 431.75,-83.51 431.75,-83.51 431.75,-79.55 435.71,-75.59 439.67,-75.59 439.67,-75.59 502.08,-75.59 502.08,-75.59 506.04,-75.59 510,-79.55 510,-83.51 510,-83.51 510,-91.42 510,-91.42 510,-95.38 506.04,-99.34 502.08,-99.34"/>
<text text-anchor="middle" x="470.88" y="-82.04" font-family="Arial" font-size="14.00" fill="#c6c5fe">3d/point.ts</text>
</g>
<!-- bool.ts -->
<g id="node2" class="node">
<title>bool.ts</title>
<path fill="none" stroke="#c6c5fe" d="M937.46,-117.34C937.46,-117.34 897.54,-117.34 897.54,-117.34 893.58,-117.34 889.62,-113.38 889.62,-109.42 889.62,-109.42 889.62,-101.51 889.62,-101.51 889.62,-97.55 893.58,-93.59 897.54,-93.59 897.54,-93.59 937.46,-93.59 937.46,-93.59 941.42,-93.59 945.38,-97.55 945.38,-101.51 945.38,-101.51 945.38,-109.42 945.38,-109.42 945.38,-113.38 941.42,-117.34 937.46,-117.34"/>
<text text-anchor="middle" x="917.5" y="-100.04" font-family="Arial" font-size="14.00" fill="#c6c5fe">bool.ts</text>
</g>
<!-- 3d/point.ts&#45;&gt;bool.ts -->
<g id="edge1" class="edge">
<title>3d/point.ts&#45;&gt;bool.ts</title>
<path fill="none" stroke="#757575" d="M510.21,-78.77C526.67,-75.46 546.18,-72.1 564,-70.47 686.38,-59.27 720.41,-45.37 840.5,-71.47 855.88,-74.81 871.93,-81.46 885.29,-88"/>
<polygon fill="#757575" stroke="#757575" points="883.52,-91.03 894.02,-92.46 886.71,-84.79 883.52,-91.03"/>
</g>
<!-- core/ops.ts -->
<g id="node3" class="node">
<title>core/ops.ts</title>
<path fill="none" stroke="#cfffac" d="M950.58,-469.34C950.58,-469.34 884.42,-469.34 884.42,-469.34 880.46,-469.34 876.5,-465.38 876.5,-461.42 876.5,-461.42 876.5,-453.51 876.5,-453.51 876.5,-449.55 880.46,-445.59 884.42,-445.59 884.42,-445.59 950.58,-445.59 950.58,-445.59 954.54,-445.59 958.5,-449.55 958.5,-453.51 958.5,-453.51 958.5,-461.42 958.5,-461.42 958.5,-465.38 954.54,-469.34 950.58,-469.34"/>
<text text-anchor="middle" x="917.5" y="-452.04" font-family="Arial" font-size="14.00" fill="#cfffac">core/ops.ts</text>
</g>
<!-- 3d/point.ts&#45;&gt;core/ops.ts -->
<g id="edge2" class="edge">
<title>3d/point.ts&#45;&gt;core/ops.ts</title>
<path fill="none" stroke="#757575" d="M510.35,-98.42C595.47,-123.39 795.79,-186.5 840.5,-239.47 889.92,-298 907.91,-390.65 913.85,-433.84"/>
<polygon fill="#757575" stroke="#757575" points="910.36,-434.13 915.09,-443.61 917.31,-433.25 910.36,-434.13"/>
</g>
<!-- geo/point.ts -->
<g id="node4" class="node">
<title>geo/point.ts</title>
<path fill="none" stroke="#c6c5fe" d="M669.21,-197.34C669.21,-197.34 599.29,-197.34 599.29,-197.34 595.33,-197.34 591.38,-193.38 591.38,-189.42 591.38,-189.42 591.38,-181.51 591.38,-181.51 591.38,-177.55 595.33,-173.59 599.29,-173.59 599.29,-173.59 669.21,-173.59 669.21,-173.59 673.17,-173.59 677.12,-177.55 677.12,-181.51 677.12,-181.51 677.12,-189.42 677.12,-189.42 677.12,-193.38 673.17,-197.34 669.21,-197.34"/>
<text text-anchor="middle" x="634.25" y="-180.04" font-family="Arial" font-size="14.00" fill="#c6c5fe">geo/point.ts</text>
</g>
<!-- 3d/point.ts&#45;&gt;geo/point.ts -->
<g id="edge3" class="edge">
<title>3d/point.ts&#45;&gt;geo/point.ts</title>
<path fill="none" stroke="#757575" d="M491.99,-99.68C520.01,-116.7 571.01,-147.67 603.46,-167.37"/>
<polygon fill="#757575" stroke="#757575" points="601.23,-170.11 611.59,-172.31 604.86,-164.13 601.23,-170.11"/>
</g>
<!-- num/real.ts -->
<g id="node5" class="node">
<title>num/real.ts</title>
<path fill="none" stroke="#c6c5fe" d="M824.33,-159.34C824.33,-159.34 756.67,-159.34 756.67,-159.34 752.71,-159.34 748.75,-155.38 748.75,-151.42 748.75,-151.42 748.75,-143.51 748.75,-143.51 748.75,-139.55 752.71,-135.59 756.67,-135.59 756.67,-135.59 824.33,-135.59 824.33,-135.59 828.29,-135.59 832.25,-139.55 832.25,-143.51 832.25,-143.51 832.25,-151.42 832.25,-151.42 832.25,-155.38 828.29,-159.34 824.33,-159.34"/>
<text text-anchor="middle" x="790.5" y="-142.04" font-family="Arial" font-size="14.00" fill="#c6c5fe">num/real.ts</text>
</g>
<!-- 3d/point.ts&#45;&gt;num/real.ts -->
<g id="edge4" class="edge">
<title>3d/point.ts&#45;&gt;num/real.ts</title>
<path fill="none" stroke="#757575" d="M510.18,-80.51C557.69,-73.64 640.26,-67.52 704.5,-93.47 724.63,-101.59 722.27,-114.69 740.5,-126.47 742.37,-127.67 744.31,-128.83 746.31,-129.95"/>
<polygon fill="#757575" stroke="#757575" points="744.7,-133.06 755.2,-134.48 747.88,-126.83 744.7,-133.06"/>
</g>
<!-- core/cmp.ts -->
<g id="node8" class="node">
<title>core/cmp.ts</title>
<path fill="none" stroke="#cfffac" d="M1073.08,-138.34C1073.08,-138.34 1002.42,-138.34 1002.42,-138.34 998.46,-138.34 994.5,-134.38 994.5,-130.42 994.5,-130.42 994.5,-122.51 994.5,-122.51 994.5,-118.55 998.46,-114.59 1002.42,-114.59 1002.42,-114.59 1073.08,-114.59 1073.08,-114.59 1077.04,-114.59 1081,-118.55 1081,-122.51 1081,-122.51 1081,-130.42 1081,-130.42 1081,-134.38 1077.04,-138.34 1073.08,-138.34"/>
<text text-anchor="middle" x="1037.75" y="-121.04" font-family="Arial" font-size="14.00" fill="#cfffac">core/cmp.ts</text>
</g>
<!-- bool.ts&#45;&gt;core/cmp.ts -->
<g id="edge10" class="edge">
<title>bool.ts&#45;&gt;core/cmp.ts</title>
<path fill="none" stroke="#757575" d="M945.63,-110.28C956.81,-112.27 970.17,-114.64 983.18,-116.95"/>
<polygon fill="#757575" stroke="#757575" points="982.5,-120.39 992.96,-118.69 983.72,-113.49 982.5,-120.39"/>
</g>
<!-- geo/point.ts&#45;&gt;bool.ts -->
<g id="edge28" class="edge">
<title>geo/point.ts&#45;&gt;bool.ts</title>
<path fill="none" stroke="#757575" d="M643,-173.44C658.36,-150.85 695.15,-102.7 740.5,-84.47 785.52,-66.36 841.85,-78.53 878.48,-90.54"/>
<polygon fill="#757575" stroke="#757575" points="877.16,-93.79 887.75,-93.74 879.44,-87.17 877.16,-93.79"/>
</g>
<!-- geo/point.ts&#45;&gt;core/ops.ts -->
<g id="edge29" class="edge">
<title>geo/point.ts&#45;&gt;core/ops.ts</title>
<path fill="none" stroke="#757575" d="M658.57,-197.65C679.84,-208.72 712.17,-225.4 740.5,-239.47 784.66,-261.39 806.12,-252.14 840.5,-287.47 881.65,-329.74 902.75,-398.13 911.48,-433.92"/>
<polygon fill="#757575" stroke="#757575" points="908.06,-434.69 913.72,-443.65 914.88,-433.12 908.06,-434.69"/>
</g>
<!-- geo/point.ts&#45;&gt;num/real.ts -->
<g id="edge31" class="edge">
<title>geo/point.ts&#45;&gt;num/real.ts</title>
<path fill="none" stroke="#757575" d="M677.4,-175.08C695.89,-170.53 717.79,-165.13 737.3,-160.33"/>
<polygon fill="#757575" stroke="#757575" points="738.13,-163.73 747,-157.94 736.45,-156.93 738.13,-163.73"/>
</g>
<!-- eval.ts -->
<g id="node16" class="node">
<title>eval.ts</title>
<path fill="none" stroke="#cfffac" d="M810.08,-625.34C810.08,-625.34 770.92,-625.34 770.92,-625.34 766.96,-625.34 763,-621.38 763,-617.42 763,-617.42 763,-609.51 763,-609.51 763,-605.55 766.96,-601.59 770.92,-601.59 770.92,-601.59 810.08,-601.59 810.08,-601.59 814.04,-601.59 818,-605.55 818,-609.51 818,-609.51 818,-617.42 818,-617.42 818,-621.38 814.04,-625.34 810.08,-625.34"/>
<text text-anchor="middle" x="790.5" y="-608.04" font-family="Arial" font-size="14.00" fill="#cfffac">eval.ts</text>
</g>
<!-- geo/point.ts&#45;&gt;eval.ts -->
<g id="edge30" class="edge">
<title>geo/point.ts&#45;&gt;eval.ts</title>
<path fill="none" stroke="#757575" d="M639.7,-197.81C661.08,-257.13 753.35,-513.15 781.39,-590.95"/>
<polygon fill="#757575" stroke="#757575" points="777.98,-591.83 784.67,-600.05 784.57,-589.46 777.98,-591.83"/>
</g>
<!-- num/real.ts&#45;&gt;bool.ts -->
<g id="edge41" class="edge">
<title>num/real.ts&#45;&gt;bool.ts</title>
<path fill="none" stroke="#757575" d="M828.33,-135.09C844.24,-129.74 862.85,-123.49 878.85,-118.11"/>
<polygon fill="#757575" stroke="#757575" points="879.65,-121.54 888.02,-115.03 877.43,-114.9 879.65,-121.54"/>
</g>
<!-- num/real.ts&#45;&gt;core/ops.ts -->
<g id="edge43" class="edge">
<title>num/real.ts&#45;&gt;core/ops.ts</title>
<path fill="none" stroke="#757575" d="M803.09,-159.78C814.07,-172.04 830.36,-191.82 840.5,-211.47 880.05,-288.07 903.14,-388.88 912.13,-433.94"/>
<polygon fill="#757575" stroke="#757575" points="908.67,-434.46 914,-443.62 915.54,-433.13 908.67,-434.46"/>
</g>
<!-- num/real.ts&#45;&gt;core/cmp.ts -->
<g id="edge42" class="edge">
<title>num/real.ts&#45;&gt;core/cmp.ts</title>
<path fill="none" stroke="#757575" d="M832.55,-143.95C873.82,-140.42 937.65,-134.95 982.95,-131.07"/>
<polygon fill="#757575" stroke="#757575" points="983.16,-134.57 992.82,-130.23 982.56,-127.59 983.16,-134.57"/>
</g>
<!-- 4d/point.ts -->
<g id="node6" class="node">
<title>4d/point.ts</title>
<path fill="none" stroke="#c6c5fe" d="M325.21,-99.34C325.21,-99.34 262.79,-99.34 262.79,-99.34 258.83,-99.34 254.88,-95.38 254.88,-91.42 254.88,-91.42 254.88,-83.51 254.88,-83.51 254.88,-79.55 258.83,-75.59 262.79,-75.59 262.79,-75.59 325.21,-75.59 325.21,-75.59 329.17,-75.59 333.12,-79.55 333.12,-83.51 333.12,-83.51 333.12,-91.42 333.12,-91.42 333.12,-95.38 329.17,-99.34 325.21,-99.34"/>
<text text-anchor="middle" x="294" y="-82.04" font-family="Arial" font-size="14.00" fill="#c6c5fe">4d/point.ts</text>
</g>
<!-- 4d/point.ts&#45;&gt;3d/point.ts -->
<g id="edge5" class="edge">
<title>4d/point.ts&#45;&gt;3d/point.ts</title>
<path fill="none" stroke="#757575" d="M333.38,-87.47C358.8,-87.47 392.41,-87.47 419.91,-87.47"/>
<polygon fill="#757575" stroke="#757575" points="419.77,-90.97 429.77,-87.47 419.77,-83.97 419.77,-90.97"/>
</g>
<!-- 4d/point.ts&#45;&gt;bool.ts -->
<g id="edge6" class="edge">
<title>4d/point.ts&#45;&gt;bool.ts</title>
<path fill="none" stroke="#757575" d="M314.2,-75.13C336.92,-61.34 376.38,-39.83 413.75,-31.47 599.08,10.04 664.14,17.02 840.5,-53.47 860.11,-61.3 879.71,-74.89 894.1,-86.21"/>
<polygon fill="#757575" stroke="#757575" points="891.6,-88.7 901.57,-92.29 896.02,-83.27 891.6,-88.7"/>
</g>
<!-- 4d/point.ts&#45;&gt;core/ops.ts -->
<g id="edge7" class="edge">
<title>4d/point.ts&#45;&gt;core/ops.ts</title>
<path fill="none" stroke="#757575" d="M300.35,-99.76C314.19,-129.97 354.3,-208.04 413.75,-244.47 495.88,-294.79 762.12,-264.47 840.5,-320.47 879.58,-348.38 900.9,-402.96 910.38,-434.14"/>
<polygon fill="#757575" stroke="#757575" points="907.01,-435.1 913.12,-443.75 913.74,-433.17 907.01,-435.1"/>
</g>
<!-- 4d/point.ts&#45;&gt;geo/point.ts -->
<g id="edge8" class="edge">
<title>4d/point.ts&#45;&gt;geo/point.ts</title>
<path fill="none" stroke="#757575" d="M333.47,-98.61C394,-116.15 511.6,-150.22 580.14,-170.08"/>
<polygon fill="#757575" stroke="#757575" points="579.08,-173.41 589.66,-172.84 581.03,-166.69 579.08,-173.41"/>
</g>
<!-- 4d/point.ts&#45;&gt;num/real.ts -->
<g id="edge9" class="edge">
<title>4d/point.ts&#45;&gt;num/real.ts</title>
<path fill="none" stroke="#757575" d="M328.22,-75.11C401.61,-50.02 580.84,-1.12 704.5,-70.47 730.31,-84.94 717.91,-107.35 740.5,-126.47 741.61,-127.41 742.77,-128.31 743.97,-129.18"/>
<polygon fill="#757575" stroke="#757575" points="742.11,-132.14 752.46,-134.38 745.76,-126.17 742.11,-132.14"/>
</g>
<!-- base.ts -->
<g id="node7" class="node">
<title>base.ts</title>
<path fill="none" stroke="#cfffac" d="M108.96,-589.34C108.96,-589.34 65.29,-589.34 65.29,-589.34 61.33,-589.34 57.38,-585.38 57.38,-581.42 57.38,-581.42 57.38,-573.51 57.38,-573.51 57.38,-569.55 61.33,-565.59 65.29,-565.59 65.29,-565.59 108.96,-565.59 108.96,-565.59 112.92,-565.59 116.88,-569.55 116.88,-573.51 116.88,-573.51 116.88,-581.42 116.88,-581.42 116.88,-585.38 112.92,-589.34 108.96,-589.34"/>
<text text-anchor="middle" x="87.12" y="-572.04" font-family="Arial" font-size="14.00" fill="#cfffac">base.ts</text>
</g>
<!-- chem/elements.ts -->
<g id="node9" class="node">
<title>chem/elements.ts</title>
<path fill="none" stroke="#c6c5fe" d="M687.96,-767.34C687.96,-767.34 580.54,-767.34 580.54,-767.34 576.58,-767.34 572.62,-763.38 572.62,-759.42 572.62,-759.42 572.62,-751.51 572.62,-751.51 572.62,-747.55 576.58,-743.59 580.54,-743.59 580.54,-743.59 687.96,-743.59 687.96,-743.59 691.92,-743.59 695.88,-747.55 695.88,-751.51 695.88,-751.51 695.88,-759.42 695.88,-759.42 695.88,-763.38 691.92,-767.34 687.96,-767.34"/>
<text text-anchor="middle" x="634.25" y="-750.04" font-family="Arial" font-size="14.00" fill="#c6c5fe">chem/elements.ts</text>
</g>
<!-- unit/pkg.ts -->
<g id="node10" class="node">
<title>unit/pkg.ts</title>
<path fill="none" stroke="#c6c5fe" d="M821.33,-767.34C821.33,-767.34 759.67,-767.34 759.67,-767.34 755.71,-767.34 751.75,-763.38 751.75,-759.42 751.75,-759.42 751.75,-751.51 751.75,-751.51 751.75,-747.55 755.71,-743.59 759.67,-743.59 759.67,-743.59 821.33,-743.59 821.33,-743.59 825.29,-743.59 829.25,-747.55 829.25,-751.51 829.25,-751.51 829.25,-759.42 829.25,-759.42 829.25,-763.38 825.29,-767.34 821.33,-767.34"/>
<text text-anchor="middle" x="790.5" y="-750.04" font-family="Arial" font-size="14.00" fill="#c6c5fe">unit/pkg.ts</text>
</g>
<!-- chem/elements.ts&#45;&gt;unit/pkg.ts -->
<g id="edge11" class="edge">
<title>chem/elements.ts&#45;&gt;unit/pkg.ts</title>
<path fill="none" stroke="#757575" d="M696.21,-755.47C710.82,-755.47 726.23,-755.47 740.23,-755.47"/>
<polygon fill="#757575" stroke="#757575" points="740.1,-758.97 750.1,-755.47 740.1,-751.97 740.1,-758.97"/>
</g>
<!-- unit/pkg.ts&#45;&gt;core/ops.ts -->
<g id="edge54" class="edge">
<title>unit/pkg.ts&#45;&gt;core/ops.ts</title>
<path fill="none" stroke="#757575" d="M823.81,-743.14C830.05,-739.53 836.03,-735.02 840.5,-729.47 901.58,-653.58 913.63,-531.67 915.96,-480.87"/>
<polygon fill="#757575" stroke="#757575" points="919.45,-481.19 916.32,-471.07 912.46,-480.93 919.45,-481.19"/>
</g>
<!-- color/core.ts -->
<g id="node11" class="node">
<title>color/core.ts</title>
<path fill="none" stroke="#c6c5fe" d="M671.08,-429.34C671.08,-429.34 597.42,-429.34 597.42,-429.34 593.46,-429.34 589.5,-425.38 589.5,-421.42 589.5,-421.42 589.5,-413.51 589.5,-413.51 589.5,-409.55 593.46,-405.59 597.42,-405.59 597.42,-405.59 671.08,-405.59 671.08,-405.59 675.04,-405.59 679,-409.55 679,-413.51 679,-413.51 679,-421.42 679,-421.42 679,-425.38 675.04,-429.34 671.08,-429.34"/>
<text text-anchor="middle" x="634.25" y="-412.04" font-family="Arial" font-size="14.00" fill="#c6c5fe">color/core.ts</text>
</g>
<!-- color/core.ts&#45;&gt;core/ops.ts -->
<g id="edge12" class="edge">
<title>color/core.ts&#45;&gt;core/ops.ts</title>
<path fill="none" stroke="#757575" d="M679.39,-422.33C721.03,-427.09 785.13,-434.87 840.5,-443.47 848.52,-444.71 857,-446.15 865.26,-447.62"/>
<polygon fill="#757575" stroke="#757575" points="864.39,-451.02 874.85,-449.36 865.64,-444.13 864.39,-451.02"/>
</g>
<!-- color/extras.ts -->
<g id="node12" class="node">
<title>color/extras.ts</title>
<path fill="none" stroke="#c6c5fe" d="M832.58,-117.34C832.58,-117.34 748.42,-117.34 748.42,-117.34 744.46,-117.34 740.5,-113.38 740.5,-109.42 740.5,-109.42 740.5,-101.51 740.5,-101.51 740.5,-97.55 744.46,-93.59 748.42,-93.59 748.42,-93.59 832.58,-93.59 832.58,-93.59 836.54,-93.59 840.5,-97.55 840.5,-101.51 840.5,-101.51 840.5,-109.42 840.5,-109.42 840.5,-113.38 836.54,-117.34 832.58,-117.34"/>
<text text-anchor="middle" x="790.5" y="-100.04" font-family="Arial" font-size="14.00" fill="#c6c5fe">color/extras.ts</text>
</g>
<!-- color/extras.ts&#45;&gt;bool.ts -->
<g id="edge13" class="edge">
<title>color/extras.ts&#45;&gt;bool.ts</title>
<path fill="none" stroke="#757575" d="M840.9,-105.47C853.29,-105.47 866.39,-105.47 878.15,-105.47"/>
<polygon fill="#757575" stroke="#757575" points="877.87,-108.97 887.87,-105.47 877.87,-101.97 877.87,-108.97"/>
</g>
<!-- core/fn.ts -->
<g id="node13" class="node">
<title>core/fn.ts</title>
<path fill="none" stroke="#c6c5fe" d="M818.33,-353.34C818.33,-353.34 762.67,-353.34 762.67,-353.34 758.71,-353.34 754.75,-349.38 754.75,-345.42 754.75,-345.42 754.75,-337.51 754.75,-337.51 754.75,-333.55 758.71,-329.59 762.67,-329.59 762.67,-329.59 818.33,-329.59 818.33,-329.59 822.29,-329.59 826.25,-333.55 826.25,-337.51 826.25,-337.51 826.25,-345.42 826.25,-345.42 826.25,-349.38 822.29,-353.34 818.33,-353.34"/>
<text text-anchor="middle" x="790.5" y="-336.04" font-family="Arial" font-size="14.00" fill="#c6c5fe">core/fn.ts</text>
</g>
<!-- core/fn.ts&#45;&gt;core/ops.ts -->
<g id="edge14" class="edge">
<title>core/fn.ts&#45;&gt;core/ops.ts</title>
<path fill="none" stroke="#757575" d="M819.1,-353.76C826.41,-357.63 834.05,-362.27 840.5,-367.47 865.17,-387.36 887.83,-416.15 901.86,-435.78"/>
<polygon fill="#757575" stroke="#757575" points="898.92,-437.68 907.52,-443.87 904.66,-433.67 898.92,-437.68"/>
</g>
<!-- data/distributions.ts -->
<g id="node14" class="node">
<title>data/distributions.ts</title>
<path fill="none" stroke="#c6c5fe" d="M352.21,-605.34C352.21,-605.34 235.79,-605.34 235.79,-605.34 231.83,-605.34 227.88,-601.38 227.88,-597.42 227.88,-597.42 227.88,-589.51 227.88,-589.51 227.88,-585.55 231.83,-581.59 235.79,-581.59 235.79,-581.59 352.21,-581.59 352.21,-581.59 356.17,-581.59 360.12,-585.55 360.12,-589.51 360.12,-589.51 360.12,-597.42 360.12,-597.42 360.12,-601.38 356.17,-605.34 352.21,-605.34"/>
<text text-anchor="middle" x="294" y="-588.04" font-family="Arial" font-size="14.00" fill="#c6c5fe">data/distributions.ts</text>
</g>
<!-- data/distributions.ts&#45;&gt;core/ops.ts -->
<g id="edge15" class="edge">
<title>data/distributions.ts&#45;&gt;core/ops.ts</title>
<path fill="none" stroke="#757575" d="M360.5,-592.26C486.61,-589.01 757.97,-577.24 840.5,-535.47 866.26,-522.42 888.33,-497.18 901.95,-478.94"/>
<polygon fill="#757575" stroke="#757575" points="904.75,-481.04 907.73,-470.88 899.06,-476.96 904.75,-481.04"/>
</g>
<!-- data/statistics.ts -->
<g id="node15" class="node">
<title>data/statistics.ts</title>
<path fill="none" stroke="#c6c5fe" d="M682.33,-665.34C682.33,-665.34 586.17,-665.34 586.17,-665.34 582.21,-665.34 578.25,-661.38 578.25,-657.42 578.25,-657.42 578.25,-649.51 578.25,-649.51 578.25,-645.55 582.21,-641.59 586.17,-641.59 586.17,-641.59 682.33,-641.59 682.33,-641.59 686.29,-641.59 690.25,-645.55 690.25,-649.51 690.25,-649.51 690.25,-657.42 690.25,-657.42 690.25,-661.38 686.29,-665.34 682.33,-665.34"/>
<text text-anchor="middle" x="634.25" y="-648.04" font-family="Arial" font-size="14.00" fill="#c6c5fe">data/statistics.ts</text>
</g>
<!-- data/distributions.ts&#45;&gt;data/statistics.ts -->
<g id="edge16" class="edge">
<title>data/distributions.ts&#45;&gt;data/statistics.ts</title>
<path fill="none" stroke="#757575" d="M333.69,-605.79C356.74,-612.73 386.68,-621.07 413.75,-626.47 464.56,-636.59 522.79,-643.54 566.51,-647.86"/>
<polygon fill="#757575" stroke="#757575" points="566.07,-651.33 576.35,-648.8 566.74,-644.36 566.07,-651.33"/>
</g>
<!-- data/distributions.ts&#45;&gt;eval.ts -->
<g id="edge17" class="edge">
<title>data/distributions.ts&#45;&gt;eval.ts</title>
<path fill="none" stroke="#757575" d="M360.41,-596.11C465.1,-600.34 667.04,-608.51 751.21,-611.92"/>
<polygon fill="#757575" stroke="#757575" points="750.87,-615.41 761,-612.31 751.15,-608.41 750.87,-615.41"/>
</g>
<!-- num/complex.ts -->
<g id="node17" class="node">
<title>num/complex.ts</title>
<path fill="none" stroke="#c6c5fe" d="M518.96,-386.34C518.96,-386.34 422.79,-386.34 422.79,-386.34 418.83,-386.34 414.88,-382.38 414.88,-378.42 414.88,-378.42 414.88,-370.51 414.88,-370.51 414.88,-366.55 418.83,-362.59 422.79,-362.59 422.79,-362.59 518.96,-362.59 518.96,-362.59 522.92,-362.59 526.88,-366.55 526.88,-370.51 526.88,-370.51 526.88,-378.42 526.88,-378.42 526.88,-382.38 522.92,-386.34 518.96,-386.34"/>
<text text-anchor="middle" x="470.88" y="-369.04" font-family="Arial" font-size="14.00" fill="#c6c5fe">num/complex.ts</text>
</g>
<!-- data/distributions.ts&#45;&gt;num/complex.ts -->
<g id="edge18" class="edge">
<title>data/distributions.ts&#45;&gt;num/complex.ts</title>
<path fill="none" stroke="#757575" d="M334.39,-581.19C350.02,-574.45 366.83,-564.54 377.75,-550.47 421.1,-494.59 367.09,-448.61 413.75,-395.47 414.32,-394.82 414.9,-394.19 415.51,-393.59"/>
<polygon fill="#757575" stroke="#757575" points="417.4,-396.55 423.17,-387.67 413.12,-391.02 417.4,-396.55"/>
</g>
<!-- data/statistics.ts&#45;&gt;core/ops.ts -->
<g id="edge22" class="edge">
<title>data/statistics.ts&#45;&gt;core/ops.ts</title>
<path fill="none" stroke="#757575" d="M690.7,-662.76C735.34,-667.11 797.52,-665.72 840.5,-634.47 891.26,-597.55 908.44,-519.62 914,-480.66"/>
<polygon fill="#757575" stroke="#757575" points="917.44,-481.35 915.23,-470.99 910.49,-480.46 917.44,-481.35"/>
</g>
<!-- data/statistics.ts&#45;&gt;eval.ts -->
<g id="edge23" class="edge">
<title>data/statistics.ts&#45;&gt;eval.ts</title>
<path fill="none" stroke="#757575" d="M682.79,-641.14C704.9,-635.4 730.83,-628.68 751.59,-623.3"/>
<polygon fill="#757575" stroke="#757575" points="752.27,-626.74 761.07,-620.84 750.51,-619.96 752.27,-626.74"/>
</g>
<!-- num/complex.ts&#45;&gt;bool.ts -->
<g id="edge33" class="edge">
<title>num/complex.ts&#45;&gt;bool.ts</title>
<path fill="none" stroke="#757575" d="M497.4,-362.23C558.67,-332.44 718.05,-252.4 840.5,-168.47 859.82,-155.23 880.16,-138.17 894.94,-125.15"/>
<polygon fill="#757575" stroke="#757575" points="897.1,-127.91 902.23,-118.64 892.44,-122.69 897.1,-127.91"/>
</g>
<!-- num/complex.ts&#45;&gt;core/ops.ts -->
<g id="edge35" class="edge">
<title>num/complex.ts&#45;&gt;core/ops.ts</title>
<path fill="none" stroke="#757575" d="M527.12,-376.7C600.29,-380.9 732.68,-392.85 840.5,-426.47 853.34,-430.47 867.04,-435.73 879.22,-440.78"/>
<polygon fill="#757575" stroke="#757575" points="877.51,-443.86 888.08,-444.54 880.24,-437.41 877.51,-443.86"/>
</g>
<!-- num/complex.ts&#45;&gt;geo/point.ts -->
<g id="edge36" class="edge">
<title>num/complex.ts&#45;&gt;geo/point.ts</title>
<path fill="none" stroke="#757575" d="M475.5,-362.36C485.03,-332.49 513.62,-254.58 564,-211.47 569,-207.19 574.77,-203.58 580.81,-200.54"/>
<polygon fill="#757575" stroke="#757575" points="582.03,-203.83 589.75,-196.58 579.19,-197.44 582.03,-203.83"/>
</g>
<!-- num/complex.ts&#45;&gt;num/real.ts -->
<g id="edge37" class="edge">
<title>num/complex.ts&#45;&gt;num/real.ts</title>
<path fill="none" stroke="#757575" d="M477.58,-362.12C489.79,-337.06 520.88,-280.01 564,-249.47 617.29,-211.72 647.81,-238.88 704.5,-206.47 723.34,-195.69 722.77,-185.99 740.5,-173.47 744.59,-170.57 749.05,-167.79 753.54,-165.17"/>
<polygon fill="#757575" stroke="#757575" points="754.95,-168.4 762.02,-160.51 751.57,-162.27 754.95,-168.4"/>
</g>
<!-- num/complex.ts&#45;&gt;color/core.ts -->
<g id="edge34" class="edge">
<title>num/complex.ts&#45;&gt;color/core.ts</title>
<path fill="none" stroke="#757575" d="M518.12,-386.79C536.89,-391.79 558.73,-397.61 578.3,-402.82"/>
<polygon fill="#757575" stroke="#757575" points="577.19,-406.15 587.76,-405.34 579,-399.39 577.19,-406.15"/>
</g>
<!-- data/list&#45;extras.ts -->
<g id="node18" class="node">
<title>data/list&#45;extras.ts</title>
<path fill="none" stroke="#cfffac" d="M138.21,-674.34C138.21,-674.34 36.04,-674.34 36.04,-674.34 32.08,-674.34 28.12,-670.38 28.12,-666.42 28.12,-666.42 28.12,-658.51 28.12,-658.51 28.12,-654.55 32.08,-650.59 36.04,-650.59 36.04,-650.59 138.21,-650.59 138.21,-650.59 142.17,-650.59 146.12,-654.55 146.12,-658.51 146.12,-658.51 146.12,-666.42 146.12,-666.42 146.12,-670.38 142.17,-674.34 138.21,-674.34"/>
<text text-anchor="middle" x="87.12" y="-657.04" font-family="Arial" font-size="14.00" fill="#cfffac">data/list&#45;extras.ts</text>
</g>
<!-- data/list.ts -->
<g id="node19" class="node">
<title>data/list.ts</title>
<path fill="none" stroke="#cfffac" d="M117.58,-738.34C117.58,-738.34 56.67,-738.34 56.67,-738.34 52.71,-738.34 48.75,-734.38 48.75,-730.42 48.75,-730.42 48.75,-722.51 48.75,-722.51 48.75,-718.55 52.71,-714.59 56.67,-714.59 56.67,-714.59 117.58,-714.59 117.58,-714.59 121.54,-714.59 125.5,-718.55 125.5,-722.51 125.5,-722.51 125.5,-730.42 125.5,-730.42 125.5,-734.38 121.54,-738.34 117.58,-738.34"/>
<text text-anchor="middle" x="87.12" y="-721.04" font-family="Arial" font-size="14.00" fill="#cfffac">data/list.ts</text>
</g>
<!-- data/statistics&#45;complex.ts -->
<g id="node20" class="node">
<title>data/statistics&#45;complex.ts</title>
<path fill="none" stroke="#c6c5fe" d="M369.83,-700.34C369.83,-700.34 218.17,-700.34 218.17,-700.34 214.21,-700.34 210.25,-696.38 210.25,-692.42 210.25,-692.42 210.25,-684.51 210.25,-684.51 210.25,-680.55 214.21,-676.59 218.17,-676.59 218.17,-676.59 369.83,-676.59 369.83,-676.59 373.79,-676.59 377.75,-680.55 377.75,-684.51 377.75,-684.51 377.75,-692.42 377.75,-692.42 377.75,-696.38 373.79,-700.34 369.83,-700.34"/>
<text text-anchor="middle" x="294" y="-683.04" font-family="Arial" font-size="14.00" fill="#c6c5fe">data/statistics&#45;complex.ts</text>
</g>
<!-- data/statistics&#45;complex.ts&#45;&gt;core/ops.ts -->
<g id="edge19" class="edge">
<title>data/statistics&#45;complex.ts&#45;&gt;core/ops.ts</title>
<path fill="none" stroke="#757575" d="M378.21,-695.75C512.74,-705.75 770.07,-716.9 840.5,-663.47 898.95,-619.12 912.47,-525.03 915.58,-481.05"/>
<polygon fill="#757575" stroke="#757575" points="919.06,-481.51 916.13,-471.33 912.07,-481.11 919.06,-481.51"/>
</g>
<!-- data/statistics&#45;complex.ts&#45;&gt;data/statistics.ts -->
<g id="edge20" class="edge">
<title>data/statistics&#45;complex.ts&#45;&gt;data/statistics.ts</title>
<path fill="none" stroke="#757575" d="M378.04,-679.94C422.52,-675.37 478.25,-669.63 528,-664.47 540.51,-663.17 553.85,-661.78 566.69,-660.44"/>
<polygon fill="#757575" stroke="#757575" points="566.72,-663.95 576.3,-659.43 565.99,-656.99 566.72,-663.95"/>
</g>
<!-- data/statistics&#45;complex.ts&#45;&gt;num/complex.ts -->
<g id="edge21" class="edge">
<title>data/statistics&#45;complex.ts&#45;&gt;num/complex.ts</title>
<path fill="none" stroke="#757575" d="M315.29,-676.21C334.65,-663.37 363,-641.33 377.75,-614.47 425.22,-528 351.13,-471.68 413.75,-395.47 414.19,-394.93 414.65,-394.4 415.13,-393.89"/>
<polygon fill="#757575" stroke="#757575" points="417.19,-396.72 422.7,-387.67 412.75,-391.31 417.19,-396.72"/>
</g>
<!-- debug.ts -->
<g id="node21" class="node">
<title>debug.ts</title>
<path fill="none" stroke="#cfffac" d="M113.08,-791.34C113.08,-791.34 61.17,-791.34 61.17,-791.34 57.21,-791.34 53.25,-787.38 53.25,-783.42 53.25,-783.42 53.25,-775.51 53.25,-775.51 53.25,-771.55 57.21,-767.59 61.17,-767.59 61.17,-767.59 113.08,-767.59 113.08,-767.59 117.04,-767.59 121,-771.55 121,-775.51 121,-775.51 121,-783.42 121,-783.42 121,-787.38 117.04,-791.34 113.08,-791.34"/>
<text text-anchor="middle" x="87.12" y="-774.04" font-family="Arial" font-size="14.00" fill="#cfffac">debug.ts</text>
</g>
<!-- factorial.ts -->
<g id="node22" class="node">
<title>factorial.ts</title>
<path fill="none" stroke="#c6c5fe" d="M324.83,-494.34C324.83,-494.34 263.17,-494.34 263.17,-494.34 259.21,-494.34 255.25,-490.38 255.25,-486.42 255.25,-486.42 255.25,-478.51 255.25,-478.51 255.25,-474.55 259.21,-470.59 263.17,-470.59 263.17,-470.59 324.83,-470.59 324.83,-470.59 328.79,-470.59 332.75,-474.55 332.75,-478.51 332.75,-478.51 332.75,-486.42 332.75,-486.42 332.75,-490.38 328.79,-494.34 324.83,-494.34"/>
<text text-anchor="middle" x="294" y="-477.04" font-family="Arial" font-size="14.00" fill="#c6c5fe">factorial.ts</text>
</g>
<!-- factorial.ts&#45;&gt;core/ops.ts -->
<g id="edge24" class="edge">
<title>factorial.ts&#45;&gt;core/ops.ts</title>
<path fill="none" stroke="#757575" d="M333.16,-483.81C422.26,-486.5 650.84,-490.72 840.5,-471.47 848.39,-470.66 856.69,-469.49 864.79,-468.15"/>
<polygon fill="#757575" stroke="#757575" points="865.31,-471.61 874.56,-466.43 864.1,-464.72 865.31,-471.61"/>
</g>
<!-- factorial.ts&#45;&gt;num/complex.ts -->
<g id="edge25" class="edge">
<title>factorial.ts&#45;&gt;num/complex.ts</title>
<path fill="none" stroke="#757575" d="M332.89,-471.55C347.91,-465.98 364.68,-458.09 377.75,-447.47 399.56,-429.73 391.57,-412.74 413.75,-395.47 415.25,-394.3 416.81,-393.2 418.43,-392.15"/>
<polygon fill="#757575" stroke="#757575" points="419.8,-395.39 426.85,-387.48 416.41,-389.27 419.8,-395.39"/>
</g>
<!-- geo/dcg/index.ts -->
<g id="node23" class="node">
<title>geo/dcg/index.ts</title>
<path fill="none" stroke="#c6c5fe" d="M520.08,-235.34C520.08,-235.34 421.67,-235.34 421.67,-235.34 417.71,-235.34 413.75,-231.38 413.75,-227.42 413.75,-227.42 413.75,-219.51 413.75,-219.51 413.75,-215.55 417.71,-211.59 421.67,-211.59 421.67,-211.59 520.08,-211.59 520.08,-211.59 524.04,-211.59 528,-215.55 528,-219.51 528,-219.51 528,-227.42 528,-227.42 528,-231.38 524.04,-235.34 520.08,-235.34"/>
<text text-anchor="middle" x="470.88" y="-218.04" font-family="Arial" font-size="14.00" fill="#c6c5fe">geo/dcg/index.ts</text>
</g>
<!-- geo/dcg/index.ts&#45;&gt;geo/point.ts -->
<g id="edge26" class="edge">
<title>geo/dcg/index.ts&#45;&gt;geo/point.ts</title>
<path fill="none" stroke="#757575" d="M524.27,-211.13C542.09,-206.93 562.03,-202.24 579.93,-198.02"/>
<polygon fill="#757575" stroke="#757575" points="580.66,-201.45 589.59,-195.75 579.05,-194.63 580.66,-201.45"/>
</g>
<!-- geo/image.ts -->
<g id="node24" class="node">
<title>geo/image.ts</title>
<path fill="none" stroke="#c6c5fe" d="M126.21,-838.34C126.21,-838.34 48.04,-838.34 48.04,-838.34 44.08,-838.34 40.12,-834.38 40.12,-830.42 40.12,-830.42 40.12,-822.51 40.12,-822.51 40.12,-818.55 44.08,-814.59 48.04,-814.59 48.04,-814.59 126.21,-814.59 126.21,-814.59 130.17,-814.59 134.12,-818.55 134.12,-822.51 134.12,-822.51 134.12,-830.42 134.12,-830.42 134.12,-834.38 130.17,-838.34 126.21,-838.34"/>
<text text-anchor="middle" x="87.12" y="-821.04" font-family="Arial" font-size="14.00" fill="#c6c5fe">geo/image.ts</text>
</g>
<!-- image.ts -->
<g id="node25" class="node">
<title>image.ts</title>
<path fill="none" stroke="#cfffac" d="M319.96,-838.34C319.96,-838.34 268.04,-838.34 268.04,-838.34 264.08,-838.34 260.12,-834.38 260.12,-830.42 260.12,-830.42 260.12,-822.51 260.12,-822.51 260.12,-818.55 264.08,-814.59 268.04,-814.59 268.04,-814.59 319.96,-814.59 319.96,-814.59 323.92,-814.59 327.88,-818.55 327.88,-822.51 327.88,-822.51 327.88,-830.42 327.88,-830.42 327.88,-834.38 323.92,-838.34 319.96,-838.34"/>
<text text-anchor="middle" x="294" y="-821.04" font-family="Arial" font-size="14.00" fill="#cfffac">image.ts</text>
</g>
<!-- geo/image.ts&#45;&gt;image.ts -->
<g id="edge27" class="edge">
<title>geo/image.ts&#45;&gt;image.ts</title>
<path fill="none" stroke="#757575" d="M134.61,-826.47C168.73,-826.47 214.78,-826.47 248.43,-826.47"/>
<polygon fill="#757575" stroke="#757575" points="248.26,-829.97 258.26,-826.47 248.26,-822.97 248.26,-829.97"/>
</g>
<!-- gridlines.ts -->
<g id="node26" class="node">
<title>gridlines.ts</title>
<path fill="none" stroke="#cfffac" d="M326.33,-880.34C326.33,-880.34 261.67,-880.34 261.67,-880.34 257.71,-880.34 253.75,-876.38 253.75,-872.42 253.75,-872.42 253.75,-864.51 253.75,-864.51 253.75,-860.55 257.71,-856.59 261.67,-856.59 261.67,-856.59 326.33,-856.59 326.33,-856.59 330.29,-856.59 334.25,-860.55 334.25,-864.51 334.25,-864.51 334.25,-872.42 334.25,-872.42 334.25,-876.38 330.29,-880.34 326.33,-880.34"/>
<text text-anchor="middle" x="294" y="-863.04" font-family="Arial" font-size="14.00" fill="#cfffac">gridlines.ts</text>
</g>
<!-- item/docs&#45;fn.ts -->
<g id="node27" class="node">
<title>item/docs&#45;fn.ts</title>
<path fill="none" stroke="#cfffac" d="M131.46,-922.34C131.46,-922.34 42.79,-922.34 42.79,-922.34 38.83,-922.34 34.88,-918.38 34.88,-914.42 34.88,-914.42 34.88,-906.51 34.88,-906.51 34.88,-902.55 38.83,-898.59 42.79,-898.59 42.79,-898.59 131.46,-898.59 131.46,-898.59 135.42,-898.59 139.38,-902.55 139.38,-906.51 139.38,-906.51 139.38,-914.42 139.38,-914.42 139.38,-918.38 135.42,-922.34 131.46,-922.34"/>
<text text-anchor="middle" x="87.12" y="-905.04" font-family="Arial" font-size="14.00" fill="#cfffac">item/docs&#45;fn.ts</text>
</g>
<!-- item/folder.ts -->
<g id="node28" class="node">
<title>item/folder.ts</title>
<path fill="none" stroke="#cfffac" d="M125.83,-964.34C125.83,-964.34 48.42,-964.34 48.42,-964.34 44.46,-964.34 40.5,-960.38 40.5,-956.42 40.5,-956.42 40.5,-948.51 40.5,-948.51 40.5,-944.55 44.46,-940.59 48.42,-940.59 48.42,-940.59 125.83,-940.59 125.83,-940.59 129.79,-940.59 133.75,-944.55 133.75,-948.51 133.75,-948.51 133.75,-956.42 133.75,-956.42 133.75,-960.38 129.79,-964.34 125.83,-964.34"/>
<text text-anchor="middle" x="87.12" y="-947.04" font-family="Arial" font-size="14.00" fill="#cfffac">item/folder.ts</text>
</g>
<!-- item/note.ts -->
<g id="node29" class="node">
<title>item/note.ts</title>
<path fill="none" stroke="#cfffac" d="M122.46,-1006.34C122.46,-1006.34 51.79,-1006.34 51.79,-1006.34 47.83,-1006.34 43.88,-1002.38 43.88,-998.42 43.88,-998.42 43.88,-990.51 43.88,-990.51 43.88,-986.55 47.83,-982.59 51.79,-982.59 51.79,-982.59 122.46,-982.59 122.46,-982.59 126.42,-982.59 130.38,-986.55 130.38,-990.51 130.38,-990.51 130.38,-998.42 130.38,-998.42 130.38,-1002.38 126.42,-1006.34 122.46,-1006.34"/>
<text text-anchor="middle" x="87.12" y="-989.04" font-family="Arial" font-size="14.00" fill="#cfffac">item/note.ts</text>
</g>
<!-- iterate.ts -->
<g id="node30" class="node">
<title>iterate.ts</title>
<path fill="none" stroke="#cfffac" d="M113.08,-1048.34C113.08,-1048.34 61.17,-1048.34 61.17,-1048.34 57.21,-1048.34 53.25,-1044.38 53.25,-1040.42 53.25,-1040.42 53.25,-1032.51 53.25,-1032.51 53.25,-1028.55 57.21,-1024.59 61.17,-1024.59 61.17,-1024.59 113.08,-1024.59 113.08,-1024.59 117.04,-1024.59 121,-1028.55 121,-1032.51 121,-1032.51 121,-1040.42 121,-1040.42 121,-1044.38 117.04,-1048.34 113.08,-1048.34"/>
<text text-anchor="middle" x="87.12" y="-1031.04" font-family="Arial" font-size="14.00" fill="#cfffac">iterate.ts</text>
</g>
<!-- ithkuil/index.ts -->
<g id="node31" class="node">
<title>ithkuil/index.ts</title>
<path fill="none" stroke="#c6c5fe" d="M129.58,-1090.34C129.58,-1090.34 44.67,-1090.34 44.67,-1090.34 40.71,-1090.34 36.75,-1086.38 36.75,-1082.42 36.75,-1082.42 36.75,-1074.51 36.75,-1074.51 36.75,-1070.55 40.71,-1066.59 44.67,-1066.59 44.67,-1066.59 129.58,-1066.59 129.58,-1066.59 133.54,-1066.59 137.5,-1070.55 137.5,-1074.51 137.5,-1074.51 137.5,-1082.42 137.5,-1082.42 137.5,-1086.38 133.54,-1090.34 129.58,-1090.34"/>
<text text-anchor="middle" x="87.12" y="-1073.04" font-family="Arial" font-size="14.00" fill="#c6c5fe">ithkuil/index.ts</text>
</g>
<!-- text.ts -->
<g id="node32" class="node">
<title>text.ts</title>
<path fill="none" stroke="#cfffac" d="M313.08,-1090.34C313.08,-1090.34 274.92,-1090.34 274.92,-1090.34 270.96,-1090.34 267,-1086.38 267,-1082.42 267,-1082.42 267,-1074.51 267,-1074.51 267,-1070.55 270.96,-1066.59 274.92,-1066.59 274.92,-1066.59 313.08,-1066.59 313.08,-1066.59 317.04,-1066.59 321,-1070.55 321,-1074.51 321,-1074.51 321,-1082.42 321,-1082.42 321,-1086.38 317.04,-1090.34 313.08,-1090.34"/>
<text text-anchor="middle" x="294" y="-1073.04" font-family="Arial" font-size="14.00" fill="#cfffac">text.ts</text>
</g>
<!-- ithkuil/index.ts&#45;&gt;text.ts -->
<g id="edge32" class="edge">
<title>ithkuil/index.ts&#45;&gt;text.ts</title>
<path fill="none" stroke="#757575" d="M137.98,-1078.47C174.16,-1078.47 222.36,-1078.47 255.34,-1078.47"/>
<polygon fill="#757575" stroke="#757575" points="255.25,-1081.97 265.25,-1078.47 255.25,-1074.97 255.25,-1081.97"/>
</g>
<!-- num/quaternion.ts -->
<g id="node33" class="node">
<title>num/quaternion.ts</title>
<path fill="none" stroke="#c6c5fe" d="M348.46,-386.34C348.46,-386.34 239.54,-386.34 239.54,-386.34 235.58,-386.34 231.62,-382.38 231.62,-378.42 231.62,-378.42 231.62,-370.51 231.62,-370.51 231.62,-366.55 235.58,-362.59 239.54,-362.59 239.54,-362.59 348.46,-362.59 348.46,-362.59 352.42,-362.59 356.38,-366.55 356.38,-370.51 356.38,-370.51 356.38,-378.42 356.38,-378.42 356.38,-382.38 352.42,-386.34 348.46,-386.34"/>
<text text-anchor="middle" x="294" y="-369.04" font-family="Arial" font-size="14.00" fill="#c6c5fe">num/quaternion.ts</text>
</g>
<!-- num/quaternion.ts&#45;&gt;core/ops.ts -->
<g id="edge38" class="edge">
<title>num/quaternion.ts&#45;&gt;core/ops.ts</title>
<path fill="none" stroke="#757575" d="M312.06,-386.72C334.24,-401.87 374.77,-426.94 413.75,-437.47 573.67,-480.65 772.55,-470.83 864.9,-462.84"/>
<polygon fill="#757575" stroke="#757575" points="865.01,-466.34 874.65,-461.96 864.38,-459.37 865.01,-466.34"/>
</g>
<!-- num/quaternion.ts&#45;&gt;num/real.ts -->
<g id="edge40" class="edge">
<title>num/quaternion.ts&#45;&gt;num/real.ts</title>
<path fill="none" stroke="#757575" d="M299.79,-362.22C312.88,-330.5 352.36,-245.11 413.75,-202.47 511.74,-134.4 658.95,-135.08 736.83,-141.33"/>
<polygon fill="#757575" stroke="#757575" points="736.49,-144.81 746.75,-142.19 737.09,-137.84 736.49,-144.81"/>
</g>
<!-- num/quaternion.ts&#45;&gt;num/complex.ts -->
<g id="edge39" class="edge">
<title>num/quaternion.ts&#45;&gt;num/complex.ts</title>
<path fill="none" stroke="#757575" d="M356.65,-374.47C371.7,-374.47 387.86,-374.47 403.13,-374.47"/>
<polygon fill="#757575" stroke="#757575" points="403.09,-377.97 413.09,-374.47 403.09,-370.97 403.09,-377.97"/>
</g>
<!-- number&#45;theory&#45;complex.ts -->
<g id="node34" class="node">
<title>number&#45;theory&#45;complex.ts</title>
<path fill="none" stroke="#c6c5fe" d="M166.33,-1132.34C166.33,-1132.34 7.92,-1132.34 7.92,-1132.34 3.96,-1132.34 0,-1128.38 0,-1124.42 0,-1124.42 0,-1116.51 0,-1116.51 0,-1112.55 3.96,-1108.59 7.92,-1108.59 7.92,-1108.59 166.33,-1108.59 166.33,-1108.59 170.29,-1108.59 174.25,-1112.55 174.25,-1116.51 174.25,-1116.51 174.25,-1124.42 174.25,-1124.42 174.25,-1128.38 170.29,-1132.34 166.33,-1132.34"/>
<text text-anchor="middle" x="87.12" y="-1115.04" font-family="Arial" font-size="14.00" fill="#c6c5fe">number&#45;theory&#45;complex.ts</text>
</g>
<!-- number&#45;theory.ts -->
<g id="node35" class="node">
<title>number&#45;theory.ts</title>
<path fill="none" stroke="#cfffac" d="M345.08,-1132.34C345.08,-1132.34 242.92,-1132.34 242.92,-1132.34 238.96,-1132.34 235,-1128.38 235,-1124.42 235,-1124.42 235,-1116.51 235,-1116.51 235,-1112.55 238.96,-1108.59 242.92,-1108.59 242.92,-1108.59 345.08,-1108.59 345.08,-1108.59 349.04,-1108.59 353,-1112.55 353,-1116.51 353,-1116.51 353,-1124.42 353,-1124.42 353,-1128.38 349.04,-1132.34 345.08,-1132.34"/>
<text text-anchor="middle" x="294" y="-1115.04" font-family="Arial" font-size="14.00" fill="#cfffac">number&#45;theory.ts</text>
</g>
<!-- number&#45;theory&#45;complex.ts&#45;&gt;number&#45;theory.ts -->
<g id="edge44" class="edge">
<title>number&#45;theory&#45;complex.ts&#45;&gt;number&#45;theory.ts</title>
<path fill="none" stroke="#757575" d="M174.71,-1120.47C190.97,-1120.47 207.77,-1120.47 223.43,-1120.47"/>
<polygon fill="#757575" stroke="#757575" points="223.09,-1123.97 233.09,-1120.47 223.09,-1116.97 223.09,-1123.97"/>
</g>
<!-- shader.ts -->
<g id="node36" class="node">
<title>shader.ts</title>
<path fill="none" stroke="#c6c5fe" d="M498.33,-428.34C498.33,-428.34 443.42,-428.34 443.42,-428.34 439.46,-428.34 435.5,-424.38 435.5,-420.42 435.5,-420.42 435.5,-412.51 435.5,-412.51 435.5,-408.55 439.46,-404.59 443.42,-404.59 443.42,-404.59 498.33,-404.59 498.33,-404.59 502.29,-404.59 506.25,-408.55 506.25,-412.51 506.25,-412.51 506.25,-420.42 506.25,-420.42 506.25,-424.38 502.29,-428.34 498.33,-428.34"/>
<text text-anchor="middle" x="470.88" y="-411.04" font-family="Arial" font-size="14.00" fill="#c6c5fe">shader.ts</text>
</g>
<!-- shader.ts&#45;&gt;color/core.ts -->
<g id="edge45" class="edge">
<title>shader.ts&#45;&gt;color/core.ts</title>
<path fill="none" stroke="#757575" d="M506.49,-416.68C527.27,-416.81 554.17,-416.98 577.84,-417.12"/>
<polygon fill="#757575" stroke="#757575" points="577.62,-420.62 587.64,-417.18 577.66,-413.62 577.62,-420.62"/>
</g>
<!-- slider.ts -->
<g id="node37" class="node">
<title>slider.ts</title>
<path fill="none" stroke="#cfffac" d="M110.08,-1174.34C110.08,-1174.34 64.17,-1174.34 64.17,-1174.34 60.21,-1174.34 56.25,-1170.38 56.25,-1166.42 56.25,-1166.42 56.25,-1158.51 56.25,-1158.51 56.25,-1154.55 60.21,-1150.59 64.17,-1150.59 64.17,-1150.59 110.08,-1150.59 110.08,-1150.59 114.04,-1150.59 118,-1154.55 118,-1158.51 118,-1158.51 118,-1166.42 118,-1166.42 118,-1170.38 114.04,-1174.34 110.08,-1174.34"/>
<text text-anchor="middle" x="87.12" y="-1157.04" font-family="Arial" font-size="14.00" fill="#cfffac">slider.ts</text>
</g>
<!-- slope&#45;field.ts -->
<g id="node38" class="node">
<title>slope&#45;field.ts</title>
<path fill="none" stroke="#c6c5fe" d="M125.08,-880.34C125.08,-880.34 49.17,-880.34 49.17,-880.34 45.21,-880.34 41.25,-876.38 41.25,-872.42 41.25,-872.42 41.25,-864.51 41.25,-864.51 41.25,-860.55 45.21,-856.59 49.17,-856.59 49.17,-856.59 125.08,-856.59 125.08,-856.59 129.04,-856.59 133,-860.55 133,-864.51 133,-864.51 133,-872.42 133,-872.42 133,-876.38 129.04,-880.34 125.08,-880.34"/>
<text text-anchor="middle" x="87.12" y="-863.04" font-family="Arial" font-size="14.00" fill="#c6c5fe">slope&#45;field.ts</text>
</g>
<!-- slope&#45;field.ts&#45;&gt;gridlines.ts -->
<g id="edge46" class="edge">
<title>slope&#45;field.ts&#45;&gt;gridlines.ts</title>
<path fill="none" stroke="#757575" d="M133.34,-868.47C165.49,-868.47 208.71,-868.47 242.08,-868.47"/>
<polygon fill="#757575" stroke="#757575" points="241.92,-871.97 251.92,-868.47 241.92,-864.97 241.92,-871.97"/>
</g>
<!-- special.ts -->
<g id="node39" class="node">
<title>special.ts</title>
<path fill="none" stroke="#cfffac" d="M115.33,-1216.34C115.33,-1216.34 58.92,-1216.34 58.92,-1216.34 54.96,-1216.34 51,-1212.38 51,-1208.42 51,-1208.42 51,-1200.51 51,-1200.51 51,-1196.55 54.96,-1192.59 58.92,-1192.59 58.92,-1192.59 115.33,-1192.59 115.33,-1192.59 119.29,-1192.59 123.25,-1196.55 123.25,-1200.51 123.25,-1200.51 123.25,-1208.42 123.25,-1208.42 123.25,-1212.38 119.29,-1216.34 115.33,-1216.34"/>
<text text-anchor="middle" x="87.12" y="-1199.04" font-family="Arial" font-size="14.00" fill="#cfffac">special.ts</text>
</g>
<!-- sym/core.ts -->
<g id="node40" class="node">
<title>sym/core.ts</title>
<path fill="none" stroke="#cfffac" d="M122.08,-1258.34C122.08,-1258.34 52.17,-1258.34 52.17,-1258.34 48.21,-1258.34 44.25,-1254.38 44.25,-1250.42 44.25,-1250.42 44.25,-1242.51 44.25,-1242.51 44.25,-1238.55 48.21,-1234.59 52.17,-1234.59 52.17,-1234.59 122.08,-1234.59 122.08,-1234.59 126.04,-1234.59 130,-1238.55 130,-1242.51 130,-1242.51 130,-1250.42 130,-1250.42 130,-1254.38 126.04,-1258.34 122.08,-1258.34"/>
<text text-anchor="middle" x="87.12" y="-1241.04" font-family="Arial" font-size="14.00" fill="#cfffac">sym/core.ts</text>
</g>
<!-- sym/deriv.ts -->
<g id="node41" class="node">
<title>sym/deriv.ts</title>
<path fill="none" stroke="#cfffac" d="M123.21,-1300.34C123.21,-1300.34 51.04,-1300.34 51.04,-1300.34 47.08,-1300.34 43.12,-1296.38 43.12,-1292.42 43.12,-1292.42 43.12,-1284.51 43.12,-1284.51 43.12,-1280.55 47.08,-1276.59 51.04,-1276.59 51.04,-1276.59 123.21,-1276.59 123.21,-1276.59 127.17,-1276.59 131.12,-1280.55 131.12,-1284.51 131.12,-1284.51 131.12,-1292.42 131.12,-1292.42 131.12,-1296.38 127.17,-1300.34 123.21,-1300.34"/>
<text text-anchor="middle" x="87.12" y="-1283.04" font-family="Arial" font-size="14.00" fill="#cfffac">sym/deriv.ts</text>
</g>
<!-- sym/extras.ts -->
<g id="node42" class="node">
<title>sym/extras.ts</title>
<path fill="none" stroke="#cfffac" d="M127.33,-1342.34C127.33,-1342.34 46.92,-1342.34 46.92,-1342.34 42.96,-1342.34 39,-1338.38 39,-1334.42 39,-1334.42 39,-1326.51 39,-1326.51 39,-1322.55 42.96,-1318.59 46.92,-1318.59 46.92,-1318.59 127.33,-1318.59 127.33,-1318.59 131.29,-1318.59 135.25,-1322.55 135.25,-1326.51 135.25,-1326.51 135.25,-1334.42 135.25,-1334.42 135.25,-1338.38 131.29,-1342.34 127.33,-1342.34"/>
<text text-anchor="middle" x="87.12" y="-1325.04" font-family="Arial" font-size="14.00" fill="#cfffac">sym/extras.ts</text>
</g>
<!-- trig/complex.ts -->
<g id="node43" class="node">
<title>trig/complex.ts</title>
<path fill="none" stroke="#c6c5fe" d="M337.96,-541.34C337.96,-541.34 250.04,-541.34 250.04,-541.34 246.08,-541.34 242.12,-537.38 242.12,-533.42 242.12,-533.42 242.12,-525.51 242.12,-525.51 242.12,-521.55 246.08,-517.59 250.04,-517.59 250.04,-517.59 337.96,-517.59 337.96,-517.59 341.92,-517.59 345.88,-521.55 345.88,-525.51 345.88,-525.51 345.88,-533.42 345.88,-533.42 345.88,-537.38 341.92,-541.34 337.96,-541.34"/>
<text text-anchor="middle" x="294" y="-524.04" font-family="Arial" font-size="14.00" fill="#c6c5fe">trig/complex.ts</text>
</g>
<!-- trig/complex.ts&#45;&gt;num/complex.ts -->
<g id="edge47" class="edge">
<title>trig/complex.ts&#45;&gt;num/complex.ts</title>
<path fill="none" stroke="#757575" d="M346.37,-521.47C357.85,-517.62 369.16,-511.91 377.75,-503.47 413.84,-468 378.63,-431.89 413.75,-395.47 414.48,-394.71 415.23,-393.98 416.02,-393.28"/>
<polygon fill="#757575" stroke="#757575" points="417.89,-396.25 424.01,-387.6 413.83,-390.54 417.89,-396.25"/>
</g>
<!-- trig/real.ts -->
<g id="node44" class="node">
<title>trig/real.ts</title>
<path fill="none" stroke="#c6c5fe" d="M500.58,-546.34C500.58,-546.34 441.17,-546.34 441.17,-546.34 437.21,-546.34 433.25,-542.38 433.25,-538.42 433.25,-538.42 433.25,-530.51 433.25,-530.51 433.25,-526.55 437.21,-522.59 441.17,-522.59 441.17,-522.59 500.58,-522.59 500.58,-522.59 504.54,-522.59 508.5,-526.55 508.5,-530.51 508.5,-530.51 508.5,-538.42 508.5,-538.42 508.5,-542.38 504.54,-546.34 500.58,-546.34"/>
<text text-anchor="middle" x="470.88" y="-529.04" font-family="Arial" font-size="14.00" fill="#c6c5fe">trig/real.ts</text>
</g>
<!-- trig/complex.ts&#45;&gt;trig/real.ts -->
<g id="edge48" class="edge">
<title>trig/complex.ts&#45;&gt;trig/real.ts</title>
<path fill="none" stroke="#757575" d="M346.05,-530.92C369.85,-531.61 398.04,-532.41 421.5,-533.08"/>
<polygon fill="#757575" stroke="#757575" points="421.33,-536.58 431.43,-533.37 421.53,-529.58 421.33,-536.58"/>
</g>
<!-- trig/real.ts&#45;&gt;core/ops.ts -->
<g id="edge53" class="edge">
<title>trig/real.ts&#45;&gt;core/ops.ts</title>
<path fill="none" stroke="#757575" d="M508.98,-538.24C576.91,-543.79 724.9,-549.56 840.5,-509.47 860.7,-502.46 880.53,-488.59 894.87,-476.93"/>
<polygon fill="#757575" stroke="#757575" points="896.91,-479.79 902.29,-470.66 892.39,-474.44 896.91,-479.79"/>
</g>
<!-- trig/hyperbolic/complex.ts -->
<g id="node45" class="node">
<title>trig/hyperbolic/complex.ts</title>
<path fill="none" stroke="#c6c5fe" d="M163.71,-541.34C163.71,-541.34 10.54,-541.34 10.54,-541.34 6.58,-541.34 2.62,-537.38 2.62,-533.42 2.62,-533.42 2.62,-525.51 2.62,-525.51 2.62,-521.55 6.58,-517.59 10.54,-517.59 10.54,-517.59 163.71,-517.59 163.71,-517.59 167.67,-517.59 171.62,-521.55 171.62,-525.51 171.62,-525.51 171.62,-533.42 171.62,-533.42 171.62,-537.38 167.67,-541.34 163.71,-541.34"/>
<text text-anchor="middle" x="87.12" y="-524.04" font-family="Arial" font-size="14.00" fill="#c6c5fe">trig/hyperbolic/complex.ts</text>
</g>
<!-- trig/hyperbolic/complex.ts&#45;&gt;num/complex.ts -->
<g id="edge49" class="edge">
<title>trig/hyperbolic/complex.ts&#45;&gt;num/complex.ts</title>
<path fill="none" stroke="#757575" d="M107.43,-517.24C131.04,-502.65 172.51,-478.12 210.25,-461.47 278.46,-431.36 360.54,-405.48 413.9,-389.96"/>
<polygon fill="#757575" stroke="#757575" points="414.74,-393.36 423.38,-387.23 412.8,-386.63 414.74,-393.36"/>
</g>
<!-- trig/hyperbolic/complex.ts&#45;&gt;trig/complex.ts -->
<g id="edge50" class="edge">
<title>trig/hyperbolic/complex.ts&#45;&gt;trig/complex.ts</title>
<path fill="none" stroke="#757575" d="M172.05,-529.47C191.54,-529.47 211.95,-529.47 230.35,-529.47"/>
<polygon fill="#757575" stroke="#757575" points="230.29,-532.97 240.29,-529.47 230.29,-525.97 230.29,-532.97"/>
</g>
<!-- trig/hyperbolic/real.ts -->
<g id="node46" class="node">
<title>trig/hyperbolic/real.ts</title>
<path fill="none" stroke="#c6c5fe" d="M696.58,-809.34C696.58,-809.34 571.92,-809.34 571.92,-809.34 567.96,-809.34 564,-805.38 564,-801.42 564,-801.42 564,-793.51 564,-793.51 564,-789.55 567.96,-785.59 571.92,-785.59 571.92,-785.59 696.58,-785.59 696.58,-785.59 700.54,-785.59 704.5,-789.55 704.5,-793.51 704.5,-793.51 704.5,-801.42 704.5,-801.42 704.5,-805.38 700.54,-809.34 696.58,-809.34"/>
<text text-anchor="middle" x="634.25" y="-792.04" font-family="Arial" font-size="14.00" fill="#c6c5fe">trig/hyperbolic/real.ts</text>
</g>
<!-- trig/hyperbolic/complex.ts&#45;&gt;trig/hyperbolic/real.ts -->
<g id="edge51" class="edge">
<title>trig/hyperbolic/complex.ts&#45;&gt;trig/hyperbolic/real.ts</title>
<path fill="none" stroke="#757575" d="M153.61,-541.79C161.32,-545.48 168.49,-550.27 174.25,-556.47 221.82,-607.62 160.22,-660.71 210.25,-709.47 301.37,-798.25 457.42,-808.02 552.37,-804.5"/>
<polygon fill="#757575" stroke="#757575" points="552.29,-808 562.13,-804.07 551.98,-801.01 552.29,-808"/>
</g>
<!-- trig/hyperbolic/real.ts&#45;&gt;core/ops.ts -->
<g id="edge52" class="edge">
<title>trig/hyperbolic/real.ts&#45;&gt;core/ops.ts</title>
<path fill="none" stroke="#757575" d="M704.6,-809.15C748.63,-812.46 803.99,-808.45 840.5,-776.47 885.46,-737.08 907.79,-547.71 914.37,-480.88"/>
<polygon fill="#757575" stroke="#757575" points="917.84,-481.35 915.31,-471.06 910.87,-480.69 917.84,-481.35"/>
</g>
<!-- with.ts -->
<g id="node47" class="node">
<title>with.ts</title>
<path fill="none" stroke="#cfffac" d="M106.33,-1384.34C106.33,-1384.34 67.92,-1384.34 67.92,-1384.34 63.96,-1384.34 60,-1380.38 60,-1376.42 60,-1376.42 60,-1368.51 60,-1368.51 60,-1364.55 63.96,-1360.59 67.92,-1360.59 67.92,-1360.59 106.33,-1360.59 106.33,-1360.59 110.29,-1360.59 114.25,-1364.55 114.25,-1368.51 114.25,-1368.51 114.25,-1376.42 114.25,-1376.42 114.25,-1380.38 110.29,-1384.34 106.33,-1384.34"/>
<text text-anchor="middle" x="87.12" y="-1367.04" font-family="Arial" font-size="14.00" fill="#cfffac">with.ts</text>
</g>
<!-- withseq.ts -->
<g id="node48" class="node">
<title>withseq.ts</title>
<path fill="none" stroke="#cfffac" d="M117.21,-1426.34C117.21,-1426.34 57.04,-1426.34 57.04,-1426.34 53.08,-1426.34 49.12,-1422.38 49.12,-1418.42 49.12,-1418.42 49.12,-1410.51 49.12,-1410.51 49.12,-1406.55 53.08,-1402.59 57.04,-1402.59 57.04,-1402.59 117.21,-1402.59 117.21,-1402.59 121.17,-1402.59 125.12,-1406.55 125.12,-1410.51 125.12,-1410.51 125.12,-1418.42 125.12,-1418.42 125.12,-1422.38 121.17,-1426.34 117.21,-1426.34"/>
<text text-anchor="middle" x="87.12" y="-1409.04" font-family="Arial" font-size="14.00" fill="#cfffac">withseq.ts</text>
</g>
</g>
</svg>
