<?xml version="1.0" encoding="UTF-8" standalone="no"?>
<!DOCTYPE svg PUBLIC "-//W3C//DTD SVG 1.1//EN"
 "http://www.w3.org/Graphics/SVG/1.1/DTD/svg11.dtd">
<!-- Generated by graphviz version 12.2.1 (20241206.2353)
 -->
<!-- Title: G Pages: 1 -->
<svg width="1547pt" height="722pt"
 viewBox="0.00 0.00 1547.45 721.93" xmlns="http://www.w3.org/2000/svg" xmlns:xlink="http://www.w3.org/1999/xlink">
<g id="graph0" class="graph" transform="scale(1 1) rotate(0) translate(21.6 700.33)">
<title>G</title>
<polygon fill="#111111" stroke="none" points="-21.6,21.6 -21.6,-700.33 1525.85,-700.33 1525.85,21.6 -21.6,21.6"/>
<!-- ../pkg/list/geo/dcg/arc.ts -->
<g id="node1" class="node">
<title>../pkg/list/geo/dcg/arc.ts</title>
<path fill="none" stroke="#ff6c60" d="M163.71,-651.75C163.71,-651.75 21.79,-651.75 21.79,-651.75 17.83,-651.75 13.88,-647.79 13.88,-643.83 13.88,-643.83 13.88,-635.92 13.88,-635.92 13.88,-631.96 17.83,-628 21.79,-628 21.79,-628 163.71,-628 163.71,-628 167.67,-628 171.62,-631.96 171.62,-635.92 171.62,-635.92 171.62,-643.83 171.62,-643.83 171.62,-647.79 167.67,-651.75 163.71,-651.75"/>
<text text-anchor="middle" x="92.75" y="-634.45" font-family="Arial" font-size="14.00" fill="#ff6c60">../pkg/list/geo/dcg/arc.ts</text>
</g>
<!-- ../pkg/list/geo/dcg/fn/intersection.ts -->
<g id="node2" class="node">
<title>../pkg/list/geo/dcg/fn/intersection.ts</title>
<path fill="none" stroke="#ff6c60" d="M436.58,-651.75C436.58,-651.75 229.42,-651.75 229.42,-651.75 225.46,-651.75 221.5,-647.79 221.5,-643.83 221.5,-643.83 221.5,-635.92 221.5,-635.92 221.5,-631.96 225.46,-628 229.42,-628 229.42,-628 436.58,-628 436.58,-628 440.54,-628 444.5,-631.96 444.5,-635.92 444.5,-635.92 444.5,-643.83 444.5,-643.83 444.5,-647.79 440.54,-651.75 436.58,-651.75"/>
<text text-anchor="middle" x="333" y="-634.45" font-family="Arial" font-size="14.00" fill="#ff6c60">../pkg/list/geo/dcg/fn/intersection.ts</text>
</g>
<!-- ../pkg/list/geo/dcg/arc.ts&#45;&gt;../pkg/list/geo/dcg/fn/intersection.ts -->
<g id="edge1" class="edge">
<title>../pkg/list/geo/dcg/arc.ts&#45;&gt;../pkg/list/geo/dcg/fn/intersection.ts</title>
<path fill="none" stroke="#757575" d="M172.09,-633.49C184.26,-633.26 197.07,-633.14 209.93,-633.13"/>
<polygon fill="#757575" stroke="#757575" points="209.71,-636.63 219.72,-633.14 209.72,-629.63 209.71,-636.63"/>
</g>
<!-- eval/ty/create.ts -->
<g id="node3" class="node">
<title>eval/ty/create.ts</title>
<path fill="none" stroke="#ff6c60" d="M599.58,-591.75C599.58,-591.75 504.92,-591.75 504.92,-591.75 500.96,-591.75 497,-587.79 497,-583.83 497,-583.83 497,-575.92 497,-575.92 497,-571.96 500.96,-568 504.92,-568 504.92,-568 599.58,-568 599.58,-568 603.54,-568 607.5,-571.96 607.5,-575.92 607.5,-575.92 607.5,-583.83 607.5,-583.83 607.5,-587.79 603.54,-591.75 599.58,-591.75"/>
<text text-anchor="middle" x="552.25" y="-574.45" font-family="Arial" font-size="14.00" fill="#ff6c60">eval/ty/create.ts</text>
</g>
<!-- ../pkg/list/geo/dcg/arc.ts&#45;&gt;eval/ty/create.ts -->
<g id="edge2" class="edge">
<title>../pkg/list/geo/dcg/arc.ts&#45;&gt;eval/ty/create.ts</title>
<path fill="none" stroke="#757575" d="M135.31,-652.2C202.36,-669.94 337.68,-696.81 444.5,-660.88 480.03,-648.92 513.13,-619.92 532.78,-600.07"/>
<polygon fill="#757575" stroke="#757575" points="535.13,-602.67 539.54,-593.04 530.08,-597.82 535.13,-602.67"/>
</g>
<!-- ../pkg/list/geo/dcg/fn/intersection.ts&#45;&gt;../pkg/list/geo/dcg/arc.ts -->
<g id="edge3" class="edge">
<title>../pkg/list/geo/dcg/fn/intersection.ts&#45;&gt;../pkg/list/geo/dcg/arc.ts</title>
<path fill="none" stroke="#757575" d="M221.23,-646.61C208.53,-646.66 195.69,-646.6 183.32,-646.44"/>
<polygon fill="#757575" stroke="#757575" points="183.66,-642.94 173.61,-646.28 183.55,-649.94 183.66,-642.94"/>
</g>
<!-- ../pkg/list/geo/dcg/fn/intersection.ts&#45;&gt;eval/ty/create.ts -->
<g id="edge4" class="edge">
<title>../pkg/list/geo/dcg/fn/intersection.ts&#45;&gt;eval/ty/create.ts</title>
<path fill="none" stroke="#757575" d="M390.14,-627.55C407.63,-623.47 426.93,-618.73 444.5,-613.88 464.15,-608.44 485.61,-601.76 504.1,-595.76"/>
<polygon fill="#757575" stroke="#757575" points="505.05,-599.13 513.46,-592.69 502.87,-592.48 505.05,-599.13"/>
</g>
<!-- eval/ty/split.ts -->
<g id="node15" class="node">
<title>eval/ty/split.ts</title>
<path fill="none" stroke="#ff6c60" d="M770.83,-591.75C770.83,-591.75 689.67,-591.75 689.67,-591.75 685.71,-591.75 681.75,-587.79 681.75,-583.83 681.75,-583.83 681.75,-575.92 681.75,-575.92 681.75,-571.96 685.71,-568 689.67,-568 689.67,-568 770.83,-568 770.83,-568 774.79,-568 778.75,-571.96 778.75,-575.92 778.75,-575.92 778.75,-583.83 778.75,-583.83 778.75,-587.79 774.79,-591.75 770.83,-591.75"/>
<text text-anchor="middle" x="730.25" y="-574.45" font-family="Arial" font-size="14.00" fill="#ff6c60">eval/ty/split.ts</text>
</g>
<!-- eval/ty/create.ts&#45;&gt;eval/ty/split.ts -->
<g id="edge18" class="edge">
<title>eval/ty/create.ts&#45;&gt;eval/ty/split.ts</title>
<path fill="none" stroke="#757575" d="M607.97,-573.57C627.63,-573.02 649.88,-572.98 669.91,-573.45"/>
<polygon fill="#757575" stroke="#757575" points="669.79,-576.95 679.89,-573.75 670,-569.95 669.79,-576.95"/>
</g>
<!-- ../pkg/list/unit/impl/system.ts -->
<g id="node4" class="node">
<title>../pkg/list/unit/impl/system.ts</title>
<path fill="none" stroke="#ff6c60" d="M177.58,-571.75C177.58,-571.75 7.92,-571.75 7.92,-571.75 3.96,-571.75 0,-567.79 0,-563.83 0,-563.83 0,-555.92 0,-555.92 0,-551.96 3.96,-548 7.92,-548 7.92,-548 177.58,-548 177.58,-548 181.54,-548 185.5,-551.96 185.5,-555.92 185.5,-555.92 185.5,-563.83 185.5,-563.83 185.5,-567.79 181.54,-571.75 177.58,-571.75"/>
<text text-anchor="middle" x="92.75" y="-554.45" font-family="Arial" font-size="14.00" fill="#ff6c60">../pkg/list/unit/impl/system.ts</text>
</g>
<!-- ../pkg/list/unit/impl/system.ts&#45;&gt;eval/ty/create.ts -->
<g id="edge6" class="edge">
<title>../pkg/list/unit/impl/system.ts&#45;&gt;eval/ty/create.ts</title>
<path fill="none" stroke="#757575" d="M156.2,-572.23C176.9,-575.76 200.11,-579.13 221.5,-580.88 320.28,-588.94 345.39,-581.34 444.5,-580.88 457.75,-580.81 471.92,-580.71 485.47,-580.59"/>
<polygon fill="#757575" stroke="#757575" points="485.19,-584.09 495.16,-580.5 485.12,-577.09 485.19,-584.09"/>
</g>
<!-- ../pkg/list/unit/impl/units.ts -->
<g id="node5" class="node">
<title>../pkg/list/unit/impl/units.ts</title>
<path fill="none" stroke="#ff6c60" d="M410.33,-571.75C410.33,-571.75 255.67,-571.75 255.67,-571.75 251.71,-571.75 247.75,-567.79 247.75,-563.83 247.75,-563.83 247.75,-555.92 247.75,-555.92 247.75,-551.96 251.71,-548 255.67,-548 255.67,-548 410.33,-548 410.33,-548 414.29,-548 418.25,-551.96 418.25,-555.92 418.25,-555.92 418.25,-563.83 418.25,-563.83 418.25,-567.79 414.29,-571.75 410.33,-571.75"/>
<text text-anchor="middle" x="333" y="-554.45" font-family="Arial" font-size="14.00" fill="#ff6c60">../pkg/list/unit/impl/units.ts</text>
</g>
<!-- ../pkg/list/unit/impl/system.ts&#45;&gt;../pkg/list/unit/impl/units.ts -->
<g id="edge5" class="edge">
<title>../pkg/list/unit/impl/system.ts&#45;&gt;../pkg/list/unit/impl/units.ts</title>
<path fill="none" stroke="#757575" d="M185.86,-553.28C202.35,-553.09 219.57,-553.07 236.17,-553.24"/>
<polygon fill="#757575" stroke="#757575" points="235.98,-556.74 246.02,-553.37 236.07,-549.74 235.98,-556.74"/>
</g>
<!-- ../pkg/list/unit/impl/units.ts&#45;&gt;eval/ty/create.ts -->
<g id="edge8" class="edge">
<title>../pkg/list/unit/impl/units.ts&#45;&gt;eval/ty/create.ts</title>
<path fill="none" stroke="#757575" d="M418.62,-567.66C440.73,-569.7 464.25,-571.87 485.24,-573.8"/>
<polygon fill="#757575" stroke="#757575" points="484.83,-577.27 495.11,-574.71 485.47,-570.3 484.83,-577.27"/>
</g>
<!-- ../pkg/list/unit/impl/units.ts&#45;&gt;../pkg/list/unit/impl/system.ts -->
<g id="edge7" class="edge">
<title>../pkg/list/unit/impl/units.ts&#45;&gt;../pkg/list/unit/impl/system.ts</title>
<path fill="none" stroke="#757575" d="M247.54,-566.36C231.15,-566.62 213.8,-566.69 196.9,-566.57"/>
<polygon fill="#757575" stroke="#757575" points="197.41,-563.08 187.38,-566.48 197.34,-570.08 197.41,-563.08"/>
</g>
<!-- eval/ast/complete.ts -->
<g id="node6" class="node">
<title>eval/ast/complete.ts</title>
<path fill="none" stroke="#ff6c60" d="M1291.33,-337.75C1291.33,-337.75 1171.17,-337.75 1171.17,-337.75 1167.21,-337.75 1163.25,-333.79 1163.25,-329.83 1163.25,-329.83 1163.25,-321.92 1163.25,-321.92 1163.25,-317.96 1167.21,-314 1171.17,-314 1171.17,-314 1291.33,-314 1291.33,-314 1295.29,-314 1299.25,-317.96 1299.25,-321.92 1299.25,-321.92 1299.25,-329.83 1299.25,-329.83 1299.25,-333.79 1295.29,-337.75 1291.33,-337.75"/>
<text text-anchor="middle" x="1231.25" y="-320.45" font-family="Arial" font-size="14.00" fill="#ff6c60">eval/ast/complete.ts</text>
</g>
<!-- eval/ast/pass1.suffixes.ts -->
<g id="node7" class="node">
<title>eval/ast/pass1.suffixes.ts</title>
<path fill="none" stroke="#ff6c60" d="M1494.83,-367.75C1494.83,-367.75 1344.67,-367.75 1344.67,-367.75 1340.71,-367.75 1336.75,-363.79 1336.75,-359.83 1336.75,-359.83 1336.75,-351.92 1336.75,-351.92 1336.75,-347.96 1340.71,-344 1344.67,-344 1344.67,-344 1494.83,-344 1494.83,-344 1498.79,-344 1502.75,-347.96 1502.75,-351.92 1502.75,-351.92 1502.75,-359.83 1502.75,-359.83 1502.75,-363.79 1498.79,-367.75 1494.83,-367.75"/>
<text text-anchor="middle" x="1419.75" y="-350.45" font-family="Arial" font-size="14.00" fill="#ff6c60">eval/ast/pass1.suffixes.ts</text>
</g>
<!-- eval/ast/complete.ts&#45;&gt;eval/ast/pass1.suffixes.ts -->
<g id="edge9" class="edge">
<title>eval/ast/complete.ts&#45;&gt;eval/ast/pass1.suffixes.ts</title>
<path fill="none" stroke="#757575" d="M1299.58,-336.71C1309.69,-338.33 1320.25,-340.03 1330.72,-341.71"/>
<polygon fill="#757575" stroke="#757575" points="1330.1,-345.16 1340.52,-343.29 1331.21,-338.25 1330.1,-345.16"/>
</g>
<!-- eval/ast/pass2.implicits.ts -->
<g id="node8" class="node">
<title>eval/ast/pass2.implicits.ts</title>
<path fill="none" stroke="#ff6c60" d="M1496.33,-316.75C1496.33,-316.75 1343.17,-316.75 1343.17,-316.75 1339.21,-316.75 1335.25,-312.79 1335.25,-308.83 1335.25,-308.83 1335.25,-300.92 1335.25,-300.92 1335.25,-296.96 1339.21,-293 1343.17,-293 1343.17,-293 1496.33,-293 1496.33,-293 1500.29,-293 1504.25,-296.96 1504.25,-300.92 1504.25,-300.92 1504.25,-308.83 1504.25,-308.83 1504.25,-312.79 1500.29,-316.75 1496.33,-316.75"/>
<text text-anchor="middle" x="1419.75" y="-299.45" font-family="Arial" font-size="14.00" fill="#ff6c60">eval/ast/pass2.implicits.ts</text>
</g>
<!-- eval/ast/complete.ts&#45;&gt;eval/ast/pass2.implicits.ts -->
<g id="edge10" class="edge">
<title>eval/ast/complete.ts&#45;&gt;eval/ast/pass2.implicits.ts</title>
<path fill="none" stroke="#757575" d="M1299.58,-318.29C1307.38,-317.42 1315.45,-316.51 1323.53,-315.6"/>
<polygon fill="#757575" stroke="#757575" points="1323.9,-319.08 1333.44,-314.48 1323.11,-312.12 1323.9,-319.08"/>
</g>
<!-- field/model.ts -->
<g id="node9" class="node">
<title>field/model.ts</title>
<path fill="none" stroke="#ff6c60" d="M1110.71,-337.75C1110.71,-337.75 1030.29,-337.75 1030.29,-337.75 1026.33,-337.75 1022.38,-333.79 1022.38,-329.83 1022.38,-329.83 1022.38,-321.92 1022.38,-321.92 1022.38,-317.96 1026.33,-314 1030.29,-314 1030.29,-314 1110.71,-314 1110.71,-314 1114.67,-314 1118.62,-317.96 1118.62,-321.92 1118.62,-321.92 1118.62,-329.83 1118.62,-329.83 1118.62,-333.79 1114.67,-337.75 1110.71,-337.75"/>
<text text-anchor="middle" x="1070.5" y="-320.45" font-family="Arial" font-size="14.00" fill="#ff6c60">field/model.ts</text>
</g>
<!-- eval/ast/pass1.suffixes.ts&#45;&gt;field/model.ts -->
<g id="edge11" class="edge">
<title>eval/ast/pass1.suffixes.ts&#45;&gt;field/model.ts</title>
<path fill="none" stroke="#757575" d="M1336.44,-356.93C1286.21,-356.59 1220.79,-354.4 1163.25,-346.88 1151.95,-345.4 1139.99,-343.16 1128.58,-340.7"/>
<polygon fill="#757575" stroke="#757575" points="1129.4,-337.3 1118.87,-338.51 1127.86,-344.12 1129.4,-337.3"/>
</g>
<!-- eval/ast/pass2.implicits.ts&#45;&gt;field/model.ts -->
<g id="edge12" class="edge">
<title>eval/ast/pass2.implicits.ts&#45;&gt;field/model.ts</title>
<path fill="none" stroke="#757575" d="M1334.77,-300.14C1284.79,-298.5 1220.22,-298.44 1163.25,-304.88 1151.44,-306.21 1138.93,-308.48 1127.07,-311.05"/>
<polygon fill="#757575" stroke="#757575" points="1126.4,-307.61 1117.43,-313.25 1127.96,-314.44 1126.4,-307.61"/>
</g>
<!-- field/model.ts&#45;&gt;eval/ast/complete.ts -->
<g id="edge30" class="edge">
<title>field/model.ts&#45;&gt;eval/ast/complete.ts</title>
<path fill="none" stroke="#757575" d="M1118.7,-325.88C1129.12,-325.88 1140.43,-325.88 1151.72,-325.88"/>
<polygon fill="#757575" stroke="#757575" points="1151.45,-329.38 1161.45,-325.88 1151.45,-322.38 1151.45,-329.38"/>
</g>
<!-- eval/ast/tx.ts -->
<g id="node10" class="node">
<title>eval/ast/tx.ts</title>
<path fill="none" stroke="#ff6c60" d="M944.71,-65.75C944.71,-65.75 869.54,-65.75 869.54,-65.75 865.58,-65.75 861.62,-61.79 861.62,-57.83 861.62,-57.83 861.62,-49.92 861.62,-49.92 861.62,-45.96 865.58,-42 869.54,-42 869.54,-42 944.71,-42 944.71,-42 948.67,-42 952.62,-45.96 952.62,-49.92 952.62,-49.92 952.62,-57.83 952.62,-57.83 952.62,-61.79 948.67,-65.75 944.71,-65.75"/>
<text text-anchor="middle" x="907.12" y="-48.45" font-family="Arial" font-size="14.00" fill="#ff6c60">eval/ast/tx.ts</text>
</g>
<!-- eval/glsl.ts -->
<g id="node11" class="node">
<title>eval/glsl.ts</title>
<path fill="none" stroke="#ff6c60" d="M1102.08,-65.75C1102.08,-65.75 1038.92,-65.75 1038.92,-65.75 1034.96,-65.75 1031,-61.79 1031,-57.83 1031,-57.83 1031,-49.92 1031,-49.92 1031,-45.96 1034.96,-42 1038.92,-42 1038.92,-42 1102.08,-42 1102.08,-42 1106.04,-42 1110,-45.96 1110,-49.92 1110,-49.92 1110,-57.83 1110,-57.83 1110,-61.79 1106.04,-65.75 1102.08,-65.75"/>
<text text-anchor="middle" x="1070.5" y="-48.45" font-family="Arial" font-size="14.00" fill="#ff6c60">eval/glsl.ts</text>
</g>
<!-- eval/ast/tx.ts&#45;&gt;eval/glsl.ts -->
<g id="edge13" class="edge">
<title>eval/ast/tx.ts&#45;&gt;eval/glsl.ts</title>
<path fill="none" stroke="#757575" d="M953.08,-47.75C973.61,-46.98 998.02,-46.92 1019.17,-47.57"/>
<polygon fill="#757575" stroke="#757575" points="1018.9,-51.06 1029.03,-47.94 1019.17,-44.07 1018.9,-51.06"/>
</g>
<!-- eval/js.ts -->
<g id="node12" class="node">
<title>eval/js.ts</title>
<path fill="none" stroke="#ff6c60" d="M1096.83,-107.75C1096.83,-107.75 1044.17,-107.75 1044.17,-107.75 1040.21,-107.75 1036.25,-103.79 1036.25,-99.83 1036.25,-99.83 1036.25,-91.92 1036.25,-91.92 1036.25,-87.96 1040.21,-84 1044.17,-84 1044.17,-84 1096.83,-84 1096.83,-84 1100.79,-84 1104.75,-87.96 1104.75,-91.92 1104.75,-91.92 1104.75,-99.83 1104.75,-99.83 1104.75,-103.79 1100.79,-107.75 1096.83,-107.75"/>
<text text-anchor="middle" x="1070.5" y="-90.45" font-family="Arial" font-size="14.00" fill="#ff6c60">eval/js.ts</text>
</g>
<!-- eval/ast/tx.ts&#45;&gt;eval/js.ts -->
<g id="edge14" class="edge">
<title>eval/ast/tx.ts&#45;&gt;eval/js.ts</title>
<path fill="none" stroke="#757575" d="M953.08,-59.45C977.76,-64.95 1008.04,-72.93 1031.53,-80.17"/>
<polygon fill="#757575" stroke="#757575" points="1030.43,-83.49 1041.02,-83.19 1032.55,-76.82 1030.43,-83.49"/>
</g>
<!-- eval/glsl.ts&#45;&gt;eval/ast/tx.ts -->
<g id="edge15" class="edge">
<title>eval/glsl.ts&#45;&gt;eval/ast/tx.ts</title>
<path fill="none" stroke="#757575" d="M1030.54,-59.75C1010.75,-60.66 986.34,-60.86 964.54,-60.35"/>
<polygon fill="#757575" stroke="#757575" points="964.69,-56.85 954.59,-60.04 964.48,-63.85 964.69,-56.85"/>
</g>
<!-- eval/js.ts&#45;&gt;eval/ast/tx.ts -->
<g id="edge16" class="edge">
<title>eval/js.ts&#45;&gt;eval/ast/tx.ts</title>
<path fill="none" stroke="#757575" d="M1035.82,-92.72C1009.67,-87.35 973.39,-77.99 946.18,-69.61"/>
<polygon fill="#757575" stroke="#757575" points="947.53,-66.37 936.94,-66.68 945.41,-73.04 947.53,-66.37"/>
</g>
<!-- eval/ty/coerce.ts -->
<g id="node13" class="node">
<title>eval/ty/coerce.ts</title>
<path fill="none" stroke="#ff6c60" d="M1119.33,-23.75C1119.33,-23.75 1021.67,-23.75 1021.67,-23.75 1017.71,-23.75 1013.75,-19.79 1013.75,-15.83 1013.75,-15.83 1013.75,-7.92 1013.75,-7.92 1013.75,-3.96 1017.71,0 1021.67,0 1021.67,0 1119.33,0 1119.33,0 1123.29,0 1127.25,-3.96 1127.25,-7.92 1127.25,-7.92 1127.25,-15.83 1127.25,-15.83 1127.25,-19.79 1123.29,-23.75 1119.33,-23.75"/>
<text text-anchor="middle" x="1070.5" y="-6.45" font-family="Arial" font-size="14.00" fill="#ff6c60">eval/ty/coerce.ts</text>
</g>
<!-- eval/ty/index.ts -->
<g id="node14" class="node">
<title>eval/ty/index.ts</title>
<path fill="none" stroke="#ff6c60" d="M951.83,-23.75C951.83,-23.75 862.42,-23.75 862.42,-23.75 858.46,-23.75 854.5,-19.79 854.5,-15.83 854.5,-15.83 854.5,-7.92 854.5,-7.92 854.5,-3.96 858.46,0 862.42,0 862.42,0 951.83,0 951.83,0 955.79,0 959.75,-3.96 959.75,-7.92 959.75,-7.92 959.75,-15.83 959.75,-15.83 959.75,-19.79 955.79,-23.75 951.83,-23.75"/>
<text text-anchor="middle" x="907.12" y="-6.45" font-family="Arial" font-size="14.00" fill="#ff6c60">eval/ty/index.ts</text>
</g>
<!-- eval/ty/coerce.ts&#45;&gt;eval/ty/index.ts -->
<g id="edge17" class="edge">
<title>eval/ty/coerce.ts&#45;&gt;eval/ty/index.ts</title>
<path fill="none" stroke="#757575" d="M1013.47,-18.34C999.92,-18.66 985.36,-18.71 971.5,-18.49"/>
<polygon fill="#757575" stroke="#757575" points="971.66,-14.99 961.59,-18.26 971.51,-21.99 971.66,-14.99"/>
</g>
<!-- eval/ty/index.ts&#45;&gt;eval/ty/coerce.ts -->
<g id="edge19" class="edge">
<title>eval/ty/index.ts&#45;&gt;eval/ty/coerce.ts</title>
<path fill="none" stroke="#757575" d="M960.07,-5.52C973.52,-5.13 988.2,-5.03 1002.31,-5.21"/>
<polygon fill="#757575" stroke="#757575" points="1001.89,-8.7 1011.95,-5.39 1002.02,-1.7 1001.89,-8.7"/>
</g>
<!-- eval/ty/split.ts&#45;&gt;eval/ty/create.ts -->
<g id="edge20" class="edge">
<title>eval/ty/split.ts&#45;&gt;eval/ty/create.ts</title>
<path fill="none" stroke="#757575" d="M681.41,-585.96C662.26,-586.64 639.88,-586.8 619.23,-586.43"/>
<polygon fill="#757575" stroke="#757575" points="619.56,-582.94 609.49,-586.21 619.4,-589.94 619.56,-582.94"/>
</g>
<!-- field/cmd/leaf/cmp.ts -->
<g id="node16" class="node">
<title>field/cmd/leaf/cmp.ts</title>
<path fill="none" stroke="#ff6c60" d="M792.58,-415.75C792.58,-415.75 667.92,-415.75 667.92,-415.75 663.96,-415.75 660,-411.79 660,-407.83 660,-407.83 660,-399.92 660,-399.92 660,-395.96 663.96,-392 667.92,-392 667.92,-392 792.58,-392 792.58,-392 796.54,-392 800.5,-395.96 800.5,-399.92 800.5,-399.92 800.5,-407.83 800.5,-407.83 800.5,-411.79 796.54,-415.75 792.58,-415.75"/>
<text text-anchor="middle" x="730.25" y="-398.45" font-family="Arial" font-size="14.00" fill="#ff6c60">field/cmd/leaf/cmp.ts</text>
</g>
<!-- field/cmd/leaf/cmp.ts&#45;&gt;field/model.ts -->
<g id="edge22" class="edge">
<title>field/cmd/leaf/cmp.ts&#45;&gt;field/model.ts</title>
<path fill="none" stroke="#757575" d="M784.85,-391.52C846.44,-377.31 947.2,-354.08 1010.84,-339.4"/>
<polygon fill="#757575" stroke="#757575" points="1011.46,-342.85 1020.42,-337.19 1009.89,-336.03 1011.46,-342.85"/>
</g>
<!-- field/cmd/leaf/op.ts -->
<g id="node17" class="node">
<title>field/cmd/leaf/op.ts</title>
<path fill="none" stroke="#ff6c60" d="M963.83,-415.75C963.83,-415.75 850.42,-415.75 850.42,-415.75 846.46,-415.75 842.5,-411.79 842.5,-407.83 842.5,-407.83 842.5,-399.92 842.5,-399.92 842.5,-395.96 846.46,-392 850.42,-392 850.42,-392 963.83,-392 963.83,-392 967.79,-392 971.75,-395.96 971.75,-399.92 971.75,-399.92 971.75,-407.83 971.75,-407.83 971.75,-411.79 967.79,-415.75 963.83,-415.75"/>
<text text-anchor="middle" x="907.12" y="-398.45" font-family="Arial" font-size="14.00" fill="#ff6c60">field/cmd/leaf/op.ts</text>
</g>
<!-- field/cmd/leaf/cmp.ts&#45;&gt;field/cmd/leaf/op.ts -->
<g id="edge21" class="edge">
<title>field/cmd/leaf/cmp.ts&#45;&gt;field/cmd/leaf/op.ts</title>
<path fill="none" stroke="#757575" d="M800.87,-397.25C810.66,-397.11 820.76,-397.09 830.65,-397.18"/>
<polygon fill="#757575" stroke="#757575" points="830.58,-400.68 840.62,-397.32 830.68,-393.68 830.58,-400.68"/>
</g>
<!-- field/cmd/leaf/op.ts&#45;&gt;field/model.ts -->
<g id="edge26" class="edge">
<title>field/cmd/leaf/op.ts&#45;&gt;field/model.ts</title>
<path fill="none" stroke="#757575" d="M944.35,-391.58C955.24,-387.56 967.11,-382.84 977.75,-377.88 999.25,-367.85 1022.49,-354.65 1040.2,-344.06"/>
<polygon fill="#757575" stroke="#757575" points="1041.9,-347.12 1048.64,-338.95 1038.27,-341.13 1041.9,-347.12"/>
</g>
<!-- field/cmd/leaf/op.ts&#45;&gt;field/cmd/leaf/cmp.ts -->
<g id="edge25" class="edge">
<title>field/cmd/leaf/op.ts&#45;&gt;field/cmd/leaf/cmp.ts</title>
<path fill="none" stroke="#757575" d="M842.14,-410.4C832.38,-410.59 822.21,-410.66 812.15,-410.61"/>
<polygon fill="#757575" stroke="#757575" points="812.41,-407.11 802.38,-410.51 812.35,-414.11 812.41,-407.11"/>
</g>
<!-- field/cmd/leaf/num.ts -->
<g id="node18" class="node">
<title>field/cmd/leaf/num.ts</title>
<path fill="none" stroke="#ff6c60" d="M969.83,-183.75C969.83,-183.75 844.42,-183.75 844.42,-183.75 840.46,-183.75 836.5,-179.79 836.5,-175.83 836.5,-175.83 836.5,-167.92 836.5,-167.92 836.5,-163.96 840.46,-160 844.42,-160 844.42,-160 969.83,-160 969.83,-160 973.79,-160 977.75,-163.96 977.75,-167.92 977.75,-167.92 977.75,-175.83 977.75,-175.83 977.75,-179.79 973.79,-183.75 969.83,-183.75"/>
<text text-anchor="middle" x="907.12" y="-166.45" font-family="Arial" font-size="14.00" fill="#ff6c60">field/cmd/leaf/num.ts</text>
</g>
<!-- field/cmd/leaf/num.ts&#45;&gt;field/model.ts -->
<g id="edge24" class="edge">
<title>field/cmd/leaf/num.ts&#45;&gt;field/model.ts</title>
<path fill="none" stroke="#757575" d="M952.89,-184.11C961.64,-187.7 970.37,-192.23 977.75,-197.88 1015.51,-226.77 1044.31,-275.48 1058.9,-303.75"/>
<polygon fill="#757575" stroke="#757575" points="1055.66,-305.1 1063.27,-312.47 1061.92,-301.97 1055.66,-305.1"/>
</g>
<!-- field/cmd/leaf/var.ts -->
<g id="node19" class="node">
<title>field/cmd/leaf/var.ts</title>
<path fill="none" stroke="#ff6c60" d="M788.46,-203.75C788.46,-203.75 672.04,-203.75 672.04,-203.75 668.08,-203.75 664.12,-199.79 664.12,-195.83 664.12,-195.83 664.12,-187.92 664.12,-187.92 664.12,-183.96 668.08,-180 672.04,-180 672.04,-180 788.46,-180 788.46,-180 792.42,-180 796.38,-183.96 796.38,-187.92 796.38,-187.92 796.38,-195.83 796.38,-195.83 796.38,-199.79 792.42,-203.75 788.46,-203.75"/>
<text text-anchor="middle" x="730.25" y="-186.45" font-family="Arial" font-size="14.00" fill="#ff6c60">field/cmd/leaf/var.ts</text>
</g>
<!-- field/cmd/leaf/num.ts&#45;&gt;field/cmd/leaf/var.ts -->
<g id="edge23" class="edge">
<title>field/cmd/leaf/num.ts&#45;&gt;field/cmd/leaf/var.ts</title>
<path fill="none" stroke="#757575" d="M852.96,-184.22C838.87,-186.25 823.37,-188.17 808.29,-189.77"/>
<polygon fill="#757575" stroke="#757575" points="807.97,-186.29 798.37,-190.78 808.67,-193.25 807.97,-186.29"/>
</g>
<!-- field/cmd/leaf/var.ts&#45;&gt;field/model.ts -->
<g id="edge29" class="edge">
<title>field/cmd/leaf/var.ts&#45;&gt;field/model.ts</title>
<path fill="none" stroke="#757575" d="M776.77,-204.13C827.01,-218.32 909.75,-243.64 977.75,-273.88 999.57,-283.58 1022.96,-296.89 1040.67,-307.61"/>
<polygon fill="#757575" stroke="#757575" points="1038.74,-310.54 1049.1,-312.79 1042.41,-304.57 1038.74,-310.54"/>
</g>
<!-- field/cmd/leaf/var.ts&#45;&gt;eval/ast/tx.ts -->
<g id="edge27" class="edge">
<title>field/cmd/leaf/var.ts&#45;&gt;eval/ast/tx.ts</title>
<path fill="none" stroke="#757575" d="M756.49,-179.53C770.03,-172.46 786.7,-163 800.5,-152.88 833.3,-128.81 866.85,-95.59 887.09,-74.42"/>
<polygon fill="#757575" stroke="#757575" points="889.55,-76.92 893.87,-67.25 884.46,-72.11 889.55,-76.92"/>
</g>
<!-- field/cmd/leaf/var.ts&#45;&gt;field/cmd/leaf/num.ts -->
<g id="edge28" class="edge">
<title>field/cmd/leaf/var.ts&#45;&gt;field/cmd/leaf/num.ts</title>
<path fill="none" stroke="#757575" d="M784.19,-179.56C797.12,-177.69 811.25,-175.92 825.16,-174.4"/>
<polygon fill="#757575" stroke="#757575" points="825.15,-177.92 834.73,-173.4 824.42,-170.96 825.15,-177.92"/>
</g>
<!-- sheet/item.ts -->
<g id="node20" class="node">
<title>sheet/item.ts</title>
<path fill="none" stroke="#ff6c60" d="M768.96,-339.75C768.96,-339.75 691.54,-339.75 691.54,-339.75 687.58,-339.75 683.62,-335.79 683.62,-331.83 683.62,-331.83 683.62,-323.92 683.62,-323.92 683.62,-319.96 687.58,-316 691.54,-316 691.54,-316 768.96,-316 768.96,-316 772.92,-316 776.88,-319.96 776.88,-323.92 776.88,-323.92 776.88,-331.83 776.88,-331.83 776.88,-335.79 772.92,-339.75 768.96,-339.75"/>
<text text-anchor="middle" x="730.25" y="-322.45" font-family="Arial" font-size="14.00" fill="#ff6c60">sheet/item.ts</text>
</g>
<!-- sheet/item.ts&#45;&gt;field/model.ts -->
<g id="edge31" class="edge">
<title>sheet/item.ts&#45;&gt;field/model.ts</title>
<path fill="none" stroke="#757575" d="M777.22,-327.6C837.71,-327.25 944.12,-326.62 1010.49,-326.22"/>
<polygon fill="#757575" stroke="#757575" points="1010.5,-329.72 1020.48,-326.16 1010.46,-322.72 1010.5,-329.72"/>
</g>
<!-- sheet/ui/expr/index.ts -->
<g id="node21" class="node">
<title>sheet/ui/expr/index.ts</title>
<path fill="none" stroke="#ff6c60" d="M616.08,-324.75C616.08,-324.75 488.42,-324.75 488.42,-324.75 484.46,-324.75 480.5,-320.79 480.5,-316.83 480.5,-316.83 480.5,-308.92 480.5,-308.92 480.5,-304.96 484.46,-301 488.42,-301 488.42,-301 616.08,-301 616.08,-301 620.04,-301 624,-304.96 624,-308.92 624,-308.92 624,-316.83 624,-316.83 624,-320.79 620.04,-324.75 616.08,-324.75"/>
<text text-anchor="middle" x="552.25" y="-307.45" font-family="Arial" font-size="14.00" fill="#ff6c60">sheet/ui/expr/index.ts</text>
</g>
<!-- sheet/item.ts&#45;&gt;sheet/ui/expr/index.ts -->
<g id="edge32" class="edge">
<title>sheet/item.ts&#45;&gt;sheet/ui/expr/index.ts</title>
<path fill="none" stroke="#757575" d="M683.28,-329.97C667.69,-329.23 649.81,-327.94 632.39,-326.34"/>
<polygon fill="#757575" stroke="#757575" points="632.84,-322.87 622.55,-325.39 632.17,-329.83 632.84,-322.87"/>
</g>
<!-- sheet/ui/expr/index.ts&#45;&gt;field/model.ts -->
<g id="edge49" class="edge">
<title>sheet/ui/expr/index.ts&#45;&gt;field/model.ts</title>
<path fill="none" stroke="#757575" d="M624.43,-308.32C636.3,-307.72 648.5,-307.2 660,-306.88 722.42,-305.12 738.09,-304.67 800.5,-306.88 873.01,-309.43 956.31,-315.86 1010.77,-320.53"/>
<polygon fill="#757575" stroke="#757575" points="1010.16,-323.99 1020.43,-321.37 1010.77,-317.02 1010.16,-323.99"/>
</g>
<!-- sheet/ui/expr/index.ts&#45;&gt;eval/js.ts -->
<g id="edge46" class="edge">
<title>sheet/ui/expr/index.ts&#45;&gt;eval/js.ts</title>
<path fill="none" stroke="#757575" d="M624.36,-304.57C712.62,-291.72 865.23,-260.99 977.75,-192.88 1010.08,-173.3 1038.44,-139.32 1054.78,-117.22"/>
<polygon fill="#757575" stroke="#757575" points="1057.53,-119.39 1060.53,-109.22 1051.85,-115.3 1057.53,-119.39"/>
</g>
<!-- sheet/ui/expr/index.ts&#45;&gt;field/cmd/leaf/cmp.ts -->
<g id="edge47" class="edge">
<title>sheet/ui/expr/index.ts&#45;&gt;field/cmd/leaf/cmp.ts</title>
<path fill="none" stroke="#757575" d="M576.99,-325.15C607.43,-340.89 660.43,-368.29 695.18,-386.26"/>
<polygon fill="#757575" stroke="#757575" points="693.49,-389.33 703.98,-390.81 696.71,-383.11 693.49,-389.33"/>
</g>
<!-- sheet/ui/expr/index.ts&#45;&gt;field/cmd/leaf/var.ts -->
<g id="edge48" class="edge">
<title>sheet/ui/expr/index.ts&#45;&gt;field/cmd/leaf/var.ts</title>
<path fill="none" stroke="#757575" d="M569.68,-300.57C590.46,-285.1 627.46,-257.92 660,-235.88 672.93,-227.11 687.5,-217.78 699.92,-209.98"/>
<polygon fill="#757575" stroke="#757575" points="701.44,-213.16 708.07,-204.89 697.73,-207.22 701.44,-213.16"/>
</g>
<!-- sheet/ui/expr/index.ts&#45;&gt;sheet/item.ts -->
<g id="edge50" class="edge">
<title>sheet/ui/expr/index.ts&#45;&gt;sheet/item.ts</title>
<path fill="none" stroke="#757575" d="M624.33,-312.3C640.14,-313.43 656.71,-314.93 671.89,-316.61"/>
<polygon fill="#757575" stroke="#757575" points="671.35,-320.08 681.69,-317.76 672.16,-313.12 671.35,-320.08"/>
</g>
<!-- sheet/pick&#45;cursor.ts -->
<g id="node22" class="node">
<title>sheet/pick&#45;cursor.ts</title>
<path fill="none" stroke="#ff6c60" d="M788.46,-143.75C788.46,-143.75 672.04,-143.75 672.04,-143.75 668.08,-143.75 664.12,-139.79 664.12,-135.83 664.12,-135.83 664.12,-127.92 664.12,-127.92 664.12,-123.96 668.08,-120 672.04,-120 672.04,-120 788.46,-120 788.46,-120 792.42,-120 796.38,-123.96 796.38,-127.92 796.38,-127.92 796.38,-135.83 796.38,-135.83 796.38,-139.79 792.42,-143.75 788.46,-143.75"/>
<text text-anchor="middle" x="730.25" y="-126.45" font-family="Arial" font-size="14.00" fill="#ff6c60">sheet/pick&#45;cursor.ts</text>
</g>
<!-- sheet/ui/expr/index.ts&#45;&gt;sheet/pick&#45;cursor.ts -->
<g id="edge51" class="edge">
<title>sheet/ui/expr/index.ts&#45;&gt;sheet/pick&#45;cursor.ts</title>
<path fill="none" stroke="#757575" d="M560.13,-300.51C575.33,-274.06 614.07,-211.12 660,-170.88 669.36,-162.67 680.72,-155.41 691.51,-149.44"/>
<polygon fill="#757575" stroke="#757575" points="693.03,-152.59 700.25,-144.84 689.77,-146.4 693.03,-152.59"/>
</g>
<!-- sheet/pick&#45;cursor.ts&#45;&gt;field/model.ts -->
<g id="edge35" class="edge">
<title>sheet/pick&#45;cursor.ts&#45;&gt;field/model.ts</title>
<path fill="none" stroke="#757575" d="M796.72,-120.59C849.85,-115.03 924.43,-115.76 977.75,-150.88 1031.52,-186.29 1055.76,-263.84 1064.87,-302.71"/>
<polygon fill="#757575" stroke="#757575" points="1061.43,-303.37 1066.99,-312.39 1068.27,-301.87 1061.43,-303.37"/>
</g>
<!-- sheet/pick&#45;cursor.ts&#45;&gt;eval/js.ts -->
<g id="edge33" class="edge">
<title>sheet/pick&#45;cursor.ts&#45;&gt;eval/js.ts</title>
<path fill="none" stroke="#757575" d="M796.61,-122.79C809.8,-121.06 823.59,-119.34 836.5,-117.88 901.82,-110.45 977.64,-103.62 1024.6,-99.6"/>
<polygon fill="#757575" stroke="#757575" points="1024.71,-103.11 1034.38,-98.77 1024.12,-96.13 1024.71,-103.11"/>
</g>
<!-- sheet/pick&#45;cursor.ts&#45;&gt;eval/ty/index.ts -->
<g id="edge34" class="edge">
<title>sheet/pick&#45;cursor.ts&#45;&gt;eval/ty/index.ts</title>
<path fill="none" stroke="#757575" d="M740.94,-119.62C758.04,-98.8 795.66,-56.47 836.5,-32.88 839.13,-31.36 841.87,-29.94 844.69,-28.62"/>
<polygon fill="#757575" stroke="#757575" points="845.88,-31.91 853.75,-24.82 843.18,-25.46 845.88,-31.91"/>
</g>
<!-- sheet/ui/cv/item.ts -->
<g id="node23" class="node">
<title>sheet/ui/cv/item.ts</title>
<path fill="none" stroke="#ff6c60" d="M147.21,-435.75C147.21,-435.75 38.29,-435.75 38.29,-435.75 34.33,-435.75 30.38,-431.79 30.38,-427.83 30.38,-427.83 30.38,-419.92 30.38,-419.92 30.38,-415.96 34.33,-412 38.29,-412 38.29,-412 147.21,-412 147.21,-412 151.17,-412 155.12,-415.96 155.12,-419.92 155.12,-419.92 155.12,-427.83 155.12,-427.83 155.12,-431.79 151.17,-435.75 147.21,-435.75"/>
<text text-anchor="middle" x="92.75" y="-418.45" font-family="Arial" font-size="14.00" fill="#ff6c60">sheet/ui/cv/item.ts</text>
</g>
<!-- sheet/pick&#45;cursor.ts&#45;&gt;sheet/ui/cv/item.ts -->
<g id="edge36" class="edge">
<title>sheet/pick&#45;cursor.ts&#45;&gt;sheet/ui/cv/item.ts</title>
<path fill="none" stroke="#757575" d="M691.15,-144.11C641.81,-160.34 553.51,-190.71 480.5,-222.88 344.44,-282.82 189.4,-369.16 124.67,-406.06"/>
<polygon fill="#757575" stroke="#757575" points="123.34,-402.79 116.39,-410.79 126.81,-408.87 123.34,-402.79"/>
</g>
<!-- sheet/ui/cv/item.ts&#45;&gt;eval/ty/create.ts -->
<g id="edge43" class="edge">
<title>sheet/ui/cv/item.ts&#45;&gt;eval/ty/create.ts</title>
<path fill="none" stroke="#757575" d="M111.06,-436.05C134.83,-452.19 179.44,-480.43 221.5,-495.88 316.25,-530.66 347.46,-511.12 444.5,-538.88 467.53,-545.46 492.56,-554.95 512.6,-563.14"/>
<polygon fill="#757575" stroke="#757575" points="511.19,-566.34 521.77,-566.95 513.88,-559.88 511.19,-566.34"/>
</g>
<!-- sheet/ui/cv/item.ts&#45;&gt;field/model.ts -->
<g id="edge44" class="edge">
<title>sheet/ui/cv/item.ts&#45;&gt;field/model.ts</title>
<path fill="none" stroke="#757575" d="M153.03,-436.25C239.97,-453.28 407.34,-481.88 551.25,-481.88 551.25,-481.88 551.25,-481.88 731.25,-481.88 841.67,-481.88 882.56,-506.82 977.75,-450.88 1018.32,-427.03 1046.26,-377.47 1059.91,-348.43"/>
<polygon fill="#757575" stroke="#757575" points="1063.04,-349.99 1063.96,-339.44 1056.66,-347.12 1063.04,-349.99"/>
</g>
<!-- sheet/ui/cv/item&#45;virtual.ts -->
<g id="node24" class="node">
<title>sheet/ui/cv/item&#45;virtual.ts</title>
<path fill="none" stroke="#ff6c60" d="M407.71,-435.75C407.71,-435.75 258.29,-435.75 258.29,-435.75 254.33,-435.75 250.38,-431.79 250.38,-427.83 250.38,-427.83 250.38,-419.92 250.38,-419.92 250.38,-415.96 254.33,-412 258.29,-412 258.29,-412 407.71,-412 407.71,-412 411.67,-412 415.62,-415.96 415.62,-419.92 415.62,-419.92 415.62,-427.83 415.62,-427.83 415.62,-431.79 411.67,-435.75 407.71,-435.75"/>
<text text-anchor="middle" x="333" y="-418.45" font-family="Arial" font-size="14.00" fill="#ff6c60">sheet/ui/cv/item&#45;virtual.ts</text>
</g>
<!-- sheet/ui/cv/item.ts&#45;&gt;sheet/ui/cv/item&#45;virtual.ts -->
<g id="edge45" class="edge">
<title>sheet/ui/cv/item.ts&#45;&gt;sheet/ui/cv/item&#45;virtual.ts</title>
<path fill="none" stroke="#757575" d="M155.42,-417.88C180.74,-417.16 210.63,-416.95 238.54,-417.27"/>
<polygon fill="#757575" stroke="#757575" points="238.38,-420.76 248.43,-417.4 238.48,-413.76 238.38,-420.76"/>
</g>
<!-- sheet/ui/cv/item&#45;virtual.ts&#45;&gt;eval/ty/create.ts -->
<g id="edge37" class="edge">
<title>sheet/ui/cv/item&#45;virtual.ts&#45;&gt;eval/ty/create.ts</title>
<path fill="none" stroke="#757575" d="M351.05,-436.12C388.88,-463.28 480.08,-528.77 525.15,-561.13"/>
<polygon fill="#757575" stroke="#757575" points="522.89,-563.82 533.05,-566.81 526.97,-558.13 522.89,-563.82"/>
</g>
<!-- sheet/ui/cv/item&#45;virtual.ts&#45;&gt;field/model.ts -->
<g id="edge40" class="edge">
<title>sheet/ui/cv/item&#45;virtual.ts&#45;&gt;field/model.ts</title>
<path fill="none" stroke="#757575" d="M415.88,-432.11C566.13,-445.89 879.48,-468.12 977.75,-424.88 1013.62,-409.09 1041.78,-371.67 1057,-347.63"/>
<polygon fill="#757575" stroke="#757575" points="1059.9,-349.6 1062.1,-339.24 1053.91,-345.97 1059.9,-349.6"/>
</g>
<!-- sheet/ui/cv/item&#45;virtual.ts&#45;&gt;field/cmd/leaf/cmp.ts -->
<g id="edge38" class="edge">
<title>sheet/ui/cv/item&#45;virtual.ts&#45;&gt;field/cmd/leaf/cmp.ts</title>
<path fill="none" stroke="#757575" d="M415.9,-419.73C483.98,-416.29 580.35,-411.41 648.19,-407.98"/>
<polygon fill="#757575" stroke="#757575" points="648.35,-411.47 658.16,-407.47 647.99,-404.48 648.35,-411.47"/>
</g>
<!-- sheet/ui/cv/item&#45;virtual.ts&#45;&gt;field/cmd/leaf/var.ts -->
<g id="edge39" class="edge">
<title>sheet/ui/cv/item&#45;virtual.ts&#45;&gt;field/cmd/leaf/var.ts</title>
<path fill="none" stroke="#757575" d="M344.64,-411.76C367.37,-386.5 423.28,-327.57 480.5,-291.88 542.81,-253 622.8,-224.06 675.01,-207.57"/>
<polygon fill="#757575" stroke="#757575" points="675.76,-211.01 684.27,-204.7 673.68,-204.32 675.76,-211.01"/>
</g>
<!-- sheet/ui/cv/item&#45;virtual.ts&#45;&gt;sheet/ui/expr/index.ts -->
<g id="edge42" class="edge">
<title>sheet/ui/cv/item&#45;virtual.ts&#45;&gt;sheet/ui/expr/index.ts</title>
<path fill="none" stroke="#757575" d="M358.08,-411.57C396.74,-391.82 472.79,-352.96 517.06,-330.34"/>
<polygon fill="#757575" stroke="#757575" points="518.4,-333.59 525.71,-325.92 515.22,-327.35 518.4,-333.59"/>
</g>
<!-- sheet/ui/cv/item&#45;virtual.ts&#45;&gt;sheet/ui/cv/item.ts -->
<g id="edge41" class="edge">
<title>sheet/ui/cv/item&#45;virtual.ts&#45;&gt;sheet/ui/cv/item.ts</title>
<path fill="none" stroke="#757575" d="M249.94,-430.33C222.94,-430.78 193.12,-430.72 166.83,-430.16"/>
<polygon fill="#757575" stroke="#757575" points="167.01,-426.66 156.93,-429.91 166.84,-433.66 167.01,-426.66"/>
</g>
</g>
</svg>
