<?xml version="1.0" encoding="UTF-8" standalone="no"?>
<!DOCTYPE svg PUBLIC "-//W3C//DTD SVG 1.1//EN"
 "http://www.w3.org/Graphics/SVG/1.1/DTD/svg11.dtd">
<!-- Generated by graphviz version 12.2.1 (20241206.2353)
 -->
<!-- Title: G Pages: 1 -->
<svg width="1231pt" height="560pt"
 viewBox="0.00 0.00 1230.70 559.83" xmlns="http://www.w3.org/2000/svg" xmlns:xlink="http://www.w3.org/1999/xlink">
<g id="graph0" class="graph" transform="scale(1 1) rotate(0) translate(21.6 538.23)">
<title>G</title>
<polygon fill="#111111" stroke="none" points="-21.6,21.6 -21.6,-538.23 1209.1,-538.23 1209.1,21.6 -21.6,21.6"/>
<!-- eval/ast/complete.ts -->
<g id="node1" class="node">
<title>eval/ast/complete.ts</title>
<path fill="none" stroke="#ff6c60" d="M840.08,-314.67C840.08,-314.67 719.92,-314.67 719.92,-314.67 715.96,-314.67 712,-310.72 712,-306.76 712,-306.76 712,-298.84 712,-298.84 712,-294.88 715.96,-290.92 719.92,-290.92 719.92,-290.92 840.08,-290.92 840.08,-290.92 844.04,-290.92 848,-294.88 848,-298.84 848,-298.84 848,-306.76 848,-306.76 848,-310.72 844.04,-314.67 840.08,-314.67"/>
<text text-anchor="middle" x="780" y="-297.37" font-family="Arial" font-size="14.00" fill="#ff6c60">eval/ast/complete.ts</text>
</g>
<!-- eval/ast/pass1.suffixes.ts -->
<g id="node2" class="node">
<title>eval/ast/pass1.suffixes.ts</title>
<path fill="none" stroke="#ff6c60" d="M1045.83,-274.67C1045.83,-274.67 895.67,-274.67 895.67,-274.67 891.71,-274.67 887.75,-270.72 887.75,-266.76 887.75,-266.76 887.75,-258.84 887.75,-258.84 887.75,-254.88 891.71,-250.92 895.67,-250.92 895.67,-250.92 1045.83,-250.92 1045.83,-250.92 1049.79,-250.92 1053.75,-254.88 1053.75,-258.84 1053.75,-258.84 1053.75,-266.76 1053.75,-266.76 1053.75,-270.72 1049.79,-274.67 1045.83,-274.67"/>
<text text-anchor="middle" x="970.75" y="-257.37" font-family="Arial" font-size="14.00" fill="#ff6c60">eval/ast/pass1.suffixes.ts</text>
</g>
<!-- eval/ast/complete.ts&#45;&gt;eval/ast/pass1.suffixes.ts -->
<g id="edge1" class="edge">
<title>eval/ast/complete.ts&#45;&gt;eval/ast/pass1.suffixes.ts</title>
<path fill="none" stroke="#757575" d="M839.17,-290.47C858.55,-286.37 880.32,-281.75 900.46,-277.48"/>
<polygon fill="#757575" stroke="#757575" points="900.91,-280.97 909.97,-275.47 899.46,-274.12 900.91,-280.97"/>
</g>
<!-- eval/ast/pass2.implicits.ts -->
<g id="node3" class="node">
<title>eval/ast/pass2.implicits.ts</title>
<path fill="none" stroke="#ff6c60" d="M1047.33,-354.67C1047.33,-354.67 894.17,-354.67 894.17,-354.67 890.21,-354.67 886.25,-350.72 886.25,-346.76 886.25,-346.76 886.25,-338.84 886.25,-338.84 886.25,-334.88 890.21,-330.92 894.17,-330.92 894.17,-330.92 1047.33,-330.92 1047.33,-330.92 1051.29,-330.92 1055.25,-334.88 1055.25,-338.84 1055.25,-338.84 1055.25,-346.76 1055.25,-346.76 1055.25,-350.72 1051.29,-354.67 1047.33,-354.67"/>
<text text-anchor="middle" x="970.75" y="-337.37" font-family="Arial" font-size="14.00" fill="#ff6c60">eval/ast/pass2.implicits.ts</text>
</g>
<!-- eval/ast/complete.ts&#45;&gt;eval/ast/pass2.implicits.ts -->
<g id="edge2" class="edge">
<title>eval/ast/complete.ts&#45;&gt;eval/ast/pass2.implicits.ts</title>
<path fill="none" stroke="#757575" d="M839.17,-315.13C858.55,-319.23 880.32,-323.85 900.46,-328.11"/>
<polygon fill="#757575" stroke="#757575" points="899.46,-331.48 909.97,-330.13 900.91,-324.63 899.46,-331.48"/>
</g>
<!-- field/model.ts -->
<g id="node4" class="node">
<title>field/model.ts</title>
<path fill="none" stroke="#ff6c60" d="M1179.58,-294.67C1179.58,-294.67 1099.17,-294.67 1099.17,-294.67 1095.21,-294.67 1091.25,-290.72 1091.25,-286.76 1091.25,-286.76 1091.25,-278.84 1091.25,-278.84 1091.25,-274.88 1095.21,-270.92 1099.17,-270.92 1099.17,-270.92 1179.58,-270.92 1179.58,-270.92 1183.54,-270.92 1187.5,-274.88 1187.5,-278.84 1187.5,-278.84 1187.5,-286.76 1187.5,-286.76 1187.5,-290.72 1183.54,-294.67 1179.58,-294.67"/>
<text text-anchor="middle" x="1139.38" y="-277.37" font-family="Arial" font-size="14.00" fill="#ff6c60">field/model.ts</text>
</g>
<!-- eval/ast/pass1.suffixes.ts&#45;&gt;field/model.ts -->
<g id="edge3" class="edge">
<title>eval/ast/pass1.suffixes.ts&#45;&gt;field/model.ts</title>
<path fill="none" stroke="#757575" d="M1054.09,-272.68C1062.67,-273.71 1071.26,-274.74 1079.51,-275.73"/>
<polygon fill="#757575" stroke="#757575" points="1079.05,-279.2 1089.39,-276.92 1079.88,-272.25 1079.05,-279.2"/>
</g>
<!-- eval/ast/pass2.implicits.ts&#45;&gt;field/model.ts -->
<g id="edge4" class="edge">
<title>eval/ast/pass2.implicits.ts&#45;&gt;field/model.ts</title>
<path fill="none" stroke="#757575" d="M1013.61,-330.54C1026.99,-326.41 1041.82,-321.63 1055.25,-316.8 1069.98,-311.5 1085.95,-305.13 1099.91,-299.34"/>
<polygon fill="#757575" stroke="#757575" points="1100.87,-302.73 1108.74,-295.64 1098.17,-296.28 1100.87,-302.73"/>
</g>
<!-- field/model.ts&#45;&gt;eval/ast/complete.ts -->
<g id="edge20" class="edge">
<title>field/model.ts&#45;&gt;eval/ast/complete.ts</title>
<path fill="none" stroke="#757575" d="M1090.87,-285.46C1031.75,-288.77 930,-294.46 859.29,-298.42"/>
<polygon fill="#757575" stroke="#757575" points="859.52,-294.9 849.73,-298.95 859.91,-301.89 859.52,-294.9"/>
</g>
<!-- eval/ast/tx.ts -->
<g id="node5" class="node">
<title>eval/ast/tx.ts</title>
<path fill="none" stroke="#ff6c60" d="M1008.33,-38.67C1008.33,-38.67 933.17,-38.67 933.17,-38.67 929.21,-38.67 925.25,-34.72 925.25,-30.76 925.25,-30.76 925.25,-22.84 925.25,-22.84 925.25,-18.88 929.21,-14.92 933.17,-14.92 933.17,-14.92 1008.33,-14.92 1008.33,-14.92 1012.29,-14.92 1016.25,-18.88 1016.25,-22.84 1016.25,-22.84 1016.25,-30.76 1016.25,-30.76 1016.25,-34.72 1012.29,-38.67 1008.33,-38.67"/>
<text text-anchor="middle" x="970.75" y="-21.37" font-family="Arial" font-size="14.00" fill="#ff6c60">eval/ast/tx.ts</text>
</g>
<!-- eval/glsl.ts -->
<g id="node6" class="node">
<title>eval/glsl.ts</title>
<path fill="none" stroke="#ff6c60" d="M1170.96,-38.67C1170.96,-38.67 1107.79,-38.67 1107.79,-38.67 1103.83,-38.67 1099.88,-34.72 1099.88,-30.76 1099.88,-30.76 1099.88,-22.84 1099.88,-22.84 1099.88,-18.88 1103.83,-14.92 1107.79,-14.92 1107.79,-14.92 1170.96,-14.92 1170.96,-14.92 1174.92,-14.92 1178.88,-18.88 1178.88,-22.84 1178.88,-22.84 1178.88,-30.76 1178.88,-30.76 1178.88,-34.72 1174.92,-38.67 1170.96,-38.67"/>
<text text-anchor="middle" x="1139.38" y="-21.37" font-family="Arial" font-size="14.00" fill="#ff6c60">eval/glsl.ts</text>
</g>
<!-- eval/ast/tx.ts&#45;&gt;eval/glsl.ts -->
<g id="edge5" class="edge">
<title>eval/ast/tx.ts&#45;&gt;eval/glsl.ts</title>
<path fill="none" stroke="#757575" d="M1016.4,-20.74C1038.59,-19.89 1065.47,-19.82 1088.34,-20.55"/>
<polygon fill="#757575" stroke="#757575" points="1087.91,-24.04 1098.04,-20.93 1088.19,-17.04 1087.91,-24.04"/>
</g>
<!-- eval/js.ts -->
<g id="node7" class="node">
<title>eval/js.ts</title>
<path fill="none" stroke="#ff6c60" d="M617.46,-38.67C617.46,-38.67 564.79,-38.67 564.79,-38.67 560.83,-38.67 556.88,-34.72 556.88,-30.76 556.88,-30.76 556.88,-22.84 556.88,-22.84 556.88,-18.88 560.83,-14.92 564.79,-14.92 564.79,-14.92 617.46,-14.92 617.46,-14.92 621.42,-14.92 625.38,-18.88 625.38,-22.84 625.38,-22.84 625.38,-30.76 625.38,-30.76 625.38,-34.72 621.42,-38.67 617.46,-38.67"/>
<text text-anchor="middle" x="591.12" y="-21.37" font-family="Arial" font-size="14.00" fill="#ff6c60">eval/js.ts</text>
</g>
<!-- eval/ast/tx.ts&#45;&gt;eval/js.ts -->
<g id="edge6" class="edge">
<title>eval/ast/tx.ts&#45;&gt;eval/js.ts</title>
<path fill="none" stroke="#757575" d="M924.79,-31.36C852.14,-34.28 709.76,-34.28 637.1,-31.36"/>
<polygon fill="#757575" stroke="#757575" points="637.3,-27.87 627.15,-30.91 636.98,-34.86 637.3,-27.87"/>
</g>
<!-- eval/glsl.ts&#45;&gt;eval/ast/tx.ts -->
<g id="edge7" class="edge">
<title>eval/glsl.ts&#45;&gt;eval/ast/tx.ts</title>
<path fill="none" stroke="#757575" d="M1099.55,-32.61C1078.18,-33.61 1051.28,-33.81 1027.68,-33.21"/>
<polygon fill="#757575" stroke="#757575" points="1028.02,-29.72 1017.92,-32.9 1027.8,-36.72 1028.02,-29.72"/>
</g>
<!-- eval/js.ts&#45;&gt;eval/ast/tx.ts -->
<g id="edge8" class="edge">
<title>eval/js.ts&#45;&gt;eval/ast/tx.ts</title>
<path fill="none" stroke="#757575" d="M625.64,-22.75C690.5,-19.49 833.81,-19.18 913.51,-21.83"/>
<polygon fill="#757575" stroke="#757575" points="913.15,-25.32 923.28,-22.18 913.41,-18.32 913.15,-25.32"/>
</g>
<!-- eval/ty/coerce.ts -->
<g id="node8" class="node">
<title>eval/ty/coerce.ts</title>
<path fill="none" stroke="#ff6c60" d="M639.96,-274.67C639.96,-274.67 542.29,-274.67 542.29,-274.67 538.33,-274.67 534.38,-270.72 534.38,-266.76 534.38,-266.76 534.38,-258.84 534.38,-258.84 534.38,-254.88 538.33,-250.92 542.29,-250.92 542.29,-250.92 639.96,-250.92 639.96,-250.92 643.92,-250.92 647.88,-254.88 647.88,-258.84 647.88,-258.84 647.88,-266.76 647.88,-266.76 647.88,-270.72 643.92,-274.67 639.96,-274.67"/>
<text text-anchor="middle" x="591.12" y="-257.37" font-family="Arial" font-size="14.00" fill="#ff6c60">eval/ty/coerce.ts</text>
</g>
<!-- eval/ty/index.ts -->
<g id="node9" class="node">
<title>eval/ty/index.ts</title>
<path fill="none" stroke="#ff6c60" d="M454.83,-274.67C454.83,-274.67 365.42,-274.67 365.42,-274.67 361.46,-274.67 357.5,-270.72 357.5,-266.76 357.5,-266.76 357.5,-258.84 357.5,-258.84 357.5,-254.88 361.46,-250.92 365.42,-250.92 365.42,-250.92 454.83,-250.92 454.83,-250.92 458.79,-250.92 462.75,-254.88 462.75,-258.84 462.75,-258.84 462.75,-266.76 462.75,-266.76 462.75,-270.72 458.79,-274.67 454.83,-274.67"/>
<text text-anchor="middle" x="410.12" y="-257.37" font-family="Arial" font-size="14.00" fill="#ff6c60">eval/ty/index.ts</text>
</g>
<!-- eval/ty/coerce.ts&#45;&gt;eval/ty/index.ts -->
<g id="edge9" class="edge">
<title>eval/ty/coerce.ts&#45;&gt;eval/ty/index.ts</title>
<path fill="none" stroke="#757575" d="M534.09,-269.11C515.06,-269.63 493.68,-269.69 474.15,-269.28"/>
<polygon fill="#757575" stroke="#757575" points="474.5,-265.79 464.41,-269.02 474.32,-272.79 474.5,-265.79"/>
</g>
<!-- eval/ty/index.ts&#45;&gt;eval/ty/coerce.ts -->
<g id="edge10" class="edge">
<title>eval/ty/index.ts&#45;&gt;eval/ty/coerce.ts</title>
<path fill="none" stroke="#757575" d="M462.9,-256.61C481.54,-256.02 502.86,-255.9 522.65,-256.23"/>
<polygon fill="#757575" stroke="#757575" points="522.5,-259.73 532.57,-256.45 522.65,-252.73 522.5,-259.73"/>
</g>
<!-- field/cmd/leaf/cmp.ts -->
<g id="node10" class="node">
<title>field/cmd/leaf/cmp.ts</title>
<path fill="none" stroke="#ff6c60" d="M842.33,-394.67C842.33,-394.67 717.67,-394.67 717.67,-394.67 713.71,-394.67 709.75,-390.72 709.75,-386.76 709.75,-386.76 709.75,-378.84 709.75,-378.84 709.75,-374.88 713.71,-370.92 717.67,-370.92 717.67,-370.92 842.33,-370.92 842.33,-370.92 846.29,-370.92 850.25,-374.88 850.25,-378.84 850.25,-378.84 850.25,-386.76 850.25,-386.76 850.25,-390.72 846.29,-394.67 842.33,-394.67"/>
<text text-anchor="middle" x="780" y="-377.37" font-family="Arial" font-size="14.00" fill="#ff6c60">field/cmd/leaf/cmp.ts</text>
</g>
<!-- field/cmd/leaf/cmp.ts&#45;&gt;field/model.ts -->
<g id="edge12" class="edge">
<title>field/cmd/leaf/cmp.ts&#45;&gt;field/model.ts</title>
<path fill="none" stroke="#757575" d="M850.66,-390.84C908.08,-394.52 990.34,-392.85 1055.25,-363.8 1084.04,-350.91 1108.71,-323.5 1123.52,-304.14"/>
<polygon fill="#757575" stroke="#757575" points="1126.15,-306.47 1129.26,-296.35 1120.52,-302.32 1126.15,-306.47"/>
</g>
<!-- field/cmd/leaf/op.ts -->
<g id="node11" class="node">
<title>field/cmd/leaf/op.ts</title>
<path fill="none" stroke="#ff6c60" d="M1027.46,-434.67C1027.46,-434.67 914.04,-434.67 914.04,-434.67 910.08,-434.67 906.12,-430.72 906.12,-426.76 906.12,-426.76 906.12,-418.84 906.12,-418.84 906.12,-414.88 910.08,-410.92 914.04,-410.92 914.04,-410.92 1027.46,-410.92 1027.46,-410.92 1031.42,-410.92 1035.38,-414.88 1035.38,-418.84 1035.38,-418.84 1035.38,-426.76 1035.38,-426.76 1035.38,-430.72 1031.42,-434.67 1027.46,-434.67"/>
<text text-anchor="middle" x="970.75" y="-417.37" font-family="Arial" font-size="14.00" fill="#ff6c60">field/cmd/leaf/op.ts</text>
</g>
<!-- field/cmd/leaf/cmp.ts&#45;&gt;field/cmd/leaf/op.ts -->
<g id="edge11" class="edge">
<title>field/cmd/leaf/cmp.ts&#45;&gt;field/cmd/leaf/op.ts</title>
<path fill="none" stroke="#757575" d="M850.75,-391.04C875.7,-395.89 903.12,-401.94 925.34,-407.56"/>
<polygon fill="#757575" stroke="#757575" points="924.43,-410.94 934.98,-410.07 926.19,-404.17 924.43,-410.94"/>
</g>
<!-- field/cmd/leaf/op.ts&#45;&gt;field/model.ts -->
<g id="edge16" class="edge">
<title>field/cmd/leaf/op.ts&#45;&gt;field/model.ts</title>
<path fill="none" stroke="#757575" d="M1028.43,-410.57C1037.89,-407.05 1047.23,-402.54 1055.25,-396.8 1088.88,-372.72 1114.32,-330.8 1127.73,-305.06"/>
<polygon fill="#757575" stroke="#757575" points="1130.69,-306.97 1132.05,-296.47 1124.43,-303.83 1130.69,-306.97"/>
</g>
<!-- field/cmd/leaf/op.ts&#45;&gt;field/cmd/leaf/cmp.ts -->
<g id="edge15" class="edge">
<title>field/cmd/leaf/op.ts&#45;&gt;field/cmd/leaf/cmp.ts</title>
<path fill="none" stroke="#757575" d="M905.87,-415.69C879.35,-410.65 849.23,-404.07 825.22,-397.99"/>
<polygon fill="#757575" stroke="#757575" points="826.33,-394.66 815.77,-395.53 824.57,-401.44 826.33,-394.66"/>
</g>
<!-- field/cmd/leaf/num.ts -->
<g id="node12" class="node">
<title>field/cmd/leaf/num.ts</title>
<path fill="none" stroke="#ff6c60" d="M1033.46,-118.67C1033.46,-118.67 908.04,-118.67 908.04,-118.67 904.08,-118.67 900.12,-114.72 900.12,-110.76 900.12,-110.76 900.12,-102.84 900.12,-102.84 900.12,-98.88 904.08,-94.92 908.04,-94.92 908.04,-94.92 1033.46,-94.92 1033.46,-94.92 1037.42,-94.92 1041.38,-98.88 1041.38,-102.84 1041.38,-102.84 1041.38,-110.76 1041.38,-110.76 1041.38,-114.72 1037.42,-118.67 1033.46,-118.67"/>
<text text-anchor="middle" x="970.75" y="-101.37" font-family="Arial" font-size="14.00" fill="#ff6c60">field/cmd/leaf/num.ts</text>
</g>
<!-- field/cmd/leaf/num.ts&#45;&gt;field/model.ts -->
<g id="edge14" class="edge">
<title>field/cmd/leaf/num.ts&#45;&gt;field/model.ts</title>
<path fill="none" stroke="#757575" d="M1031.22,-119.07C1039.85,-122.56 1048.19,-127.05 1055.25,-132.8 1096.79,-166.62 1121,-226.98 1131.72,-259.88"/>
<polygon fill="#757575" stroke="#757575" points="1128.31,-260.7 1134.62,-269.22 1134.99,-258.63 1128.31,-260.7"/>
</g>
<!-- field/cmd/leaf/var.ts -->
<g id="node13" class="node">
<title>field/cmd/leaf/var.ts</title>
<path fill="none" stroke="#ff6c60" d="M838.21,-103.67C838.21,-103.67 721.79,-103.67 721.79,-103.67 717.83,-103.67 713.88,-99.72 713.88,-95.76 713.88,-95.76 713.88,-87.84 713.88,-87.84 713.88,-83.88 717.83,-79.92 721.79,-79.92 721.79,-79.92 838.21,-79.92 838.21,-79.92 842.17,-79.92 846.12,-83.88 846.12,-87.84 846.12,-87.84 846.12,-95.76 846.12,-95.76 846.12,-99.72 842.17,-103.67 838.21,-103.67"/>
<text text-anchor="middle" x="780" y="-86.37" font-family="Arial" font-size="14.00" fill="#ff6c60">field/cmd/leaf/var.ts</text>
</g>
<!-- field/cmd/leaf/num.ts&#45;&gt;field/cmd/leaf/var.ts -->
<g id="edge13" class="edge">
<title>field/cmd/leaf/num.ts&#45;&gt;field/cmd/leaf/var.ts</title>
<path fill="none" stroke="#757575" d="M899.88,-107.79C886.09,-106.93 871.56,-105.81 857.57,-104.53"/>
<polygon fill="#757575" stroke="#757575" points="858.28,-101.08 847.99,-103.61 857.61,-108.05 858.28,-101.08"/>
</g>
<!-- field/cmd/leaf/var.ts&#45;&gt;field/model.ts -->
<g id="edge19" class="edge">
<title>field/cmd/leaf/var.ts&#45;&gt;field/model.ts</title>
<path fill="none" stroke="#757575" d="M815.64,-79.43C871.3,-61.92 981.83,-37.09 1055.25,-85.8 1114.51,-125.12 1131.63,-215.92 1136.49,-259.13"/>
<polygon fill="#757575" stroke="#757575" points="1132.99,-259.32 1137.45,-268.93 1139.96,-258.64 1132.99,-259.32"/>
</g>
<!-- field/cmd/leaf/var.ts&#45;&gt;eval/ast/tx.ts -->
<g id="edge17" class="edge">
<title>field/cmd/leaf/var.ts&#45;&gt;eval/ast/tx.ts</title>
<path fill="none" stroke="#757575" d="M812.62,-79.58C833.44,-71.66 861.35,-61.28 886.25,-52.8 896.49,-49.31 907.5,-45.75 918.05,-42.43"/>
<polygon fill="#757575" stroke="#757575" points="918.89,-45.83 927.39,-39.51 916.8,-39.15 918.89,-45.83"/>
</g>
<!-- field/cmd/leaf/var.ts&#45;&gt;field/cmd/leaf/num.ts -->
<g id="edge18" class="edge">
<title>field/cmd/leaf/var.ts&#45;&gt;field/cmd/leaf/num.ts</title>
<path fill="none" stroke="#757575" d="M846.49,-90.54C860.1,-91.34 874.59,-92.42 888.69,-93.67"/>
<polygon fill="#757575" stroke="#757575" points="888.09,-97.13 898.37,-94.56 888.74,-90.16 888.09,-97.13"/>
</g>
<!-- sheet/item.ts -->
<g id="node14" class="node">
<title>sheet/item.ts</title>
<path fill="none" stroke="#ff6c60" d="M284.33,-512.67C284.33,-512.67 206.92,-512.67 206.92,-512.67 202.96,-512.67 199,-508.72 199,-504.76 199,-504.76 199,-496.84 199,-496.84 199,-492.88 202.96,-488.92 206.92,-488.92 206.92,-488.92 284.33,-488.92 284.33,-488.92 288.29,-488.92 292.25,-492.88 292.25,-496.84 292.25,-496.84 292.25,-504.76 292.25,-504.76 292.25,-508.72 288.29,-512.67 284.33,-512.67"/>
<text text-anchor="middle" x="245.62" y="-495.37" font-family="Arial" font-size="14.00" fill="#ff6c60">sheet/item.ts</text>
</g>
<!-- sheet/item.ts&#45;&gt;field/model.ts -->
<g id="edge21" class="edge">
<title>sheet/item.ts&#45;&gt;field/model.ts</title>
<path fill="none" stroke="#757575" d="M292.74,-500.8C358.67,-500.8 483.68,-500.8 590.12,-500.8 590.12,-500.8 590.12,-500.8 781,-500.8 903.35,-500.8 956.14,-548.55 1055.25,-476.8 1111.86,-435.82 1130.26,-348.22 1135.96,-306.21"/>
<polygon fill="#757575" stroke="#757575" points="1139.41,-306.82 1137.14,-296.47 1132.46,-305.98 1139.41,-306.82"/>
</g>
<!-- sheet/ui/expr/index.ts -->
<g id="node15" class="node">
<title>sheet/ui/expr/index.ts</title>
<path fill="none" stroke="#ff6c60" d="M135.58,-274.67C135.58,-274.67 7.92,-274.67 7.92,-274.67 3.96,-274.67 0,-270.72 0,-266.76 0,-266.76 0,-258.84 0,-258.84 0,-254.88 3.96,-250.92 7.92,-250.92 7.92,-250.92 135.58,-250.92 135.58,-250.92 139.54,-250.92 143.5,-254.88 143.5,-258.84 143.5,-258.84 143.5,-266.76 143.5,-266.76 143.5,-270.72 139.54,-274.67 135.58,-274.67"/>
<text text-anchor="middle" x="71.75" y="-257.37" font-family="Arial" font-size="14.00" fill="#ff6c60">sheet/ui/expr/index.ts</text>
</g>
<!-- sheet/item.ts&#45;&gt;sheet/ui/expr/index.ts -->
<g id="edge22" class="edge">
<title>sheet/item.ts&#45;&gt;sheet/ui/expr/index.ts</title>
<path fill="none" stroke="#757575" d="M198.69,-496.3C191.75,-493.06 185.06,-488.9 179.5,-483.8 119.12,-428.43 88.14,-331.2 77.31,-286.31"/>
<polygon fill="#757575" stroke="#757575" points="80.73,-285.57 75.12,-276.59 73.91,-287.11 80.73,-285.57"/>
</g>
<!-- sheet/ui/expr/index.ts&#45;&gt;field/model.ts -->
<g id="edge37" class="edge">
<title>sheet/ui/expr/index.ts&#45;&gt;field/model.ts</title>
<path fill="none" stroke="#757575" d="M98.54,-275.14C119.84,-284.91 151.08,-298.28 179.5,-306.8 485.99,-398.66 567.76,-413.21 886.25,-443.8 961.02,-450.98 991.1,-482.87 1055.25,-443.8 1104.97,-413.51 1126.25,-342.87 1134.22,-306.05"/>
<polygon fill="#757575" stroke="#757575" points="1137.61,-306.94 1136.14,-296.45 1130.75,-305.57 1137.61,-306.94"/>
</g>
<!-- sheet/ui/expr/index.ts&#45;&gt;eval/js.ts -->
<g id="edge34" class="edge">
<title>sheet/ui/expr/index.ts&#45;&gt;eval/js.ts</title>
<path fill="none" stroke="#757575" d="M74.71,-250.54C81.39,-213.2 107.06,-100.45 179.5,-52.8 293.12,21.94 464.85,-0.11 545.42,-16.32"/>
<polygon fill="#757575" stroke="#757575" points="544.64,-19.73 555.15,-18.35 546.07,-12.88 544.64,-19.73"/>
</g>
<!-- sheet/ui/expr/index.ts&#45;&gt;field/cmd/leaf/cmp.ts -->
<g id="edge35" class="edge">
<title>sheet/ui/expr/index.ts&#45;&gt;field/cmd/leaf/cmp.ts</title>
<path fill="none" stroke="#757575" d="M143.7,-274.85C275.93,-297.32 559.21,-345.45 698.42,-369.11"/>
<polygon fill="#757575" stroke="#757575" points="697.46,-372.5 707.91,-370.72 698.64,-365.59 697.46,-372.5"/>
</g>
<!-- sheet/ui/expr/index.ts&#45;&gt;field/cmd/leaf/var.ts -->
<g id="edge36" class="edge">
<title>sheet/ui/expr/index.ts&#45;&gt;field/cmd/leaf/var.ts</title>
<path fill="none" stroke="#757575" d="M81.4,-250.69C97.75,-228.86 135.52,-183.26 179.5,-162.8 353.08,-82.03 584.18,-80.37 702.33,-86.06"/>
<polygon fill="#757575" stroke="#757575" points="702.08,-89.55 712.24,-86.57 702.44,-82.56 702.08,-89.55"/>
</g>
<!-- sheet/ui/expr/index.ts&#45;&gt;sheet/item.ts -->
<g id="edge38" class="edge">
<title>sheet/ui/expr/index.ts&#45;&gt;sheet/item.ts</title>
<path fill="none" stroke="#757575" d="M76.81,-275.03C87.15,-310.07 118.15,-409.54 179.5,-465.8 188.61,-474.15 200.74,-479.97 212.06,-484.51"/>
<polygon fill="#757575" stroke="#757575" points="210.54,-487.68 221.13,-487.98 213.04,-481.14 210.54,-487.68"/>
</g>
<!-- sheet/pick&#45;cursor.ts -->
<g id="node16" class="node">
<title>sheet/pick&#45;cursor.ts</title>
<path fill="none" stroke="#ff6c60" d="M303.83,-234.67C303.83,-234.67 187.42,-234.67 187.42,-234.67 183.46,-234.67 179.5,-230.72 179.5,-226.76 179.5,-226.76 179.5,-218.84 179.5,-218.84 179.5,-214.88 183.46,-210.92 187.42,-210.92 187.42,-210.92 303.83,-210.92 303.83,-210.92 307.79,-210.92 311.75,-214.88 311.75,-218.84 311.75,-218.84 311.75,-226.76 311.75,-226.76 311.75,-230.72 307.79,-234.67 303.83,-234.67"/>
<text text-anchor="middle" x="245.62" y="-217.37" font-family="Arial" font-size="14.00" fill="#ff6c60">sheet/pick&#45;cursor.ts</text>
</g>
<!-- sheet/ui/expr/index.ts&#45;&gt;sheet/pick&#45;cursor.ts -->
<g id="edge39" class="edge">
<title>sheet/ui/expr/index.ts&#45;&gt;sheet/pick&#45;cursor.ts</title>
<path fill="none" stroke="#757575" d="M125.72,-250.47C143.04,-246.44 162.46,-241.92 180.51,-237.72"/>
<polygon fill="#757575" stroke="#757575" points="181.11,-241.17 190.06,-235.5 179.53,-234.36 181.11,-241.17"/>
</g>
<!-- sheet/pick&#45;cursor.ts&#45;&gt;field/model.ts -->
<g id="edge25" class="edge">
<title>sheet/pick&#45;cursor.ts&#45;&gt;field/model.ts</title>
<path fill="none" stroke="#757575" d="M312.16,-222.8C381.28,-222.8 493.37,-222.8 590.12,-222.8 590.12,-222.8 590.12,-222.8 781,-222.8 903.18,-222.8 937.29,-209.95 1055.25,-241.8 1074.06,-246.88 1093.67,-256.32 1109.11,-264.87"/>
<polygon fill="#757575" stroke="#757575" points="1107.35,-267.89 1117.77,-269.82 1110.83,-261.82 1107.35,-267.89"/>
</g>
<!-- sheet/pick&#45;cursor.ts&#45;&gt;eval/js.ts -->
<g id="edge23" class="edge">
<title>sheet/pick&#45;cursor.ts&#45;&gt;eval/js.ts</title>
<path fill="none" stroke="#757575" d="M266.65,-210.44C286.96,-197.97 319.37,-178.26 347.75,-161.8 422.32,-118.56 511.08,-69.8 557.75,-44.37"/>
<polygon fill="#757575" stroke="#757575" points="559.15,-47.59 566.26,-39.74 555.8,-41.44 559.15,-47.59"/>
</g>
<!-- sheet/pick&#45;cursor.ts&#45;&gt;eval/ty/index.ts -->
<g id="edge24" class="edge">
<title>sheet/pick&#45;cursor.ts&#45;&gt;eval/ty/index.ts</title>
<path fill="none" stroke="#757575" d="M296.71,-235.13C312.92,-239.12 331.09,-243.59 348.02,-247.76"/>
<polygon fill="#757575" stroke="#757575" points="346.91,-251.09 357.46,-250.08 348.59,-244.29 346.91,-251.09"/>
</g>
<!-- sheet/ui/cv/item.ts -->
<g id="node17" class="node">
<title>sheet/ui/cv/item.ts</title>
<path fill="none" stroke="#ff6c60" d="M464.58,-194.67C464.58,-194.67 355.67,-194.67 355.67,-194.67 351.71,-194.67 347.75,-190.72 347.75,-186.76 347.75,-186.76 347.75,-178.84 347.75,-178.84 347.75,-174.88 351.71,-170.92 355.67,-170.92 355.67,-170.92 464.58,-170.92 464.58,-170.92 468.54,-170.92 472.5,-174.88 472.5,-178.84 472.5,-178.84 472.5,-186.76 472.5,-186.76 472.5,-190.72 468.54,-194.67 464.58,-194.67"/>
<text text-anchor="middle" x="410.12" y="-177.37" font-family="Arial" font-size="14.00" fill="#ff6c60">sheet/ui/cv/item.ts</text>
</g>
<!-- sheet/pick&#45;cursor.ts&#45;&gt;sheet/ui/cv/item.ts -->
<g id="edge26" class="edge">
<title>sheet/pick&#45;cursor.ts&#45;&gt;sheet/ui/cv/item.ts</title>
<path fill="none" stroke="#757575" d="M296.71,-210.47C312.92,-206.48 331.09,-202.01 348.02,-197.84"/>
<polygon fill="#757575" stroke="#757575" points="348.59,-201.31 357.46,-195.52 346.91,-194.51 348.59,-201.31"/>
</g>
<!-- sheet/ui/cv/item.ts&#45;&gt;field/model.ts -->
<g id="edge32" class="edge">
<title>sheet/ui/cv/item.ts&#45;&gt;field/model.ts</title>
<path fill="none" stroke="#757575" d="M472.84,-180.06C612.93,-174.68 950.89,-166.65 1055.25,-208.8 1082.71,-219.89 1107.09,-244.23 1122.23,-261.98"/>
<polygon fill="#757575" stroke="#757575" points="1119.26,-263.87 1128.31,-269.38 1124.67,-259.43 1119.26,-263.87"/>
</g>
<!-- sheet/ui/cv/item&#45;virtual.ts -->
<g id="node18" class="node">
<title>sheet/ui/cv/item&#45;virtual.ts</title>
<path fill="none" stroke="#ff6c60" d="M665.83,-156.67C665.83,-156.67 516.42,-156.67 516.42,-156.67 512.46,-156.67 508.5,-152.72 508.5,-148.76 508.5,-148.76 508.5,-140.84 508.5,-140.84 508.5,-136.88 512.46,-132.92 516.42,-132.92 516.42,-132.92 665.83,-132.92 665.83,-132.92 669.79,-132.92 673.75,-136.88 673.75,-140.84 673.75,-140.84 673.75,-148.76 673.75,-148.76 673.75,-152.72 669.79,-156.67 665.83,-156.67"/>
<text text-anchor="middle" x="591.12" y="-139.37" font-family="Arial" font-size="14.00" fill="#ff6c60">sheet/ui/cv/item&#45;virtual.ts</text>
</g>
<!-- sheet/ui/cv/item.ts&#45;&gt;sheet/ui/cv/item&#45;virtual.ts -->
<g id="edge33" class="edge">
<title>sheet/ui/cv/item.ts&#45;&gt;sheet/ui/cv/item&#45;virtual.ts</title>
<path fill="none" stroke="#757575" d="M443.96,-170.47C459.14,-166.37 478.03,-161.9 497.13,-157.8"/>
<polygon fill="#757575" stroke="#757575" points="497.82,-161.23 506.89,-155.74 496.38,-154.38 497.82,-161.23"/>
</g>
<!-- sheet/ui/cv/item&#45;virtual.ts&#45;&gt;field/model.ts -->
<g id="edge29" class="edge">
<title>sheet/ui/cv/item&#45;virtual.ts&#45;&gt;field/model.ts</title>
<path fill="none" stroke="#757575" d="M673.95,-141.21C788.97,-137.53 991.53,-136.47 1055.25,-170.8 1091.62,-190.4 1116.44,-233.62 1128.94,-260.28"/>
<polygon fill="#757575" stroke="#757575" points="1125.65,-261.49 1132.93,-269.19 1132.04,-258.63 1125.65,-261.49"/>
</g>
<!-- sheet/ui/cv/item&#45;virtual.ts&#45;&gt;field/cmd/leaf/cmp.ts -->
<g id="edge27" class="edge">
<title>sheet/ui/cv/item&#45;virtual.ts&#45;&gt;field/cmd/leaf/cmp.ts</title>
<path fill="none" stroke="#757575" d="M604.48,-157.06C621.68,-174.63 653.05,-208.54 673.75,-241.8 694.78,-275.59 686,-291.86 709.75,-323.8 721.24,-339.25 737.48,-353.36 751.35,-363.9"/>
<polygon fill="#757575" stroke="#757575" points="749.13,-366.62 759.27,-369.71 753.27,-360.97 749.13,-366.62"/>
</g>
<!-- sheet/ui/cv/item&#45;virtual.ts&#45;&gt;field/cmd/leaf/var.ts -->
<g id="edge28" class="edge">
<title>sheet/ui/cv/item&#45;virtual.ts&#45;&gt;field/cmd/leaf/var.ts</title>
<path fill="none" stroke="#757575" d="M635.47,-132.51C662.02,-124.97 696.25,-115.27 724.61,-107.22"/>
<polygon fill="#757575" stroke="#757575" points="725.45,-110.63 734.11,-104.53 723.54,-103.89 725.45,-110.63"/>
</g>
<!-- sheet/ui/cv/item&#45;virtual.ts&#45;&gt;sheet/ui/expr/index.ts -->
<g id="edge31" class="edge">
<title>sheet/ui/cv/item&#45;virtual.ts&#45;&gt;sheet/ui/expr/index.ts</title>
<path fill="none" stroke="#757575" d="M508.16,-144.89C423.15,-147.55 287.77,-159.02 179.5,-201.8 151.01,-213.06 120.91,-230.86 99.97,-244.34"/>
<polygon fill="#757575" stroke="#757575" points="98.18,-241.32 91.73,-249.73 102.01,-247.18 98.18,-241.32"/>
</g>
<!-- sheet/ui/cv/item&#45;virtual.ts&#45;&gt;sheet/ui/cv/item.ts -->
<g id="edge30" class="edge">
<title>sheet/ui/cv/item&#45;virtual.ts&#45;&gt;sheet/ui/cv/item.ts</title>
<path fill="none" stroke="#757575" d="M557.19,-157.16C536.69,-162.69 509.47,-168.89 484.1,-173.96"/>
<polygon fill="#757575" stroke="#757575" points="483.61,-170.48 474.46,-175.83 484.95,-177.35 483.61,-170.48"/>
</g>
</g>
</svg>
