<svg xmlns="http://www.w3.org/2000/svg" version="1.1" xmlns:xlink="http://www.w3.org/1999/xlink" xmlns:svgjs="http://svgjs.dev/svgjs" width="26" height="26"><svg xmlns="http://www.w3.org/2000/svg" viewBox="0 0 26 26">
<rect x="0" y="0" width="26" height="26" rx="4" fill="white"></rect>
<rect x="0" y="0" width="26" height="26" rx="4" fill="#fa7e1960"></rect>
<path d="M7 0 5 0A1 1 0 004 1L4 3A1 1 0 005 4L7 4A1 1 0 008 3L8 1A1 1 0 007 0ZM3 8 1 8A1 1 0 000 9L0 11A1 1 0 001 12L3 12A1 1 0 014 13L4 15A1 1 0 005 16L7 16 7 16A1 1 0 008 15L8 13A1 1 0 019 12L11 12A1 1 0 0112 13L12 15A1 1 0 0013 16L15 16A1 1 0 0016 15L16 13A1 1 0 0117 12L19 12A1 1 0 0020 11L20 9A1 1 0 0019 8L17 8A1 1 0 0016 9L16 11A1 1 0 0115 12L13 12A1 1 0 0112 11L12 9A1 1 0 0011 8L9 8A1 1 0 008 9L8 11A1 1 0 017 12L5 12A1 1 0 014 11L4 9A1 1 0 003 8ZM15 0 13 0A1 1 0 0012 1L12 3A1 1 0 0013 4L15 4A1 1 0 0016 3L16 1A1 1 0 0015 0Z" transform="rotate(-90 13 13) translate(3 5)" fill="#fa7e19"></path>
</svg><style>@media (prefers-color-scheme: light) { :root { filter: none; } }
@media (prefers-color-scheme: dark) { :root { filter: none; } }
</style></svg>